<svg xmlns="http://www.w3.org/2000/svg" viewBox="0 0 16 16">
<path d="M14.8,10.1c-0.2,0-0.4,0.2-0.4,0.4V14c0,0.7-0.5,1.2-1.2,1.2H2c-0.7,0-1.2-0.5-1.2-1.2V3.6
	c0-0.7,0.5-1.2,1.2-1.2h3.5c0.2,0,0.4-0.2,0.4-0.4c0-0.2-0.2-0.4-0.4-0.4H2c-1.1,0-2,0.9-2,2V14c0,1.1,0.9,2,2,2h11.2
	c1.1,0,2-0.9,2-2v-3.5C15.2,10.2,15,10.1,14.8,10.1z"/>
<path d="M15,0.6c-0.7-0.7-1.8-0.7-2.5,0L5.4,7.7c0,0-0.1,0.1-0.1,0.2l-0.9,3.4c0,0.1,0,0.3,0.1,0.4
	c0.1,0.1,0.2,0.1,0.4,0.1l3.4-0.9c0.1,0,0.1-0.1,0.2-0.1l7.1-7.1c0.7-0.7,0.7-1.8,0-2.5L15,0.6z M6.2,8L12,2.1L13.9,4L8.1,9.8L6.2,8
	z M5.9,8.7l1.5,1.5l-2.1,0.6L5.9,8.7z M14.9,3l-0.4,0.4l-1.9-1.9L13,1.1c0.4-0.4,1-0.4,1.4,0l0.5,0.5C15.3,2,15.3,2.6,14.9,3z"/>
</svg>
