<svg viewBox="0 0 16 16"
     fill="#005AA3"
     xmlns="http://www.w3.org/2000/svg">
  <path
      d="m 14.629821,0.73854553 c -0.953978,-0.95395927 -2.500667,-0.95395927 -3.454645,0 L 1.4907557,10.422732 c -0.066369,0.06638 -0.114292,0.148644 -0.1393027,0.238972 l -1.27353245,4.59762 c -0.05237818,0.18853 8.4459e-4,0.39041 0.13909849,0.52881 0.13845824,0.138265 0.34032882,0.191526 0.52883581,0.139354 L 5.3435972,14.653686 c 0.09033,-0.02493 0.1725961,-0.07288 0.2389645,-0.139217 L 15.266805,4.8300311 c 0.952479,-0.9545954 0.952479,-2.4999266 0,-3.454522 z M 2.6735356,10.775571 10.599495,2.8495967 13.15574,5.4057144 5.2295095,13.331689 Z M 2.1629402,11.800143 4.2051311,13.842491 1.3802915,14.62508 Z M 14.499182,4.0624534 13.923498,4.6381367 11.367116,2.081801 11.943072,1.5061178 c 0.529912,-0.529879 1.389078,-0.529879 1.91899,0 l 0.63712,0.636969 c 0.529095,0.5305124 0.529095,1.3890586 0,1.9193666 z"/>
</svg>
