<svg viewBox="0 0 20 21" xmlns="http://www.w3.org/2000/svg">
  <path d="M12.9167 9.9293C13.6071 9.9293 14.1667 9.36965 14.1667 8.6793C14.1667 7.98894 13.6071 7.4293 12.9167 7.4293C12.2264 7.4293 11.6667 7.98894 11.6667 8.6793C11.6667 9.36965 12.2264 9.9293 12.9167 9.9293Z" fill="#A6A8B1"></path>
  <path d="M7.08325 9.9293C7.77361 9.9293 8.33325 9.36965 8.33325 8.6793C8.33325 7.98894 7.77361 7.4293 7.08325 7.4293C6.3929 7.4293 5.83325 7.98894 5.83325 8.6793C5.83325 9.36965 6.3929 9.9293 7.08325 9.9293Z" fill="#A6A8B1"></path>
  <path d="M9.99175 2.4293C5.39175 2.4293 1.66675 6.16263 1.66675 10.7626C1.66675 15.3626 5.39175 19.096 9.99175 19.096C14.6001 19.096 18.3334 15.3626 18.3334 10.7626C18.3334 6.16263 14.6001 2.4293 9.99175 2.4293ZM10.0001 17.4293C6.31675 17.4293 3.33341 14.446 3.33341 10.7626C3.33341 7.0793 6.31675 4.09597 10.0001 4.09597C13.6834 4.09597 16.6667 7.0793 16.6667 10.7626C16.6667 14.446 13.6834 17.4293 10.0001 17.4293ZM10.0001 14.096C8.76675 14.096 7.70842 13.421 7.12508 12.4293H5.73342C6.40008 14.1376 8.05841 15.346 10.0001 15.346C11.9417 15.346 13.6001 14.1376 14.2667 12.4293H12.8751C12.2917 13.421 11.2334 14.096 10.0001 14.096Z" fill="#A6A8B1"></path>
</svg>
