<svg xmlns="http://www.w3.org/2000/svg" viewBox="0 0 24 24">
  <path d="M12 20.975l-1.025-.925c-1.763-1.619-3.22-3.015-4.372-4.19-1.152-1.173-2.07-2.223-2.753-3.148-.683-.925-1.163-1.762-1.438-2.512A6.564 6.564 0 0 1 2 7.925c0-1.503.504-2.757 1.513-3.765C4.52 3.153 5.767 2.65 7.25 2.65c.95 0 1.83.225 2.637.675.809.45 1.513 1.1 2.113 1.95.7-.9 1.442-1.563 2.225-1.988a5.213 5.213 0 0 1 2.525-.637c1.483 0 2.73.503 3.738 1.51C21.495 5.168 22 6.422 22 7.925c0 .767-.137 1.525-.413 2.275-.274.75-.754 1.587-1.437 2.512s-1.601 1.975-2.753 3.149c-1.152 1.174-2.61 2.57-4.372 4.189L12 20.975zM12 19c1.687-1.55 3.076-2.88 4.166-3.988 1.09-1.108 1.955-2.079 2.596-2.912.642-.833 1.092-1.576 1.35-2.228.259-.653.388-1.3.388-1.943 0-1.103-.35-2.008-1.05-2.717-.7-.708-1.598-1.062-2.694-1.062-.86 0-1.654.262-2.385.787-.73.525-1.321 1.263-1.771 2.213h-1.225c-.433-.933-1.015-1.667-1.746-2.2-.731-.533-1.526-.8-2.385-.8-1.096 0-1.994.354-2.694 1.062-.7.709-1.05 1.616-1.05 2.72 0 .646.13 1.297.388 1.955.258.659.708 1.409 1.35 2.25.641.842 1.512 1.813 2.612 2.913 1.1 1.1 2.483 2.417 4.15 3.95z"/>
  <path d="M3.47 7.353a4.175 4.175 0 0 1 5.085-3.598l.857.197A3.072 3.072 0 0 1 11.6 8.02l-1.373 3.674c-.146.39-.16.819-.042 1.219.543 1.82-1.606 3.236-3.065 2.02L4.26 12.55a3.042 3.042 0 0 1-1.075-2.68l.286-2.517z"/>
  <path d="M14.39 4.718a4.02 4.02 0 0 1 5.111-.22l1.425 1.076a2.488 2.488 0 0 1 .237 3.768c-.109.105-.207.22-.294.343l-2.53 3.564a3.369 3.369 0 0 1-.397.465l-5.79 5.637a.087.087 0 1 0 .109-.01L6.95 15.8a2.02 2.02 0 0 1-.377-3.037L11.5 7.32l2.89-2.602z"/>
</svg>
