<?xml version="1.0" standalone="no"?>
<!DOCTYPE svg PUBLIC "-//W3C//DTD SVG 20010904//EN"
 "http://www.w3.org/TR/2001/REC-SVG-20010904/DTD/svg10.dtd">
<svg version="1.0" xmlns="http://www.w3.org/2000/svg"
 width="40.000000pt" height="40.000000pt" viewBox="0 0 40.000000 40.000000"
 preserveAspectRatio="xMidYMid meet">

<g transform="translate(0.000000,40.000000) scale(0.100000,-0.100000)"
fill="#000000" stroke="none">
<path d="M135 388 c-165 -58 -180 -282 -25 -366 93 -50 215 -10 268 88 20 38
23 55 19 104 -12 133 -138 217 -262 174z m161 -63 c88 -67 84 -190 -10 -259
-39 -29 -133 -29 -172 0 -52 39 -69 71 -69 133 0 48 5 64 29 95 16 21 43 44
60 52 47 22 118 12 162 -21z"/>
<path d="M180 280 c0 -13 7 -20 20 -20 13 0 20 7 20 20 0 13 -7 20 -20 20 -13
0 -20 -7 -20 -20z"/>
<path d="M180 160 c0 -53 2 -60 20 -60 18 0 20 7 20 60 0 53 -2 60 -20 60 -18
0 -20 -7 -20 -60z"/>
</g>
</svg>
