<svg xmlns="http://www.w3.org/2000/svg" viewBox="0 0 20 21">
  <path d="M11.6,18.9H8.4c-0.1,0-0.3,0.1-0.4,0.2c-0.1,0.1-0.1,0.3,0,0.4l0.3,0.6C8.6,20.6,9.2,21,9.8,21h0.3 c0.6,0,1.2-0.4,1.5-0.9l0.3-0.6c0.1-0.1,0.1-0.3,0-0.4C11.8,19,11.7,18.9,11.6,18.9L11.6,18.9z"/>
  <path d="M10,3.8c0.5,0,0.8-0.4,0.8-0.8V0.8C10.8,0.4,10.5,0,10,0C9.5,0,9.2,0.4,9.2,0.8v2.1C9.2,3.4,9.5,3.8,10,3.8z"/>
  <path d="M17.7,3.2c-0.3-0.3-0.9-0.3-1.2,0L15,4.6c-0.2,0.2-0.3,0.5-0.2,0.8c0.1,0.3,0.3,0.5,0.6,0.6 c0.3,0.1,0.6,0,0.8-0.2l1.5-1.5C18,4,18,3.5,17.7,3.2z"/>
  <path d="M19.2,10h-1.7c-0.5,0-0.8,0.4-0.8,0.8c0,0.5,0.4,0.8,0.8,0.8h1.7c0.5,0,0.8-0.4,0.8-0.8 C20,10.4,19.6,10,19.2,10z"/>
  <path d="M5,4.6L3.5,3.2c-0.3-0.3-0.8-0.3-1.2,0C2,3.5,2,4,2.3,4.4l1.5,1.5c0.3,0.3,0.8,0.3,1.2,0C5.3,5.5,5.3,5,5,4.6z" />
  <path d="M2.5,10H0.8C0.4,10,0,10.4,0,10.8c0,0.5,0.4,0.8,0.8,0.8h1.7c0.5,0,0.8-0.4,0.8-0.8C3.3,10.4,3,10,2.5,10z" />
	<path d="M12.1,17.4H7.9c-0.9,0-1.6-0.7-1.6-1.6v-0.5c-2.1-1.6-3-4.3-2.2-6.8C4.9,6,7.3,4.3,10,4.2h0c0,0,0,0,0,0 c2.7,0,5.1,1.7,5.9,4.3c0.8,2.5-0.1,5.2-2.2,6.8v0.5C13.7,16.7,13,17.4,12.1,17.4z M10,5.8L10,5.8C8,5.8,6.2,7.1,5.6,9 c-0.6,2,0.1,4.1,1.8,5.2c0.3,0.2,0.5,0.6,0.5,1v0.6c0,0,0,0.1,0.1,0.1h4.2c0,0,0.1,0,0.1-0.1v-0.6c0-0.4,0.2-0.7,0.5-1 c1.7-1.2,2.4-3.3,1.8-5.2C13.8,7.1,12.1,5.8,10,5.8C10,5.8,10,5.8,10,5.8z M6.5,15.5C6.5,15.5,6.5,15.5,6.5,15.5 C6.5,15.5,6.5,15.5,6.5,15.5z M13.5,15.5C13.5,15.5,13.5,15.5,13.5,15.5C13.5,15.5,13.5,15.5,13.5,15.5z" />
</svg>
