<svg fill="none" height="24" viewBox="0 0 24 24" width="24" xmlns="http://www.w3.org/2000/svg">
  <path
    d="M13.5626 20.9165H10.4376C10.2932 20.9165 10.159 20.9913 10.0831 21.1143C10.0072 21.2372 10.0004 21.3907 10.0651 21.5198L10.3451 22.079C10.6256 22.6442 11.2025 23.0012 11.8335 22.9998H12.1668C12.7971 23.0021 13.3741 22.6469 13.656 22.0832L13.936 21.524C14.0008 21.3947 13.9939 21.2411 13.9178 21.1181C13.8417 20.9951 13.7073 20.9204 13.5626 20.9207V20.9165Z"
    fill="#4D4F5D"/>
  <path
    d="M11.9998 5.75C12.4601 5.75 12.8332 5.3769 12.8332 4.91667V2.83333C12.8332 2.3731 12.4601 2 11.9998 2C11.5396 2 11.1665 2.3731 11.1665 2.83333V4.91667C11.1665 5.3769 11.5396 5.75 11.9998 5.75Z"
    fill="#4D4F5D"/>
  <path
    d="M19.6601 5.17331C19.3347 4.84799 18.8072 4.84799 18.4818 5.17331L17.0093 6.64664C16.7927 6.85587 16.7058 7.16571 16.7821 7.45707C16.8583 7.74842 17.0859 7.97596 17.3772 8.05222C17.6686 8.12849 17.9784 8.04161 18.1876 7.82498L19.6601 6.35164C19.9855 6.02623 19.9855 5.49873 19.6601 5.17331Z"
    fill="#4D4F5D"/>
  <path
    d="M21.1665 12H19.4998C19.0396 12 18.6665 12.3731 18.6665 12.8333C18.6665 13.2936 19.0396 13.6667 19.4998 13.6667H21.1665C21.6267 13.6667 21.9998 13.2936 21.9998 12.8333C21.9998 12.3731 21.6267 12 21.1665 12Z"
    fill="#4D4F5D"/>
  <path
    d="M6.99155 6.64671L5.51822 5.17338C5.19123 4.85757 4.67148 4.86209 4.35003 5.18353C4.02859 5.50498 4.02407 6.02473 4.33988 6.35171L5.81322 7.82505C6.1402 8.14086 6.65995 8.13634 6.9814 7.8149C7.30284 7.49345 7.30736 6.9737 6.99155 6.64671Z"
    fill="#4D4F5D"/>
  <path
    d="M4.5 12H2.83333C2.3731 12 2 12.3731 2 12.8333C2 13.2936 2.3731 13.6667 2.83333 13.6667H4.5C4.96024 13.6667 5.33333 13.2936 5.33333 12.8333C5.33333 12.3731 4.96024 12 4.5 12Z"
    fill="#4D4F5D"/>
  <path
    d="M11.9998 7C9.63658 7.00351 7.54837 8.53877 6.84016 10.7934C6.13194 13.0481 6.96722 15.5016 8.90401 16.8558C9.01627 16.9337 9.08322 17.0617 9.08317 17.1983V17.8333C9.08317 18.2936 9.45627 18.6667 9.91651 18.6667H14.0832C14.5434 18.6667 14.9165 18.2936 14.9165 17.8333V17.1975C14.9165 17.0609 14.9834 16.9329 15.0957 16.855C17.0375 15.5035 17.8766 13.0475 17.1676 10.7904C16.4585 8.53328 14.3657 6.99825 11.9998 7Z"
    stroke="#4D4F5D" stroke-width="1.5"/>
</svg>
