<svg width="16" height="16" viewBox="0 0 16 16" xmlns="http://www.w3.org/2000/svg">
    <path fill-rule="evenodd" clip-rule="evenodd" d="M10.7124 10.0629H11.4351L16 14.6369L14.6369 16L10.0629 11.4351V10.7124L9.81589 10.4563C8.77301 11.3528 7.4191 11.8925 5.94625 11.8925C2.66209 11.8925 0 9.23042 0 5.94625C0 2.66209 2.66209 0 5.94625 0C9.23042 0 11.8925 2.66209 11.8925 5.94625C11.8925 7.4191 11.3528 8.77301 10.4563 9.81589L10.7124 10.0629ZM1.83008 5.94672C1.83008 8.22459 3.66884 10.0634 5.94672 10.0634C8.22459 10.0634 10.0634 8.22459 10.0634 5.94672C10.0634 3.66884 8.22459 1.83008 5.94672 1.83008C3.66884 1.83008 1.83008 3.66884 1.83008 5.94672Z" />
</svg>
