<svg width="16" height="16" viewBox="0 0 16 16" fill="none" xmlns="http://www.w3.org/2000/svg">
    <path d="M10.5225 5.79688C10.2859 5.79688 10.0942 5.96461 10.0942 6.17158V13.2535C10.0942 13.4603 10.2859 13.6282 10.5225 13.6282C10.759 13.6282 10.9507 13.4603 10.9507 13.2535V6.17158C10.9507 5.96461 10.759 5.79688 10.5225 5.79688Z" fill="#005AA3"/>
    <path d="M5.46925 5.79688C5.23272 5.79688 5.04102 5.96461 5.04102 6.17158V13.2535C5.04102 13.4603 5.23272 13.6282 5.46925 13.6282C5.70579 13.6282 5.89749 13.4603 5.89749 13.2535V6.17158C5.89749 5.96461 5.70579 5.79688 5.46925 5.79688Z" fill="#005AA3"/>
    <path d="M1.78608 4.76334V13.9953C1.78608 14.5409 2.01475 15.0534 2.41422 15.4211C2.81184 15.7898 3.3652 15.9991 3.94432 15.9999H12.0467C12.626 15.9991 13.1793 15.7898 13.5768 15.4211C13.9762 15.0534 14.2049 14.5409 14.2049 13.9953V4.76334C14.999 4.57891 15.5135 3.90766 15.4073 3.1947C15.3009 2.48188 14.6069 1.94866 13.7852 1.94851H11.5927V1.48013C11.5952 1.08625 11.4172 0.708036 11.0985 0.429789C10.7799 0.151688 10.3469 -0.00317089 9.8968 4.92331e-05H6.0942C5.64405 -0.00317089 5.21113 0.151688 4.89246 0.429789C4.5738 0.708036 4.39581 1.08625 4.39832 1.48013V1.94851H2.20579C1.38411 1.94866 0.690068 2.48188 0.583678 3.1947C0.477455 3.90766 0.992007 4.57891 1.78608 4.76334ZM12.0467 15.2505H3.94432C3.21214 15.2505 2.64255 14.7002 2.64255 13.9953V4.79627H13.3484V13.9953C13.3484 14.7002 12.7789 15.2505 12.0467 15.2505ZM5.25479 1.48013C5.25195 1.28502 5.3396 1.09723 5.49785 0.959498C5.65593 0.821765 5.87105 0.746092 6.0942 0.749459H9.8968C10.1199 0.746092 10.3351 0.821765 10.4931 0.959498C10.6514 1.09709 10.739 1.28502 10.7362 1.48013V1.94851H5.25479V1.48013ZM2.20579 2.69792H13.7852C14.2109 2.69792 14.556 2.99988 14.556 3.37239C14.556 3.7449 14.2109 4.04686 13.7852 4.04686H2.20579C1.78006 4.04686 1.43496 3.7449 1.43496 3.37239C1.43496 2.99988 1.78006 2.69792 2.20579 2.69792Z" fill="#005AA3"/>
    <path d="M7.99562 5.79688C7.75909 5.79688 7.56738 5.96461 7.56738 6.17158V13.2535C7.56738 13.4603 7.75909 13.6282 7.99562 13.6282C8.23215 13.6282 8.42386 13.4603 8.42386 13.2535V6.17158C8.42386 5.96461 8.23215 5.79688 7.99562 5.79688Z" fill="#005AA3"/>
</svg>
