<?xml version="1.0" encoding="utf-8"?>
<!-- Generator: Adobe Illustrator 23.0.6, SVG Export Plug-In . SVG Version: 6.00 Build 0)  -->
<svg version="1.1" id="Layer_1" xmlns="http://www.w3.org/2000/svg" xmlns:xlink="http://www.w3.org/1999/xlink" x="0px" y="0px"
	 viewBox="0 0 1261.2 500" style="enable-background:new 0 0 1261.2 500;" xml:space="preserve">
<style type="text/css">
	.st0{fill:#006EB5;}
</style>
<path class="st0" d="M401.8,120.8c2.2-4.1,2.5-8,2-11.8c-0.1-0.3-0.2-0.7-0.2-1c-0.5-2.4-1.4-4.8-2.3-7.3
	c-3.4-8.4-14.1-18.5-21.1-24.1c-14.3-11.5-24.9-22.7-32.9-39.6c-20.4,5.6-32.1,3.6-51.9-1.8c-12.8-3.5-19.7-7.9-32.9-10.5
	c-9.7-1.9-16.8-2.9-25.3-2.9c-12.1,0-24.2,4.3-33.8,11.7c-9.6-7.3-21.7-11.7-33.8-11.7c-8.5,0-15.5,1-25.3,2.9
	c-13.2,2.6-20.1,7.1-32.9,10.5C91.5,40.6,80,42.5,59.5,37c-7.1,15-13.3,21.5-24.6,32.6c-5.4,5-11.6,9-16.6,14.4
	c-7.2,7.7-11.9,11.4-14.9,22.1c-2.4,8.5,0.9,19.1,9.7,22.4c7.2,2.7,14.8,0,16.9-8c0.6-2.1,0.9-3.9,0.1-6.2
	c5.9,2.7,10.8,8.2,14.2,13.6c8.7,13.9,12.6,25.1,14.8,41.6c1.2,9.1,0.7,14.4,0.4,23.6c-0.6,15.5-1.8,24.3-5.4,39.4
	c-2,8.5-4,16.6-7.5,24.6c-8.3,19.5-16,29.7-32.3,43.4l-4.6,18.2c3.3,14.6,5.9,22.6,12,36.2c5.3,11.9,8.6,18.9,16.6,29.4
	c7.9,10.4,13.2,16,23.8,23.6c14.2,10.3,24.3,13.3,41,18c13.4,3.8,21.8,4.3,35.6,8c10.4,2.8,16.6,4.1,26.5,8.2
	c14.5,5.9,27,14.8,38.2,25.6c4.9-4.8,9.6-8.8,15.2-12.7c17.3-12.2,29.5-15.6,49.5-21c13.7-3.7,22.1-4.2,35.6-8
	c16.6-4.7,26.7-7.8,41-18c10.6-7.6,15.9-13.3,23.8-23.6c8-10.5,11.2-17.5,16.6-29.4c6.1-13.6,8.8-21.6,12-36.2l-4.6-18.2
	c-26.6-22.3-31.9-38.4-39.8-68c-4.3-16.1-7.2-45.7-5-62.9c1.9-14.4,4.2-22.8,11.3-35.4c4.3-7.8,9.3-15.8,17.7-19.7
	c-0.8,2.3-0.5,4.1,0.1,6.2c2.2,7.9,9.8,10.6,17,8C397.7,127,399.8,124.5,401.8,120.8z M392.6,314c-7.7-7.3-12.3-13.2-18.5-23.2
	c-2.4-3.9-4.4-7.8-6.2-11.7c5.2,7.5,12.1,14.9,21.6,22.9L392.6,314z M39.5,277.5c-6,13.8-14.8,26-25.5,36.5l3-11.9
	C27,293.8,33.8,286.5,39.5,277.5z M23.5,99c19.1,1.7,29.4,28.1,32.2,43.6l0.2,1c-1.4-3.5-3.2-7-5.4-11
	c-5.7-10.2-11.9-19.5-23.8-22.6l-1.3,2.7c2.4,1.9,2.5,4.3,1.8,7.1c-1.7,6.2-7.4,8-13,5.9c-3.3-1.2-4.9-3-6.7-6.3
	c-1.9-3.6-2.1-7-1.5-10.5C8.1,101,16,98.3,23.5,99z M397.2,99.1c-4-2.7-9.2-3.6-14.4-3.2c-20.7,1.9-31.8,29-34.9,46
	c-2.1,11.5-3.4,19.8-3.9,31.4c-1.3,17.8,1.5,44.6,5.5,59.7c2.2,8,4.1,15.1,6.4,21.6h-0.1c2.7,7.6,4.5,13.7,6.7,19.4
	c6.6,17.3,17.5,32.4,31.2,44.9c-4.8,20.9-14.7,46.1-27.8,63.2c-7.8,10.2-12.8,15.6-23.2,23c-13.8,9.9-23.5,12.9-40,17.6
	c-13.4,3.8-21.8,4.3-35.5,8c-10.6,2.9-16.8,4.2-26.9,8.3c-13.7,5.6-26.3,14-37,24.2c-4.7-4.5-7.9-7-13.5-11
	c-17.7-12.6-29.9-15.9-50.4-21.5c-13.7-3.7-22.1-4.2-35.6-8c-16.6-4.7-26.3-7.6-40-17.6c-10.3-7.4-15.4-12.8-23.2-23
	c-13-17.1-23-42.3-27.7-63.2c9.8-9,14.9-15.2,22.1-26.7c7.5-12,11.1-24.2,15.8-37.5c1.3-3.3,2.3-6.2,3.1-9.1
	c4.9-17.2,7.9-34.8,8.6-52.7c0.3-7.8,0.7-12.9,0.1-19.7c-0.4-11.6-1.8-19.9-3.9-31.4c-2.6-13.9-10.9-35.1-24.4-42.7
	c-7.4-4.2-17.8-4.9-24.7-0.4c4.2-7.3,13.1-15.5,18.8-20.1C41.8,68,53.5,56,61,40.2c19.4,5.1,32.3,2.6,51.1-2.4
	c12.7-3.4,19.6-7.9,32.7-10.5c9.5-1.9,16.4-2.8,24.7-2.8c6.7,0,11.5,0.9,18.4,3.5c6.7,2.5,9.8,4.5,15.4,8.9
	c9.8-7.7,21.1-12.5,33.8-12.5c8.3,0,15.2,1,24.7,2.8c13.1,2.6,20,7.1,32.7,10.5c18.7,5,31.7,7.5,51.1,2.4
	c6.6,13.6,13.7,21,24.2,31.2c5.2,5.1,11.4,9.1,16.4,14.5C390.9,91.1,394.5,94.3,397.2,99.1z M400.8,109.5c0.7,6.4-2,13.7-8.4,16.1
	c-5.5,2.1-11.3,0.3-13-5.9c-0.8-2.8-0.7-5.2,1.8-7.1l-1.3-2.7c-8.8,2.3-15.5,8.8-20.3,16.4c-3.8,6.1-6.7,11.7-9,17.4l0.2-1.1
	c2.4-12.8,10.3-33.5,22.9-40.6C382.8,97,398,97.3,400.8,109.5z M328.8,378.2c0.4-1.3,0.4-2.1,0.2-3.4c-0.2-1.2-0.4-2-1.1-3
	c-0.8-1.1-2-1.7-2.9-2.1c-0.8-0.4-3.2-0.6-4.1-0.6h-1.2c-0.7,0-1.1,0-1.8-0.1c-1-0.2-1.6-0.3-2.4-1.1l-1.9-1.9
	c0.5,0.2,0.8,0.3,1.3,0.3c0.4,0.1,0.7,0.1,1.1,0.1h5.5c1,0,1.5,0.1,2.5,0.3c0.7,0.2,1.1,0.3,1.8,0.6l-3.6-4.7
	c-0.5-0.6-0.8-1-1.5-1.4c-0.8-0.4-1.3-0.6-2.2-0.6h-6.2c-0.8,0-1.2,0.1-2-0.2c-0.6-0.3-1-0.5-1.3-1l-1-1.6c0.5,0.2,0.8,0.3,1.3,0.3
	c0.4,0.1,0.7,0.1,1.1,0.1h5.6c1,0,1.6,0.1,2.5,0.3c0.7,0.2,1.1,0.3,1.8,0.6l-3.6-4.7c-0.5-0.6-0.8-1-1.5-1.4
	c-0.8-0.4-1.3-0.6-2.2-0.6h-6.3c-0.8,0-1.2,0.1-2-0.2c-0.6-0.3-1-0.5-1.3-1l-1-1.6c0.4,0.2,0.8,0.3,1.2,0.4c0.4,0.1,0.7,0.1,1.1,0.1
	h5.6c1,0,1.5,0.1,2.5,0.3c0.7,0.2,1.1,0.3,1.8,0.6l-3.6-4.7c-0.5-0.6-0.8-1-1.5-1.4c-0.8-0.4-1.3-0.6-2.2-0.6h-5.9
	c-0.8,0-1.3,0.1-2-0.2c-0.4-0.2-0.6-0.4-0.7-0.7c0,0-1-1.3-1.6-2.2c-1.3-1.9-3-5.1-3-5.1c2.5-0.2,3.9-0.4,6.2-1.2
	c3.7-1.3,6.3-2.2,8.5-5.4c1.7-2.5,2.2-4.5,2.2-7.5c0-3.1-0.6-5-2.3-7.5c-1.6-2.4-3.3-3.3-5.8-4.8c-2.5-1.4-4.2-1.7-7-2.6
	c-2.4-0.7-4.8-0.5-6-2.8c-0.8-1.5-1-2.7-0.4-4.3c0.5-1.3,1.2-2,2.5-2.5c-3.1-1.1-5.4-1.1-8.5,0.3c-2.1,0.9-3.5,1.7-4.6,3.7
	c-1.3,2.2-1.5,4-0.7,6.5c-3,1.5-4.6,2.5-7.2,4.5c-3.7,2.7-5.6,4.5-8.6,8c2.9-0.7,4.5-1,7.4-1.4c2.6-0.3,4.1-0.4,6.8-0.5
	c-0.1-1.5,0.1-2.5,0.8-3.8c1.3-2.4,3.3-3.6,6-3.7c-1.2,0.5-1.8,1-2.6,2c-1,1.4-1.7,2.7-1,4.3c0.6,1.4,1.6,2.2,3.1,2.3
	c0.8,0,1.4-0.1,2.1-0.6c-0.2-0.9-0.2-1.5,0-2.4c0.6-2.5,2.8-4,5.3-3.8c-0.8,0.4-1.2,0.7-1.8,1.4c-1.7,2-1.9,4.7-0.3,6.8
	c1.3,1.8,3.1,2.5,5.3,2.1c-0.3-0.5-0.6-1.5-0.6-2.2c0-1.9,2.4-4.2,4.3-4.2c2.1,0,4.2,1.7,4.3,3.8c0.2,4.2-2.8,5.5-5.8,5.9
	c-1.9,0.3-4.2-0.5-6.1-0.9c-2.8-0.5-4.2-1.1-7-1.6c-6-1.1-9.5-1.7-15.7-1.4c-4.8,0.2-8.5,0.9-13.3,1.8c-7.6,1.5-10,2.9-17.6,4.4
	c-8.5,1.7-14,3.7-22.7,3.8c-9.2,0.1-14.6-0.6-23.5-3.2c1,1.7,1.3,2.8,1.6,4.7c0.2,1.1,0.2,1.7,0.2,2.8c-0.9-2.2-1.6-3.3-2.9-5.3
	c-1.8-2.6-3.7-3.4-5.3-6.1c-0.4-0.6-0.7-1-0.9-1.7c-0.2-0.8-0.3-1.3-0.1-2.1c0.1-0.6,0.3-1,0.7-1.5c0,0.6,0.1,0.9,0.3,1.4
	c0.2,0.3,0.3,0.5,0.6,0.8l5.5,5.5c0.7-3.8,0.5-6.2-0.5-9.9c-0.8-2.8-1.5-4.3-3.1-6.7c0.9-2.5,1.2-4,1.3-6.7c0-2.1-0.2-3.5-0.6-5.3
	c-0.2,1.6-0.8,2.7-2,3.8c-0.5,0.5-0.9,0.7-1.5,1c-0.9,0.5-1.3,1-1.7,1.9c-0.3,0.7-0.3,1.2-0.3,2.1c0,1.1,0.2,1.7,0.8,2.7
	c-1.3-0.8-1.9-1.4-2.8-2.6c-0.6-0.9-1-1.4-1.3-2.4c-0.2-0.9-0.1-1.5,0.3-2.4c0.4-0.7,0.9-1.1,1.5-1.4c0.8-0.5,1.5-0.3,2.3-0.5
	c1-0.3,1.5-0.6,2.2-1.4c1-1,1.4-1.8,1.6-3.2c-1.9-0.5-3.1-0.6-5.1-0.4c-1.1,0.1-1.7,0.2-2.8,0.5c-1.4-1.6-2.6-2.3-4.6-3
	c-1.2-0.4-2-0.5-3.3-0.5c-1.6-1.5-2.8-2.1-4.9-2.7c-1.9-0.5-3.1-0.3-5.1-0.3s-3.2-0.2-5.1,0.3c-2.1,0.6-3.3,1.2-4.9,2.7
	c-1.3,0-2.1,0.1-3.3,0.5c-2,0.6-3.2,1.4-4.6,3c-1-0.3-1.7-0.4-2.8-0.5c-2-0.2-3.1-0.1-5.1,0.5c0.2,1.3,0.6,2.1,1.6,3.1
	c0.7,0.7,1.2,1.1,2.3,1.4c0.8,0.2,1.6,0.1,2.3,0.5c0.6,0.3,1.1,0.7,1.5,1.4c0.5,0.8,0.5,1.5,0.3,2.4c-0.2,1.1-0.6,1.6-1.3,2.4
	c-0.9,1.2-1.5,1.8-2.8,2.6c0.6-0.9,0.8-1.6,0.8-2.7c0-0.8,0-1.3-0.3-2.1c-0.4-0.9-0.8-1.4-1.7-1.9c-0.6-0.3-1-0.6-1.5-1
	c-1.3-1.2-1.9-2.2-2.1-4c-0.6,2-0.6,3.3-0.5,5.4c0.1,2.6,0.4,4.2,1.3,6.7c-1.6,2.4-2.4,3.9-3.1,6.7c-1.1,3.7-1.2,6.1-0.5,9.9
	l5.5-5.5c0.3-0.3,0.4-0.4,0.6-0.8c0.3-0.5,0.3-0.8,0.3-1.4c0.4,0.5,0.6,0.9,0.7,1.5c0.2,0.8,0.1,1.3-0.1,2.1
	c-0.2,0.7-0.5,1.1-0.9,1.7c-1.6,2.7-3.5,3.5-5.3,6.1c-1.3,2-2,3.1-2.9,5.3c-0.3-0.8-0.4-1.2-0.5-2.1c0-0.8,0.1-1.2,0.4-2
	c-3-1.7-4.6-2.8-7.3-4.8c-2.6-2-4.2-3-6.3-5.4c-2.5-2.9-5.5-4.6-5.1-8.4c0.2-2,1.4-2.8,2.1-4.6c0.9-2.3,2.1-3.5,2-6
	c-0.1-2.6-0.9-4.3-2.9-6.1c0.2-1.5,0-2.5-0.8-3.9c-1-1.9-2.3-2.9-4.4-3.3c0.7,1.2,0.9,2.1,0.8,3.5c-0.1,1.2-0.3,2-1,3
	c0.7,1,1,1.8,0.9,3c-0.1,1.4-0.5,2.4-1.6,3.3c0.3-1.9,0.1-3.2-0.8-5c-1-1.8-2-2.7-3.8-3.5c-0.5-2.5-2.5-4.1-5.1-4
	c-1.5,0-2.5,0.4-3.6,1.5c1.4,0.2,2.2,0.7,3,1.8c0.4,0.6,0.6,1.1,0.7,1.8c-0.5,0.3-0.8,0.5-1.2,1c-0.5,0.6-0.7,1-0.9,1.7
	c1.9,0.1,3.2,0.7,4.5,2.2s1.8,2.9,1.5,5c-0.4-1.2-0.8-1.8-1.6-2.8c-2.1-2.2-4.5-3-7.5-2.3c-1.2-1.3-2.4-1.7-4.1-1.6
	c-1.8,0.1-3,0.8-4,2.3c1.2,0.1,1.9,0.3,2.9,0.9c0.8,0.5,1.1,0.9,1.6,1.6c-0.5,0.6-0.7,0.9-1.1,1.6c-0.7,1.5-0.9,2.5-0.8,4.2
	c0.1,1.8,0.4,3,1.6,4.4c1.3,1.5,2.4,2.4,4.4,2.3c0.6,0,1-0.2,1.6-0.3c0.7-0.2,1-0.7,1.7-0.7c1.7,0.2,2.3,2.5,0,3.3
	c-0.6,0.2-1-0.2-1.6-0.3c-0.8-0.2-1.2-0.5-2-0.5c-1,0.1-1.6,0.6-2.3,1.4c-0.7,0.8-1,1.5-1,2.6c-0.8,0.2-1.3,0.2-2.1,0
	c-0.6-0.2-0.9-0.4-1.4-0.8c-0.4,1.5-0.2,2.7,0.7,3.9s1.9,1.8,3.5,1.9c1,2.1,2.1,3.1,4.1,4.1c1,0.5,1.6,0.8,2.8,0.8
	c1.4-0.1,2-0.8,3.2-1.4c0.8-0.4,1.2-0.9,2.1-1c1-0.1,1.6,0,2.4,0.6c1.1,0.8,1.6,1.7,1.6,3.1c0,1.8-1.3,2.7-2.9,3.4
	c-1.2,0.6-2.1,0.7-3.4,0.4l2.3,2.2c0.7,0.6,1.1,1,1.9,1.4c0.9,0.4,1.4,0.6,2.4,0.6h7.2c0.9,0,1.5,0,2.4,0.2c1,0.2,1.6,0.3,2.3,1
	l1.7,1.7c-0.5-0.2-0.8-0.3-1.4-0.3c-0.4-0.1-0.7-0.1-1.1-0.1h-7.3c-1,0-1.6-0.1-2.6-0.3c-0.8-0.2-1.2-0.3-2-0.6l3.6,3.4
	c0.7,0.6,1.1,1,1.9,1.4c0.9,0.4,1.4,0.6,2.4,0.6h7.2c0.9,0,1.5,0,2.4,0.2c1,0.3,1.6,0.3,2.3,1.1l1.7,1.7c-0.5-0.2-0.8-0.2-1.4-0.3
	c-0.5-0.1-0.7-0.1-1.2-0.1h-7.5c-1,0-1.6-0.1-2.6-0.3c-0.8-0.2-1.2-0.3-2-0.6l3.6,3.4c0.7,0.6,1.1,1,1.9,1.4
	c0.9,0.4,1.4,0.6,2.4,0.6h7.2c0.9,0,1.5,0,2.4,0.2c1,0.2,1.6,0.3,2.3,1l1.8,1.8c-0.5-0.2-0.8-0.3-1.4-0.3c-0.4-0.1-0.7-0.1-1.2-0.1
	H122c-1,0-1.6-0.1-2.7-0.3c-0.8-0.2-1.2-0.3-1.9-0.6l3.6,3.4c0.7,0.6,1.1,1,1.9,1.3c0.9,0.4,1.4,0.6,2.4,0.6h12.4
	c-1.3-1.1-2.2-2-3.1-3.7c-0.5-1.1-0.9-1.7-1.1-2.9c-0.2-1-0.2-1.6,0-2.5c-0.5-0.3-0.7-0.5-1.1-0.9c-0.8-0.8-1.3-1.3-1.8-2.3
	c-0.9-1.6-1-2.7-1-4.5c0-1,0-1.7,0.3-2.7c0.3-0.9,0.6-1.4,1.2-2.2c0.5-0.8,1-1.1,1.6-1.8c0.3-0.3,0.5-0.5,0.8-0.9
	c0.3-0.5,0.5-0.8,0.6-1.4l0.8,2.2c0.2,0.4,0.2,0.7,0.1,1.2c-0.1,0.5-0.4,0.7-0.7,1.2c-0.5,0.7-0.9,0.9-1.3,1.6
	c-0.5,0.9-0.8,1.4-0.9,2.4c-0.2,1.2-0.1,1.9,0.3,3c0.2,0.6,0.4,0.9,0.8,1.4c0.4,0.5,0.7,0.8,1.3,1.1l1-1.5l0.8-1.7
	c0.2-0.3,0.2-0.5,0.2-0.9c0.1-0.5,0-0.8-0.1-1.3l1.4,2c0.3,0.5,0.3,0.8,0.4,1.4c0,0.6,0,1-0.4,1.5l-1.4,2.4
	c-0.4,0.7-0.4,1.2-0.5,1.9c0,0.8,0,1.2,0.2,2c0.3,0.9,0.5,1.3,1,2.1s0.9,1.3,1.6,2c0.4-1.4,0.6-2.2,1.1-3.6c0.4-1,0.7-1.5,0.9-2.5
	c0.1-0.4,0.1-0.7,0.1-1.2c0-0.6,0-0.9-0.1-1.5l1.7,2.2c0.4,0.4,0.3,0.8,0.3,1.4c0,0.5-0.1,0.8-0.2,1.2l-1.3,3.8
	c-0.2,0.6-0.2,1,0,1.7c0.2,1,0.6,1.5,1.4,2.2c0.7,0.6,1.2,0.9,2.1,1.1l1-3.2c0.2-0.5,0.2-0.8,0.2-1.4c0-0.7,0-1.1-0.2-1.8l1.8,1.8
	c0.5,0.5,0.4,1,0.5,1.6c0,0.5,0.1,0.9-0.1,1.4l-1,3c-0.3,0.9-0.3,1.4-0.2,2.3c0.1,1.1,0.2,1.7,0.6,2.7c-0.9-0.3-1.3-0.6-2-1.2
	c-0.5-0.5-0.8-0.9-1.1-1.6c-0.3-0.5-0.3-0.8-0.5-1.3c-0.7-0.3-1.1-0.5-1.7-1c-1.1-0.7-1.7-1.2-2.6-2.3h-11.3
	c-5.8,3.2-4.8,3.2-8.1,4.9c-5.2,2.8-8,6.2-13.8,5.9c-2.3-0.1-3.4-0.9-5.6-1.4c-1.4-0.3-2.2-0.7-3.7-0.7c-1.9,0-3.2,0.2-4.8,1.2
	c-1.5,0.9-2.2,1.6-3,3.1c1.7-0.7,2.9-0.9,4.7-0.5c1.6,0.3,2.5,0.7,3.8,1.7c-1.3-0.3-2-0.4-3.3-0.3c-2.6,0-4.3,0.3-6.4,1.8
	c-2.1,1.4-3.3,2.7-3.9,5.2c-0.3,1.4-0.3,2.3,0,3.7c-0.7,0.5-1,0.8-1.5,1.5c-0.8,1-1.5,1.7-1.5,3s0.4,2.3,1.4,3.1
	c0.5-1.5,1.2-2.3,2.5-3c0.9-0.5,1.5-0.7,2.5-0.7c0.4,0.3,0.6,0.5,1,0.7c0.5,0.3,0.9,0.4,1.5,0.6l1.3-1.5c-0.2-2.4,0.3-4.1,1.8-6
	c1.8-2.2,3.9-3.2,6.8-3c-2.7,0.7-4.3,2.1-5.3,4.7c-0.6,1.6-0.7,2.6-0.5,4.3c-1.2,0.6-1.8,1.2-2.4,2.5c-0.9,1.9-0.8,3.6,0.4,5.3
	c0.8-1.3,1.4-2,2.7-3c1.4-1.1,2.4-1.5,4.1-1.8c0.9,0.3,1.4,0.4,2.3,0.5c1.4,0.2,2.2,0.1,3.6-0.1c-0.6-1-0.8-1.7-0.8-2.9
	c-0.1-2.8,1.1-5.2,3.7-6.2c1.1-0.4,1.8-0.5,3-0.3c-1.2,0.3-1.9,0.7-2.8,1.6c-1.3,1.3-2.2,2.6-1.8,4.5c0.2,1.4,0.8,2.3,2.1,3.1
	c0.8,0.5,1.4,0.7,2.3,0.7c0,0.7-0.1,1.1-0.2,1.8c-0.2,0.9-0.4,1.3-0.8,2.1c1.8-0.2,2.9-0.7,4.4-1.8c1-0.8,1.5-1.4,2.1-2.6
	c1-0.3,1.5-0.5,2.3-1.2c1.6-1.3,2.6-2.8,2.3-4.9c-0.2-1.3-0.6-2.1-1.6-2.9c-0.2-1.8,1.3-3.4,3.1-3.5c1.9,0,3.4,1.9,3.1,3.8
	c-0.1,0.6-0.3,1-0.7,1.5c0.8-0.1,1.2-0.2,1.9-0.5c0.9-0.4,1.3-0.9,1.9-1.6l3.3-4.8c0.3-0.4,0.4-0.7,0.8-1.1c1.2-1.4,2.2-2.5,4-2.5
	h1.7c-0.5,0.3-0.7,0.6-1.1,1c-0.3,0.3-0.5,0.5-0.8,0.9l-3.3,5.3c-0.6,0.9-1,1.4-1.8,2.1c-0.6,0.5-0.9,0.8-1.6,1.3l4.4-0.1
	c0.9,0,1.4-0.1,2.2-0.5c0.9-0.4,1.3-0.8,1.9-1.6l4.1-6.1c0.5-0.7,0.7-1.1,1.4-1.5c0.6-0.4,1-0.8,1.8-0.8h2.4
	c-0.5,0.3-0.7,0.5-1.1,0.9c-0.3,0.3-0.5,0.5-0.8,0.9l-3.4,5.4c-0.6,0.9-1,1.4-1.8,2.1c-0.6,0.5-0.9,0.8-1.6,1.3l4.3-0.1
	c0.9,0,1.4-0.1,2.2-0.5c0.9-0.4,1.4-0.8,1.9-1.6l5.9-9.1c-1-0.9-1.5-1.6-1.9-2.9c-0.4-1-0.4-1.7-0.3-2.8c0-0.9,0.2-1.4,0.4-2.3
	c0.2-0.8,0.5-1.2,0.7-2.1c0.1-0.7,0.2-1.1,0.2-1.7c0-0.5,0-0.8-0.1-1.4l1.5,1.2c0.4,0.3,0.5,0.6,0.7,1c0.2,0.5,0.3,0.9,0.2,1.5
	c0,0.6-0.2,0.9-0.3,1.5c-0.2,0.9-0.5,1.4-0.6,2.4s-0.1,1.6,0.2,2.6c0.4,1.1,0.8,1.5,1.6,2.4c1.1,1.1,1.9,1.7,3.3,2.2v-10.6h2.3v10.6
	c0,0.6,0.2,0.9,0.5,1.4c0.4,0.5,0.7,0.7,1.3,0.9l4,2c1.1,0.5,1.9,0.5,3.1,0.5c1-0.1,1.5-0.2,2.4-0.6l2.9-1.1
	c-0.7,0.1-1.2,0.1-1.8-0.1c-0.8-0.2-1.1-0.6-1.8-0.9l-7.3-3.9c0.9-0.7,1.3-1.5,1.6-2.6c0.3-1,0.3-1.6,0.2-2.6s-0.4-1.5-0.6-2.4
	c-0.1-0.6-0.3-0.9-0.3-1.5s0-0.9,0.2-1.5c0.2-0.5,0.3-0.7,0.7-1l1.5-1.2c-0.1,0.5-0.1,0.8-0.1,1.4c0,0.7,0.1,1.1,0.2,1.7
	c0.2,0.8,0.5,1.2,0.7,2.1c0.2,0.9,0.3,1.4,0.3,2.3c0,1.8-0.3,2.8-1,4.4l7.5,4.2c0.8,0.4,1.2,0.6,2.1,0.7c0.8,0.1,1.3,0.1,2.1-0.3
	l3.8-1.6c-0.7,0.1-1.1,0.1-1.8-0.1c-0.8-0.2-1.1-0.6-1.8-0.9l-7.1-3.9c0,0-0.4,0-0.9-0.2c0.5-1.4,0.5-2.4,0.7-3.9
	c0.1-1.1,0.3-1.8,0-2.9l-0.8-3.5c-0.1-0.5-0.2-0.8-0.1-1.4c0-0.7,0-1.2,0.5-1.6l1.8-1.8c-0.2,0.7-0.2,1.1-0.2,1.8
	c0,0.5,0.1,0.8,0.2,1.4c0.2,1.1,0.5,1.6,0.8,2.7c0.2,1,0.4,1.6,0.5,2.6c0.1,0.9,0.1,1.4,0,2.3c-0.1,1.1-0.6,2.6-0.6,2.6l8.5,4.6
	c0.8,0.4,1.2,0.6,2.1,0.7c0.8,0.1,1.3,0.1,2.1-0.3l3.8-1.6c-0.7,0.1-1.1,0.1-1.8-0.1c-0.8-0.2-1.1-0.5-1.8-0.9l-7.1-3.9
	c-0.4-0.2-0.7-0.3-1.2-0.5s-0.8-0.3-1.3-0.5c0.3-0.5,0.4-0.8,0.6-1.4c0.3-0.8,0.4-1.2,0.6-2.1c0.3-1.9,0.1-3.1-0.2-4.9
	c-0.4-1.9-1.3-2.9-1.6-4.8c-0.2-0.6-0.3-0.9-0.2-1.5c0-0.6,0-1,0.3-1.4l1.7-2.2c-0.1,0.6-0.1,0.9-0.1,1.5c0,0.5,0,0.7,0.1,1.2
	c0.2,0.9,0.6,1.3,0.9,2.2c0.5,1.5,0.8,2.3,1.2,3.8c0.7-0.7,1.1-1.2,1.6-2s0.8-1.2,1-2.1c0.2-0.7,0.3-1.2,0.2-2
	c0-0.8-0.1-1.3-0.5-1.9l-1.4-2.4c-0.3-0.4-0.3-0.7-0.3-1.2c-0.1-0.7,0-1.1,0.3-1.7l1.4-2c-0.1,0.5-0.2,0.8-0.1,1.3
	c0,0.4,0.1,0.6,0.2,0.9l0.8,1.7l1,1.5c0.6-0.3,0.9-0.6,1.3-1.1c0.4-0.5,0.6-0.8,0.8-1.4c0.4-1.1,0.5-1.8,0.3-3
	c-0.2-1-0.4-1.5-0.9-2.4c-0.4-0.7-0.8-1-1.3-1.6c-0.3-0.4-0.6-0.6-0.7-1.2c-0.1-0.5,0-0.7,0.1-1.2l0.8-2.2c0.1,0.6,0.3,0.9,0.6,1.4
	c0.3,0.4,0.5,0.5,0.8,0.9c0.6,0.7,1.1,1.1,1.6,1.8c0.5,0.8,0.9,1.3,1.2,2.2c0.3,1,0.3,1.6,0.3,2.7c0,1.8-0.2,2.9-1,4.5
	c-0.5,1-1,1.5-1.8,2.3c-0.4,0.4-0.7,0.6-1.2,0.9c0.2,1,0.2,1.6,0,2.5c-0.2,1.2-0.5,1.8-1.1,2.9c-1,1.9-2.6,3.1-3.6,4.1
	c0,0,0.1,1.5,0,2.5c-0.1,1.3-0.3,2-0.8,3.2l9.7,5.2c0.8,0.4,1.2,0.6,2.1,0.7c0.8,0.1,1.3,0.1,2.1-0.3l3.8-1.6
	c-0.7,0.1-1.2,0.1-1.8-0.1c-0.8-0.2-1.1-0.6-1.8-0.9l-7.2-3.9c-0.4-0.2-0.7-0.3-1.1-0.5c-0.5-0.2-0.8-0.3-1.3-0.5
	c0.9-0.3,1.5-0.4,2.4-0.5c1.2-0.1,1.9,0.1,3,0.4c0.7,0.2,1.1,0.4,1.7,0.7l5.6,3c0.8,0.4,1.2,0.6,2.1,0.7c0.8,0.1,1.4,0.1,2.1-0.3
	l4.6-2.1c-0.8,0.1-1.2,0.2-1.8-0.1c-0.7-0.4-1-0.9-1.3-1.6c-0.7-1.8,0.7-3.6,2.3-4.4c6.5-3.1,9.9-4.4,16.1-7.4
	c9.2-4.4,13.9-8.1,23.4-11.8c5.1-2,7.9-4.5,13.4-4.5c3.4,0,5.7-0.1,8.6,1.7c1.4,0.9,2.2,1.5,3.2,2.9c0.9,1.4,1.1,2.5,1.4,4.1
	c0.3,1.7,0,2.7-0.1,4.4c-0.1,4.1,0,9,3.4,12.9c1.7,2,3.1,2.8,5.4,4.1c2,1.1,3.1,1.6,5,2.7c0.9,0.5,2.1,2,2.3,2.7
	c0.3,0.8,0.2,1.4,0,2.2c1.6,0,2.5-0.1,4-0.7c2.2-0.9,3.5-1.8,4.8-3.8h6.2c0.6,1,0.8,1.8,0.8,3c0,1.4,0,2.4-0.9,3.4c-1,1-1.8,1-3,1.1
	c-2.5,0.1-3.6-0.6-6-0.4c-1.9,0.2-3.1,0.2-4.8,1.1c-2.2,1.2-3.2,2.5-4,4.8c-0.5,1.5-0.7,2.5-0.5,4.1c-0.9,0.6-1.3,1-1.8,1.9
	c-1,1.8-1,3.5,0,5.3c1-1.2,1.6-1.7,2.9-2.5c1-0.7,1.9-1,3.3-1.2c0.3-3.1,1.6-5.2,4.3-6.8c1.4-0.8,2.3-1.1,3.9-1.2
	c-1.8,0.9-2.7,1.6-3.9,3.2c-1.8,2.3-2.7,4.1-2.5,7c-0.6,0.9-0.9,1.6-0.8,2.6c0.1,1.1,0.4,1.9,1.2,2.6c1.9-2.1,2.5-2.7,4.6-3.7
	c0.8-0.4,1.4-0.6,2.3-0.8c1,0.3,1.7,0.4,2.8,0.3c0.7-0.1,1.5-0.4,1.8-0.4c-0.7-2.5-1.3-4.8,0.4-6.8c1.7-2.1,3.3-2.8,5.9-2.6
	c-1.6,0.5-2.7,1-3.6,2.3s-1.2,2.3-1.1,3.9c0.2,1.7,0.8,2.9,2.3,3.8c-0.1,0.9,0,1.4,0.4,2.2c0.3,0.8,0.7,1.3,1.4,1.9
	c0.2-1.2,0.6-1.9,1.5-2.8c0.6-0.6,1-0.9,1.8-1.3c1.3-0.6,2.2-0.2,3.6-0.5c2.3-0.4,4-0.2,5.7-1.7c1.3-1.2,2-2.1,2.2-3.8
	c0.3-2.2-0.3-3.9-2-5.4c0.9-1.5,1.2-2.6,1.2-4.3c0.1-1.7-0.1-2.8-0.9-4.2h3.5c0.7,0,0.9,0.1,1.9,0.3
	C327.5,376.5,328.3,377.3,328.8,378.2z M176.7,340.8c-0.4-0.8-0.5-1.3-0.5-2.2c0-0.8,0.2-1.3,0.4-2.1c0.3-0.8,0.5-1.3,1-2.1
	c0,0.6,0,0.9,0.1,1.5c0.2,0.8,0.5,1.3,0.9,2s0.8,1,1.1,1.8c0.5,0.9,0.9,1.5,0.9,2.6s-0.4,1.7-0.8,2.7c-0.3,0.7-0.6,1.1-1,1.7
	c0.2-0.8,0.2-1.3,0-2.1c-0.2-0.9-0.5-1.3-1-2.1C177.4,341.8,177,341.5,176.7,340.8z M143.8,348.1c0-0.6,0-1,0.2-1.5l0.7-1.5
	c0.2-0.4,0.2-0.7,0.3-1.2c0.1-0.4,0.1-0.6,0.1-1l1.4,1.7c0.2,0.3,0.3,0.5,0.3,0.9c0,0.5-0.2,0.7-0.3,1.2c-0.2,0.6-0.5,0.9-0.5,1.5
	c0,0.5,0,0.9,0.3,1.3l1.5,1.8c0.2,0.3,0.6,0.3,0.9,0.2c0.5-0.1,0.6-0.6,0.8-1.1s0.2-0.9,0-1.4l1.3,1.5c0.3,0.4,0.3,0.7,0.3,1.1
	c0.1,0.4,0.1,0.6,0,0.9l-0.5,1.6c-0.1,0.4-0.1,0.6,0,1s0.2,0.7,0.5,1c0.3,0.4,0.6,0.6,1,0.8c0.3,0.1,0.5,0.2,0.8,0.1
	c0.3-0.1,0.4-0.4,0.5-0.8l0.4-1.8c0-0.3-0.1-0.4-0.2-0.7c-0.1-0.4-0.3-0.5-0.5-0.8l2,1.2c0.4,0.2,0.5,0.6,0.6,1.1s0.1,0.8,0,1.3
	l-0.2,2c-0.1,0.5,0.1,0.8,0.3,1.3c0.3,0.5,0.7,0.6,1.3,0.9c0.7,0.3,1.1,0.5,1.8,0.6v-5.7h2.3v5.8c0.7-0.1,1.1-0.3,1.8-0.6
	c0.5-0.3,0.9-0.4,1.3-0.9c0.3-0.4,0.4-0.8,0.3-1.3l-0.2-2c-0.1-0.5-0.1-0.8,0-1.3s0.2-0.9,0.6-1.1l2-1.2c-0.2,0.3-0.3,0.5-0.5,0.8
	c-0.1,0.3-0.3,0.4-0.2,0.7l0.4,1.8c0.1,0.4,0.1,0.7,0.5,0.8c0.3,0.1,0.5,0,0.8-0.1c0.5-0.2,0.7-0.4,1-0.8c0.3-0.4,0.4-0.6,0.5-1
	s0.1-0.7,0-1l-0.5-1.6c-0.1-0.3,0-0.6,0-0.9c0.1-0.5,0.1-0.8,0.3-1.1l1.3-1.5c-0.2,0.5-0.2,0.9,0,1.4s0.3,0.9,0.8,1.1
	c0.4,0.1,0.7,0.1,0.9-0.2l1.5-1.8c0.3-0.4,0.3-0.8,0.3-1.3c0-0.6-0.3-0.9-0.5-1.5c-0.1-0.5-0.4-0.7-0.4-1.2c0-0.4,0.1-0.6,0.4-0.9
	l1.4-1.7c0,0.4,0,0.6,0.1,1c0.1,0.5,0.2,0.7,0.4,1.2l0.7,1.5c0.2,0.6,0.2,0.9,0.2,1.5s0,0.9-0.1,1.5c-0.2,0.7-0.6,1-1,1.6
	c-0.6,0.8-0.9,1.3-1.6,1.9c-0.8,0.7-1.2,1.1-2.1,1.6c0.1,0.6,0.1,0.9-0.1,1.5c-0.2,0.8-0.5,1.2-1,1.7c-0.5,0.6-1,0.8-1.6,1.2
	c-0.6,0.3-1,0.4-1.6,0.6c-0.1,0.6-0.2,0.9-0.6,1.4c-0.3,0.5-0.6,0.7-1,1c-0.8,0.7-1.3,1-2.3,1.4c-1.2,0.5-1.9,0.7-3.1,0.7
	c-1.3,0-2-0.2-3.1-0.7c-1-0.4-1.5-0.7-2.3-1.4c-0.4-0.4-0.7-0.6-1-1c-0.3-0.5-0.5-0.8-0.6-1.4c-0.7-0.2-1-0.3-1.6-0.6
	c-0.7-0.4-1.1-0.6-1.7-1.2c-0.5-0.6-0.8-1-1-1.7c-0.2-0.6-0.2-0.9-0.1-1.5c-0.9-0.5-1.4-0.9-2.1-1.6s-1-1.1-1.6-1.9
	c-0.4-0.6-0.8-0.9-1-1.6C143.8,349,143.8,348.8,143.8,348.1z M139.4,342.3c0-1.1,0.4-1.6,0.9-2.6c0.4-0.7,0.8-1,1.1-1.8
	c0.4-0.8,0.7-1.2,0.9-2c0.1-0.5,0.1-0.9,0.1-1.5c0.5,0.8,0.8,1.2,1.1,2.1c0.3,0.8,0.4,1.3,0.4,2.1c0,0.9-0.2,1.4-0.5,2.2
	c-0.3,0.7-0.8,1-1.2,1.7c-0.4,0.8-0.8,1.2-0.9,2.1c-0.2,0.8-0.2,1.3,0,2.1c-0.5-0.6-0.7-1-1.1-1.7
	C139.8,344,139.4,343.5,139.4,342.3z M140.3,327.8c0.4-0.5,0.5-0.9,0.5-1.6c0.1-0.5,0.1-0.8-0.1-1.3c0.6,0.4,0.9,0.8,1.2,1.4
	c0.5,0.9,0.8,1.6,0.7,2.7c-0.1,0.9-0.4,1.4-0.9,2.1l-1.9,2.7c-0.2,0.4-0.4,0.5-0.6,0.9c-0.4,0.6-0.5,1-0.8,1.7
	c-0.2,0.6-0.4,0.9-0.6,1.5c-0.1-0.8-0.2-1.3-0.3-2.1c-0.2-0.8-0.4-1.2-0.5-2c0-1.2,0.1-1.9,0.8-2.9L140.3,327.8z M148.3,311.1h8.1
	c0.4,0,0.7,0.2,1,0.6c0.5,0.5,0.3,1.2,0.3,1.8l-0.1,0.6c-0.4-0.4-0.7-0.7-1.3-0.7h-2.5c0.6,0.6,1.1,1.1,1.1,2c0,1.2-1,2.2-2.2,2.2
	s-2.2-1-2.2-2.2c0-0.6,0.2-1.2,0.7-1.6l0.4-0.4h-3c-1,0-1.5-0.5-2.2-1.2s-1-1.4-1-2.2C146.1,310.8,147.2,311.1,148.3,311.1z
	 M153.6,300.2l2.8,3.7c0.2,0.2,0.2,0.5,0.5,0.7c0.3,0.3,0.5,0.4,0.9,0.5h-2.3c-0.7,0-1.1-0.1-1.7-0.5c-0.6-0.3-0.8-0.7-1.3-1.2
	l-2.3-3c-0.2-0.3-0.3-0.5-0.6-0.7c-0.3-0.3-0.5-0.4-0.8-0.6h2.7c0.5,0,0.7,0.1,1.1,0.3C153.1,299.6,153.3,299.8,153.6,300.2z
	 M164,304.1c0.2,0.3,0.3,0.5,0.6,0.7c0.4,0.4,0.7,0.6,1.2,0.8h-3.1c-0.7,0-1.2-0.1-1.8-0.6c-0.5-0.3-0.6-0.7-0.9-1.1l-2.7-4.3
	c-0.3-0.4-0.4-0.7-0.8-1c-0.5-0.5-0.9-0.7-1.6-0.9h2.9c0.7,0,1.1,0.2,1.7,0.6c0.5,0.3,0.8,0.6,1.1,1L164,304.1z M172.1,305h-2.3
	c-0.7,0-1.1-0.1-1.7-0.5c-0.6-0.3-0.8-0.7-1.3-1.2l-2.3-3c-0.2-0.3-0.3-0.5-0.6-0.7c-0.3-0.3-0.5-0.4-0.8-0.6h2.7
	c0.5,0,0.8,0.1,1.2,0.3s0.6,0.4,0.9,0.8l2.8,3.7c0.2,0.2,0.2,0.5,0.5,0.7C171.5,304.8,171.7,305,172.1,305z M174.7,310
	c0,0.8-0.3,1.5-1,2.2c-0.7,0.8-1.3,1.2-2.2,1.2h-3c0.6,0.6,1.1,1.1,1.1,2c0,1.2-1,2.2-2.2,2.2s-2.2-1-2.2-2.2c0-0.6,0.3-1.2,0.7-1.6
	l0.4-0.4h-2.5c-0.6,0-0.9,0.3-1.4,0.8v-0.5c0-0.4,0-0.7,0-1c0.1-0.7,0.7-1.4,1.4-1.4h8.1C172.8,311.1,174,310.8,174.7,310z
	 M181,315.2c0.3,5.1-2.8,10.3-8.3,11c-0.3,3.1-1.8,4.9-4.6,5.9c0.2,2.7,0.1,5.2-0.3,7.8v0.1c0.6,1.4,1,3.2,1,4.8
	c0,3-2.5,4.9-5.6,4.8c-0.9-0.1-1.9-0.3-3.1-0.3c-3.2,0-4.4,1.1-7.3-1.2c-1.1-0.9-1.4-1.9-1.4-3.3c0-1.6,0.3-3.4,0.9-4.9
	c-0.5-2.7-0.5-5.1-0.3-7.8c-2.8-1-4.3-2.9-4.7-5.9c-5.5-0.7-8.6-5.9-8.3-11c0.4-1.6,1-3.1,2.4-4.1v4.7c0,4.2,2.4,8.1,7.1,8h0.8
	c-0.6,7.7,10.2,8.4,9.5,1.9c-1.4-0.6-2.4-1.6-2.5-3.2h7.4c-0.2,1.6-1.2,2.6-2.6,3.2c-0.7,6.5,10,5.7,9.5-1.9h0.8
	c4.7,0.1,7.1-3.8,7.1-8v-4.7C180,312.1,180.6,313.5,181,315.2z M183,334c0,0.8-0.3,1.2-0.5,2s-0.2,1.3-0.3,2.1
	c-0.2-0.6-0.3-0.9-0.6-1.5c-0.3-0.7-0.4-1.1-0.8-1.7c-0.2-0.4-0.4-0.6-0.6-0.9l-1.9-2.7c-0.5-0.7-0.8-1.2-0.9-2.1
	c-0.1-1.1,0.2-1.7,0.7-2.7c0.4-0.6,0.7-0.9,1.2-1.4c-0.1,0.5-0.1,0.8-0.1,1.3c0.1,0.6,0.2,1.1,0.5,1.6l2.4,3.3
	C182.9,332,183.1,332.8,183,334z M300.9,364.1h-8.7c-3.4,0-4.9-1-7.2-3.6c-0.8-0.9-1.2-1.5-1.7-2.4c1.8,1.6,4.2,2.4,6.6,2.4
	c2,0,4.1-0.1,6.1,0.1c1.5,0.1,3,0.8,3.9,1.9C300.4,363,300.7,363.5,300.9,364.1z M166.2,345.2c1-2.8-4.6-2.8-6.2-2.8
	c-1,0-1.9,0.1-2.9,0.2c-1.3,0.2-3.9,0.6-3.2,2.6c0.5,1.5,2,1.6,3.4,1.9c1,0.2,1.8,0,2.8,0s1.8,0.3,2.8,0.1
	C164.2,347,165.7,346.8,166.2,345.2z M165.1,340.5c0.4-2.2,0.6-4.4,0.6-6.6V333l-2.3,2.7c-0.2-0.3-0.3-0.7-0.5-1.2s-0.6-1.7-1.2-2
	c-0.7,0.4-0.8,0.3-1.6,0.3c-0.7,0-0.9,0-1.5-0.3h-0.1c-0.5,0.1-1.5,2.6-1.7,3l-2.3-2.7c0,2.5,0.1,5,0.6,7.5c1.7-0.4,3.4-0.5,5-0.4
	C161.8,340,163.4,340,165.1,340.5z M276,307c0,0-0.2-0.6-0.2-1s0.1-1.1,0.1-1.1c-6.5,1.6-10.1,2.5-16.5,4.4
	c-6.7,1.9-10.4,3.3-17.2,5.3c-6.5,1.9-10.2,3.4-16.8,4.8c-3.4,0.7-5.6,1.3-8.9,1.3c-3.6,0-5.2,0-7.1-1c-2.2-1.1-3.9-2.2-4.3-4.6
	c-0.2-1.1-0.3-2,0.3-2.9c0.6-0.8,1.3-1.2,2.3-1.3c1.3,0,2.4,0.6,2.8,1.8c0.4,1.1,0.1,2.1-0.8,2.9c1.2,0.1,1.9,0.1,3.1-0.1
	c1.8-0.2,3.1-0.1,4.5-1.3c1.1-1,1.6-2,1.7-3.4c0-1.8-0.7-2.9-2.2-4c-0.9-0.6-1.6-0.9-2.8-0.9c1.7-0.6,2.9-0.5,4.5,0.3
	c0.8,0.4,1.3,0.8,1.8,1.5c0.9,1.3,1.2,2.5,0.7,4.1c3.3,0.4,5.3,0.3,8.4-0.7c3.5-1.1,5.4-2.5,8.1-5.1c2.8-2.6,4.2-4.5,5.9-8
	c-2.7,1.4-4.4,2-7.4,2.7c-7.6,1.8-13.4-1.4-19.9-1.8c-3.8-0.3-8.3,0.6-11.7,1.9c-4.1,1.6-6.8,3.4-8.5,7.4c-1.6,3.6-1.8,6.4-0.3,10.1
	c1.3,3.4,3.4,5.2,6.3,6.8c4.2,2.5,6.8,2.6,11.7,3c6.9,0.5,10.5-0.6,17.1-2c6.1-1.3,9.3-2.8,15.3-4.4c6.5-1.8,10.2-2.8,16.8-4.4
	c2.3-2.6,3.8-3.9,6.5-6C271.6,309.2,273.2,308.3,276,307z M199.4,267.1c1.5-0.9,2.6-1.1,4.3-1c-1.4,0.6-2.2,1.1-3.3,2.1
	c-1.6,1.5-2.3,2.6-3,4.6c-0.7,0.3-1.1,0.5-1.6,1c-0.9,0.8-1.2,1.5-1.5,2.6c-0.4,1.6-0.3,2.8,0.6,4.3c1.2-1.3,2-2,3.6-2.9
	c1.2-0.7,2-1,3.3-1.4c0.3-1.8,0.9-2.9,2.1-4.2c1.7-1.9,3.2-2.8,5.8-3.1c-1.5,0.6-2.3,1.2-3.3,2.4c-1.8,2-2.2,3.8-2.3,6.4
	c-0.1,1.6,0.1,2.5,0.5,4c0.8-1.2,1.4-1.8,2.6-2.6c0.9-0.6,1.5-0.9,2.5-1c0.9-0.1,1.4,0.1,2.3,0.1c1.2,0.1,1.8,0.1,3,0.1
	c1.9,0.2,3.2-0.3,4.7-1.6c1.4-1.3,2-2.6,2-4.5c-0.1-0.6-0.2-0.9-0.4-1.5c-0.2-0.5-0.3-0.8-0.7-1.4c0.9,0.2,1.5,0.5,2.2,1.2
	c0.7,0.8,0.9,1.6,0.9,2.7c0,0.9-0.2,1.6-0.7,2.3c2.2,0.4,3.7,0.2,5.7-0.7c1.8-0.9,2.8-1.7,3.8-3.4c0.6-1,0.8-1.7,1-2.9
	c1.6-0.9,2.4-1.5,3.8-2.7c1-0.9,1.6-1.5,2.5-2.6l1.1,3.8c0.2,0.8,0.2,1.3,0.2,2.2c0,0.7-0.1,1.1-0.3,1.8l3.3-3.8
	c0.6-0.7,0.9-1.2,1.1-2.1c0.2-0.7,0.2-1.1,0.1-1.8l-1.6-6.3c-0.2-0.8-0.1-1.3,0.1-2.2c0.2-0.7,0.4-1.1,0.9-1.7l1.5-1.6
	c-0.2,0.5-0.2,0.7-0.2,1.1c-0.1,0.5-0.2,0.9,0,1.4l1.5,5.4c0.2,0.7,0.2,1.1,0.2,1.9s-0.1,1.3-0.3,2.1l3.3-3.8
	c0.6-0.7,0.9-1.2,1.1-2.2c0.2-0.7,0.2-1.1,0.1-1.8l-1.5-6.3c-0.2-0.8-0.2-1.3,0.1-2.2c0.2-0.7,0.4-1.1,0.9-1.7l1.5-1.7
	c-0.2,0.5-0.2,0.7-0.2,1.1c-0.1,0.6-0.2,0.9,0,1.4l1.5,5.6c0.2,0.8,0.2,1.2,0.2,2s-0.1,1.2-0.3,1.9l2.9-3.3c0.5-0.6,0.7-1.1,0.9-1.9
	c0.2-0.8,0.1-1.2,0.1-2l-0.2-2c0,0-0.2-1.6,0.1-2.5c0.4-1.4,1.2-1.9,2.1-3c1.5-1.8,2.8-2.5,4.6-4c2.4-2,3.8-3.1,6.3-5.1
	c0.3-1.8,0.1-3-0.7-4.7c-0.6-1.2-1.1-1.8-2.2-2.6c-0.7-0.6-1.2-0.8-2-1.1s-1.2-0.5-2.1-0.7c-2.3-0.5-4-0.7-6.5-0.2
	c-1.1,0.2-1.9,0.4-2.8,0.7c0,0-1.4,0.6-2.2,1.1c0.3,0.9,0.3,1.5,0.2,2.4c-0.2,1-0.5,1.6-1.3,2.4c-1.1,1.1-2.1,1.1-3.6,1.5
	c-2.4,0.8-4,0.4-6.5,0.9s-4.1,0.4-6.4,1.5c-4.5,2-6.4,4.7-8.9,9c-2,3.4-2.3,5.9-4.8,8.9c-0.6,0.7-0.9,1.1-1.5,1.7
	c1.5-0.3,2.4-0.5,3.9-0.6c2.4-0.3,3.7-0.3,6.1-0.2c-1.1,0.4-1.7,0.6-2.8,1.2c-0.7,0.4-1,0.6-1.7,1c-0.7,2.3-1.6,3.5-3.5,5
	c-2,1.5-3.5,1.9-6,1.9c-2.2,0.1-3.4-0.8-5.5-1.3c-2.5-0.6-3.8-1.6-6.3-1.5c-1.7,0.1-2.7,0.2-4.2,0.9c-2,0.9-3.1,1.8-4.4,3.5
	c-1.3,1.8-1.9,3.1-2.2,5.3c-1.3,0.4-2,0.9-2.9,1.9s-1.4,1.8-1.5,3.1c-0.1,1.2,0.1,1.9,0.7,2.9c1-1,1.7-1.6,3-2.3
	c1.2-0.8,2-1.1,3.4-1.5c0.5-1.4,0.9-2.2,1.8-3.3C197.9,268.2,198.4,267.8,199.4,267.1z M241.2,244.8c0.9-2.5,2.3-3.7,4.5-5.2
	c1.8-1.2,3-1.5,5-2.1c1.5-0.4,2.5-0.4,4-0.8c1.8-0.5,2.8-1,4.4-1.8c-1.3,1.5-2.2,2.3-3.8,3.4c-2.5,1.8-4.8,1.9-7.2,3.6
	c-3.7,2.6-5.4,4.9-7.2,9.1C240.3,248.5,240.4,247,241.2,244.8z M328.8,260.8c0.4-1.3,0.4-2.1,0.2-3.5c-0.2-1.2-0.4-2-1.1-3
	c-0.8-1.1-2-1.7-2.9-2.1c-0.8-0.4-3.2-0.6-4.1-0.6h-1.2c-0.7,0-1.1,0-1.8-0.1c-1-0.2-1.6-0.3-2.4-1l-1.9-1.9
	c0.5,0.2,0.8,0.2,1.3,0.3c0.4,0.1,0.7,0.1,1.1,0.1h5.5c1,0,1.5,0.1,2.5,0.3c0.7,0.2,1.1,0.3,1.8,0.6l-3.6-4.7
	c-0.5-0.6-0.8-1-1.5-1.4c-0.8-0.4-1.3-0.6-2.2-0.6h-6.2c-0.8,0-1.2,0.1-2-0.2c-0.6-0.3-1-0.5-1.3-1l-1-1.6c0.5,0.2,0.8,0.2,1.3,0.3
	c0.4,0.1,0.7,0.1,1.1,0.1h5.6c1,0,1.6,0.1,2.5,0.3c0.7,0.2,1.1,0.3,1.8,0.6l-3.6-4.7c-0.5-0.6-0.8-1-1.5-1.3
	c-0.8-0.4-1.3-0.6-2.2-0.6h-6.3c-0.8,0-1.2,0.1-2-0.2c-0.6-0.3-1-0.5-1.3-1l-1-1.6c0.4,0.2,0.8,0.2,1.2,0.3s0.7,0.1,1.1,0.1h5.6
	c1,0,1.5,0.1,2.5,0.3c0.7,0.2,1.1,0.3,1.8,0.6l-3.6-4.7c-0.5-0.6-0.8-1-1.5-1.4c-0.8-0.4-1.3-0.6-2.2-0.6h-5.9c-0.8,0-1.3,0.1-2-0.2
	c-0.4-0.2-0.6-0.4-0.7-0.7c0,0-1-1.3-1.6-2.2c-1.3-1.9-3-5.1-3-5.1c2.5-0.1,3.9-0.4,6.2-1.2c3.7-1.3,6.3-2.2,8.5-5.4
	c1.7-2.5,2.2-4.5,2.2-7.5c0-3.1-0.6-5-2.3-7.5c-1.6-2.4-3.3-3.3-5.8-4.8s-4.2-1.7-7-2.6c-2.4-0.7-4.8-0.5-6-2.8
	c-0.8-1.5-1-2.8-0.4-4.3c0.5-1.3,1.2-2,2.5-2.5c-3.1-1.1-5.4-1.1-8.5,0.3c-2.1,0.9-3.5,1.7-4.6,3.7c-1.3,2.2-1.5,4-0.7,6.4
	c-3,1.5-4.6,2.5-7.2,4.5c-3.7,2.7-5.6,4.6-8.6,8.1c2.9-0.7,4.5-1,7.4-1.4c2.6-0.3,4.1-0.4,6.8-0.5c-0.1-1.5,0.1-2.5,0.8-3.8
	c1.3-2.4,3.3-3.6,6-3.7c-1.2,0.5-1.8,1-2.6,2c-1,1.4-1.7,2.7-1,4.3c0.6,1.4,1.6,2.2,3.1,2.3c0.8,0,1.4-0.1,2.1-0.6
	c-0.2-0.9-0.2-1.5,0-2.4c0.6-2.5,2.8-4,5.3-3.8c-0.8,0.4-1.2,0.7-1.8,1.4c-1.7,2-1.9,4.7-0.3,6.8c1.3,1.8,3.1,2.5,5.3,2.1
	c-0.3-0.6-0.6-1.6-0.6-2.2c0-2,2.4-4.2,4.3-4.2c2.1,0,4.2,1.7,4.3,3.8c0.2,4.2-2.8,5.5-5.8,5.9c-1.9,0.2-4.2-0.6-6.1-0.9
	c-2.8-0.5-4.2-1.1-7-1.6c-6-1.1-9.5-1.7-15.7-1.4c-4.8,0.2-8.5,0.9-13.3,1.8c-7.6,1.5-10,2.9-17.6,4.4c-8.5,1.7-14,3.7-22.7,3.8
	c-9.2,0.1-14.6-0.6-23.5-3.2c1,1.7,1.3,2.8,1.6,4.7c0.2,1.1,0.2,1.7,0.2,2.8c-0.9-2.2-1.6-3.3-2.9-5.3c-1.8-2.6-3.7-3.4-5.3-6.1
	c-0.4-0.7-0.7-1-0.9-1.7c-0.2-0.8-0.3-1.3-0.1-2.1c0.1-0.6,0.3-1,0.7-1.5c0,0.5,0.1,0.9,0.3,1.4c0.2,0.3,0.3,0.5,0.6,0.8l5.5,5.5
	c0.7-3.8,0.5-6.2-0.5-9.9c-0.8-2.8-1.5-4.3-3.1-6.7c0.9-2.5,1.2-4,1.3-6.7c0-2.1-0.2-3.5-0.6-5.3c-0.2,1.6-0.8,2.7-2,3.8
	c-0.5,0.5-0.9,0.7-1.5,1c-0.9,0.5-1.3,1-1.7,1.9c-0.3,0.7-0.3,1.3-0.3,2.1c0,1.1,0.2,1.7,0.8,2.7c-1.3-0.8-1.9-1.4-2.8-2.6
	c-0.6-0.9-1-1.4-1.3-2.4c-0.2-0.9-0.1-1.6,0.3-2.4c0.4-0.7,0.9-1.1,1.5-1.4c0.8-0.5,1.5-0.3,2.3-0.5c1-0.3,1.5-0.6,2.2-1.4
	c1-1,1.4-1.8,1.6-3.2c-1.9-0.5-3.1-0.6-5.1-0.4c-1.1,0.1-1.7,0.2-2.8,0.5c-1.4-1.6-2.6-2.4-4.6-3c-1.2-0.4-2-0.5-3.3-0.5
	c-1.6-1.5-2.8-2.1-4.9-2.7c-1.9-0.5-3.1-0.3-5.1-0.3s-3.2-0.2-5.1,0.3c-2.1,0.6-3.3,1.2-4.9,2.7c-1.3-0.1-2.1,0.1-3.3,0.5
	c-2,0.6-3.2,1.4-4.6,3c-1-0.3-1.7-0.4-2.8-0.5c-2-0.2-3.1-0.1-5.1,0.5c0.2,1.3,0.6,2.1,1.6,3.1c0.7,0.7,1.2,1,2.3,1.4
	c0.8,0.2,1.6,0,2.3,0.5c0.6,0.3,1.1,0.7,1.5,1.4c0.5,0.8,0.5,1.5,0.3,2.4c-0.2,1-0.6,1.6-1.3,2.4c-0.9,1.2-1.5,1.8-2.8,2.6
	c0.6-0.9,0.8-1.6,0.8-2.7c0-0.8,0-1.3-0.3-2.1c-0.4-0.9-0.8-1.4-1.7-1.9c-0.6-0.3-1-0.5-1.5-1c-1.3-1.2-1.9-2.3-2.1-4
	c-0.6,2-0.6,3.3-0.5,5.4c0.1,2.6,0.4,4.2,1.3,6.7c-1.6,2.4-2.4,3.9-3.1,6.7c-1.1,3.7-1.2,6.1-0.5,9.9l5.5-5.5
	c0.3-0.3,0.4-0.5,0.6-0.8c0.3-0.5,0.3-0.8,0.3-1.4c0.4,0.5,0.6,0.9,0.7,1.5c0.2,0.8,0.1,1.3-0.1,2.1c-0.2,0.7-0.5,1.1-0.9,1.7
	c-1.6,2.7-3.5,3.5-5.3,6.1c-1.3,2-2,3.1-2.9,5.3c-0.3-0.8-0.4-1.2-0.5-2.1c0-0.8,0.1-1.2,0.4-1.9c-3-1.7-4.6-2.8-7.3-4.8
	c-2.6-2-4.2-3-6.3-5.4c-2.5-2.9-5.5-4.6-5.1-8.4c0.2-2,1.4-2.8,2.1-4.6c0.9-2.3,2.1-3.5,2-6c-0.1-2.6-0.9-4.3-2.9-6.1
	c0.2-1.5,0-2.5-0.8-3.9c-1-1.9-2.3-2.8-4.4-3.4c0.7,1.2,0.9,2.1,0.8,3.5c-0.1,1.2-0.3,2-1,3c0.7,1,1,1.8,0.9,3
	c-0.1,1.5-0.5,2.4-1.6,3.3c0.3-1.9,0.1-3.2-0.8-4.9c-1-1.8-2-2.7-3.8-3.5c-0.5-2.5-2.5-4.1-5.1-4c-1.5,0-2.5,0.4-3.6,1.5
	c1.4,0.2,2.2,0.7,3,1.8c0.4,0.6,0.6,1.1,0.7,1.8c-0.5,0.3-0.8,0.6-1.2,1c-0.5,0.6-0.7,1-0.9,1.7c1.9,0.1,3.2,0.7,4.5,2.2
	s1.8,2.9,1.5,4.9c-0.4-1.2-0.8-1.8-1.6-2.7c-2.1-2.3-4.5-3-7.5-2.3c-1.2-1.3-2.4-1.8-4.1-1.7c-1.8,0.1-3,0.8-4,2.3
	c1.2,0.1,1.9,0.3,2.9,0.9c0.8,0.5,1.1,0.8,1.6,1.6c-0.5,0.6-0.7,1-1.1,1.7c-0.7,1.5-0.9,2.5-0.8,4.1c0.1,1.8,0.4,3,1.6,4.4
	c1.3,1.5,2.4,2.4,4.4,2.3c0.6,0,1-0.2,1.6-0.4c0.7-0.2,1-0.7,1.7-0.7c1.7,0.2,2.3,2.5,0,3.3c-0.6,0.2-1-0.2-1.6-0.3
	c-0.8-0.2-1.2-0.5-2-0.5c-1,0.1-1.6,0.6-2.3,1.4c-0.7,0.8-1,1.5-1,2.6c-0.8,0.2-1.3,0.2-2.1,0c-0.6-0.2-0.9-0.4-1.4-0.8
	c-0.4,1.5-0.2,2.6,0.7,3.9c0.9,1.3,1.9,1.8,3.5,2c1,2,2.1,3.1,4.1,4.1c1,0.5,1.6,0.8,2.8,0.8c1.4,0,2-0.8,3.2-1.4
	c0.8-0.4,1.2-0.9,2.1-1c1-0.1,1.6,0,2.4,0.6c1.1,0.8,1.6,1.7,1.6,3.1c0,1.8-1.3,2.7-2.9,3.4c-1.2,0.6-2.1,0.7-3.4,0.4l2.3,2.2
	c0.7,0.6,1.1,1,1.9,1.3c0.9,0.4,1.4,0.6,2.4,0.6h7.2c0.9,0,1.5,0,2.4,0.2c1,0.2,1.6,0.3,2.3,1l1.7,1.7c-0.5-0.2-0.8-0.2-1.4-0.3
	c-0.4-0.1-0.7-0.1-1.1-0.1h-7.3c-1,0-1.6-0.1-2.6-0.3c-0.8-0.2-1.2-0.3-2-0.6l3.6,3.4c0.7,0.6,1.1,1,1.9,1.3
	c0.9,0.4,1.4,0.6,2.4,0.6h7.2c0.9,0,1.5,0,2.4,0.2c1,0.2,1.6,0.3,2.3,1l1.7,1.7c-0.5-0.2-0.8-0.2-1.4-0.3c-0.5-0.1-0.7-0.1-1.2-0.1
	h-7.5c-1,0-1.6-0.1-2.6-0.3c-0.8-0.2-1.2-0.3-2-0.6l3.6,3.4c0.7,0.6,1.1,1,1.9,1.3c0.9,0.4,1.4,0.6,2.4,0.6h7.2c0.9,0,1.5,0,2.4,0.2
	c1,0.2,1.6,0.3,2.3,1l1.8,1.8c-0.5-0.2-0.8-0.3-1.4-0.4c-0.4-0.1-0.7-0.1-1.2-0.1H122c-1,0-1.6-0.1-2.7-0.3
	c-0.8-0.2-1.2-0.3-1.9-0.6l3.6,3.4c0.7,0.6,1.1,1,1.9,1.3c0.9,0.4,1.4,0.6,2.4,0.6h12.4c-1.3-1.1-2.2-2.1-3.1-3.7
	c-0.5-1.1-0.9-1.7-1.1-2.9c-0.2-1-0.2-1.6,0-2.5c-0.5-0.3-0.7-0.5-1.1-0.9c-0.8-0.8-1.3-1.3-1.8-2.3c-0.9-1.6-1-2.7-1-4.5
	c0-1,0-1.6,0.3-2.6c0.3-0.9,0.6-1.4,1.2-2.2c0.5-0.8,1-1.1,1.6-1.8c0.3-0.3,0.5-0.5,0.8-0.9c0.3-0.5,0.5-0.8,0.6-1.4l0.8,2.2
	c0.2,0.4,0.2,0.7,0.1,1.2c-0.1,0.5-0.4,0.7-0.7,1.2c-0.5,0.7-0.9,0.9-1.3,1.6c-0.5,0.9-0.8,1.4-0.9,2.4c-0.2,1.2-0.1,1.9,0.3,3
	c0.2,0.6,0.4,0.9,0.8,1.4c0.4,0.5,0.7,0.8,1.3,1.1l1-1.6l0.8-1.7c0.2-0.3,0.2-0.6,0.2-0.9c0.1-0.5,0-0.8-0.1-1.3l1.4,1.9
	c0.3,0.5,0.3,0.8,0.4,1.4c0,0.6,0,1-0.4,1.5l-1.4,2.4c-0.4,0.7-0.4,1.2-0.5,2c0,0.8,0,1.2,0.2,1.9c0.3,0.9,0.5,1.3,1,2.1
	s0.9,1.3,1.6,2c0.4-1.4,0.6-2.2,1.1-3.6c0.4-1,0.7-1.4,0.9-2.4c0.1-0.4,0.1-0.7,0.1-1.2c0-0.6,0-0.9-0.1-1.5l1.7,2.2
	c0.4,0.4,0.3,0.8,0.3,1.4c0,0.5-0.1,0.8-0.2,1.2l-1.3,3.8c-0.2,0.6-0.2,1.1,0,1.7c0.2,1,0.6,1.5,1.4,2.2c0.7,0.6,1.2,0.9,2.1,1.1
	l1-3.2c0.2-0.5,0.2-0.8,0.2-1.4c0-0.7,0-1.1-0.2-1.8l1.8,1.8c0.5,0.5,0.4,1,0.5,1.7c0,0.5,0.1,0.9-0.1,1.4l-1,3
	c-0.3,0.9-0.3,1.4-0.2,2.3c0.1,1.1,0.2,1.7,0.6,2.7c-0.9-0.3-1.3-0.5-2-1.2c-0.5-0.5-0.8-0.9-1.1-1.6c-0.3-0.5-0.3-0.8-0.5-1.4
	c-0.7-0.3-1.1-0.5-1.7-0.9c-1.1-0.7-1.7-1.3-2.6-2.3h-11.3c-5.8,3.2-4.8,3.2-8.1,4.9c-5.2,2.8-8,6.2-13.8,5.9
	c-2.3-0.2-3.4-0.9-5.6-1.4c-1.4-0.3-2.2-0.7-3.7-0.7c-1.9,0-3.2,0.2-4.8,1.1c-1.5,0.9-2.2,1.6-3,3.1c1.7-0.7,2.9-0.9,4.7-0.5
	c1.6,0.3,2.5,0.7,3.8,1.7c-1.3-0.3-2-0.4-3.3-0.4c-2.6,0.1-4.3,0.3-6.4,1.7c-2.1,1.4-3.3,2.7-3.9,5.2c-0.3,1.4-0.3,2.3,0,3.7
	c-0.7,0.5-1,0.8-1.5,1.5c-0.8,1-1.5,1.7-1.5,3s0.4,2.3,1.4,3.1c0.5-1.5,1.2-2.3,2.5-3c0.9-0.5,1.5-0.7,2.5-0.7
	c0.4,0.3,0.6,0.5,1,0.7c0.5,0.3,0.9,0.4,1.5,0.6l1.3-1.5c-0.2-2.4,0.3-4.1,1.8-6c1.8-2.2,3.9-3.1,6.8-3c-2.7,0.7-4.3,2.2-5.3,4.7
	c-0.6,1.5-0.7,2.6-0.5,4.3c-1.2,0.6-1.8,1.3-2.4,2.5c-0.9,1.9-0.8,3.6,0.4,5.4c0.8-1.3,1.4-2.1,2.7-3c1.4-1.1,2.4-1.5,4.1-1.8
	c0.9,0.2,1.4,0.4,2.3,0.5c1.4,0.1,2.2,0.1,3.6-0.1c-0.6-1-0.8-1.7-0.8-2.9c-0.1-2.8,1.1-5.2,3.7-6.2c1.1-0.4,1.8-0.5,3-0.3
	c-1.2,0.3-1.9,0.7-2.8,1.6c-1.3,1.3-2.2,2.6-1.8,4.5c0.2,1.4,0.8,2.3,2.1,3.1c0.8,0.5,1.4,0.7,2.3,0.7c0,0.7-0.1,1.2-0.2,1.8
	c-0.2,0.8-0.4,1.3-0.8,2.1c1.8-0.2,2.9-0.7,4.4-1.8c1-0.8,1.5-1.4,2.1-2.6c1-0.3,1.5-0.5,2.3-1.2c1.6-1.3,2.6-2.8,2.3-4.9
	c-0.2-1.3-0.6-2.1-1.6-2.9c-0.2-1.8,1.3-3.4,3.1-3.4c1.9,0,3.4,1.9,3.1,3.8c-0.1,0.7-0.3,1-0.7,1.5c0.8-0.1,1.2-0.2,1.9-0.5
	c0.9-0.4,1.3-0.9,1.9-1.7l3.3-4.8c0.3-0.5,0.4-0.7,0.8-1.1c1.2-1.4,2.2-2.4,4-2.5h1.7c-0.5,0.3-0.7,0.5-1.1,1
	c-0.3,0.3-0.5,0.6-0.8,1l-3.3,5.3c-0.6,0.9-1,1.4-1.8,2.1c-0.6,0.5-0.9,0.8-1.6,1.3l4.4-0.1c0.9,0,1.4-0.1,2.2-0.5
	c0.9-0.4,1.3-0.8,1.9-1.7l4.1-6.1c0.5-0.7,0.7-1.1,1.4-1.5c0.6-0.4,1-0.8,1.8-0.8h2.4c-0.5,0.3-0.7,0.5-1.1,0.8
	c-0.3,0.3-0.5,0.6-0.8,1l-3.4,5.4c-0.6,0.9-1,1.4-1.8,2.1c-0.6,0.5-0.9,0.8-1.6,1.3l4.3-0.1c0.9,0,1.4-0.1,2.2-0.5
	c0.9-0.4,1.4-0.8,1.9-1.7l5.9-9.1c-1-0.9-1.5-1.6-1.9-2.9c-0.4-1-0.4-1.7-0.3-2.8c0-0.9,0.2-1.4,0.4-2.3c0.2-0.8,0.5-1.2,0.7-2.1
	c0.1-0.7,0.2-1,0.2-1.7c0-0.5,0-0.9-0.1-1.4l1.5,1.1c0.4,0.3,0.5,0.6,0.7,1.1s0.3,0.9,0.2,1.5c0,0.6-0.2,0.9-0.3,1.5
	c-0.2,0.9-0.5,1.5-0.6,2.4c-0.1,1-0.1,1.6,0.2,2.6c0.4,1,0.8,1.5,1.6,2.3c1.1,1.1,1.9,1.6,3.3,2.2v-10h2.3v10.6
	c0,0.6,0.2,0.9,0.5,1.4c0.4,0.5,0.7,0.6,1.3,0.9l4,2c1.1,0.5,1.9,0.5,3.1,0.5c1-0.1,1.5-0.2,2.4-0.6l2.9-1.1
	c-0.7,0.1-1.2,0.1-1.8-0.1c-0.8-0.2-1.1-0.6-1.8-1l-7.3-3.9c0.9-0.7,1.3-1.5,1.6-2.6c0.3-1,0.3-1.6,0.2-2.6s-0.4-1.5-0.6-2.4
	c-0.1-0.6-0.3-0.9-0.3-1.5s0-1,0.2-1.5s0.3-0.7,0.7-1.1l1.5-1.1c-0.1,0.5-0.1,0.8-0.1,1.4c0,0.7,0.1,1.1,0.2,1.7
	c0.2,0.8,0.5,1.2,0.7,2.1c0.2,0.9,0.3,1.4,0.3,2.3c0,1.8-0.3,2.8-1,4.4l7.5,4.2c0.8,0.4,1.2,0.6,2.1,0.7c0.8,0.1,1.3,0.1,2.1-0.2
	l3.8-1.6c-0.7,0.1-1.1,0.1-1.8-0.1c-0.8-0.2-1.1-0.6-1.8-1l-7.1-3.9c0,0-0.4,0-0.9-0.2c0.5-1.4,0.5-2.4,0.7-3.9
	c0.1-1.1,0.3-1.8,0-2.9l-0.8-3.5c-0.1-0.5-0.2-0.8-0.1-1.4c0-0.7,0-1.2,0.5-1.7l1.8-1.8c-0.2,0.7-0.2,1.1-0.2,1.8
	c0,0.6,0.1,0.9,0.2,1.4c0.2,1.1,0.5,1.6,0.8,2.7c0.2,1,0.4,1.6,0.5,2.6c0.1,0.9,0.1,1.4,0,2.3c-0.1,1-0.6,2.6-0.6,2.6l8.5,4.6
	c0.8,0.4,1.2,0.6,2.1,0.7c0.8,0.1,1.3,0.1,2.1-0.3l3.8-1.6c-0.7,0.1-1.1,0.1-1.8-0.1c-0.8-0.2-1.1-0.6-1.8-1l-7.1-3.9
	c-0.4-0.2-0.7-0.3-1.2-0.5s-0.8-0.3-1.3-0.5c0.3-0.5,0.4-0.8,0.6-1.4c0.3-0.8,0.4-1.3,0.6-2.1c0.3-1.9,0.1-3.1-0.2-5
	c-0.4-1.9-1.3-2.8-1.6-4.8c-0.2-0.6-0.3-0.9-0.2-1.5c0-0.6,0-1,0.3-1.4l1.7-2.2c-0.1,0.6-0.1,0.9-0.1,1.5c0,0.5,0,0.7,0.1,1.2
	c0.2,0.9,0.6,1.3,0.9,2.2c0.5,1.5,0.8,2.3,1.2,3.8c0.7-0.7,1.1-1.1,1.6-2c0.5-0.8,0.8-1.2,1-2.1c0.2-0.7,0.3-1.2,0.2-1.9
	c0-0.8-0.1-1.3-0.5-2l-1.4-2.4c-0.3-0.4-0.3-0.7-0.3-1.2c-0.1-0.7,0-1.1,0.3-1.7l1.4-1.9c-0.1,0.5-0.2,0.8-0.1,1.3
	c0,0.4,0.1,0.6,0.2,0.9l0.8,1.7l1,1.6c0.6-0.3,0.9-0.6,1.3-1.1c0.4-0.5,0.6-0.8,0.8-1.4c0.4-1.1,0.5-1.8,0.3-3
	c-0.2-1-0.4-1.5-0.9-2.4c-0.4-0.7-0.8-0.9-1.3-1.6c-0.3-0.4-0.6-0.6-0.7-1.2c-0.1-0.4,0-0.7,0.1-1.2l0.8-2.2
	c0.1,0.6,0.3,0.9,0.6,1.4c0.3,0.4,0.5,0.5,0.8,0.9c0.6,0.7,1.1,1.1,1.6,1.8c0.5,0.8,0.9,1.3,1.2,2.2c0.3,1,0.3,1.6,0.3,2.6
	c0,1.8-0.2,2.9-1,4.5c-0.5,1-1,1.5-1.8,2.3c-0.4,0.4-0.7,0.6-1.2,0.9c0.2,1,0.2,1.5,0,2.5c-0.2,1.2-0.5,1.8-1.1,2.9
	c-1,1.9-2.6,3.1-3.6,4.1c0,0,0.1,1.5,0,2.5c-0.1,1.3-0.3,2-0.8,3.2l9.7,5.2c0.8,0.4,1.2,0.6,2.1,0.7c0.8,0.1,1.3,0.1,2.1-0.2
	l3.8-1.6c-0.7,0.1-1.2,0.1-1.8-0.1c-0.8-0.2-1.1-0.6-1.8-1l-7.2-3.9c-0.4-0.2-0.7-0.3-1.1-0.5c-0.5-0.2-0.8-0.3-1.3-0.5
	c0.9-0.3,1.5-0.4,2.4-0.5c1.2-0.1,1.9,0.1,3,0.4c0.7,0.2,1.1,0.4,1.7,0.7l5.6,3c0.8,0.4,1.2,0.7,2.1,0.7c0.8,0.1,1.4,0.1,2.1-0.3
	l4.6-2.1c-0.8,0.1-1.2,0.2-1.8-0.1c-0.7-0.4-1-0.9-1.3-1.6c-0.7-1.8,0.7-3.6,2.3-4.4c6.5-3.1,9.9-4.4,16.1-7.4
	c9.2-4.4,13.9-8.1,23.4-11.8c5.1-2,7.9-4.5,13.4-4.5c3.4,0,5.7-0.1,8.6,1.8c1.4,0.9,2.2,1.5,3.2,2.9c0.9,1.4,1.1,2.4,1.4,4.1
	c0.3,1.7,0,2.7-0.1,4.4c-0.1,4.1,0,8.9,3.4,12.9c1.7,2,3.1,2.8,5.4,4.1c2,1.1,3.1,1.6,5,2.7c0.9,0.6,2.1,2,2.3,2.7
	c0.3,0.8,0.2,1.4,0,2.2c1.6,0,2.5-0.1,4-0.7c2.2-0.9,3.5-1.8,4.8-3.8h6.2c0.6,1.1,0.8,1.8,0.8,3c0,1.4,0,2.4-0.9,3.4
	c-1,1-1.8,1-3,1.1c-2.5,0.1-3.6-0.6-6-0.4c-1.9,0.2-3.1,0.2-4.8,1.1c-2.2,1.2-3.2,2.5-4,4.8c-0.5,1.5-0.7,2.5-0.5,4.2
	c-0.9,0.6-1.3,1-1.8,2c-1,1.8-1,3.5,0,5.3c1-1.1,1.6-1.7,2.9-2.5c1-0.7,1.9-1,3.3-1.2c0.3-3.1,1.6-5.2,4.3-6.8
	c1.4-0.8,2.3-1.1,3.9-1.2c-1.8,0.9-2.7,1.6-3.9,3.2c-1.8,2.3-2.7,4.1-2.5,7c-0.6,0.9-0.9,1.6-0.8,2.6c0.1,1.1,0.4,1.9,1.2,2.6
	c1.9-2.1,2.5-2.7,4.6-3.7c0.8-0.4,1.4-0.6,2.3-0.8c1,0.3,1.7,0.4,2.8,0.3c0.7,0,1.5-0.4,1.8-0.4c-0.7-2.5-1.3-4.8,0.4-6.8
	c1.7-2.1,3.3-2.8,5.9-2.6c-1.6,0.5-2.7,1-3.6,2.3c-0.9,1.2-1.2,2.3-1.1,3.9c0.2,1.7,0.8,2.9,2.3,3.8c-0.1,0.8,0,1.4,0.4,2.2
	c0.3,0.8,0.7,1.3,1.4,1.9c0.2-1.2,0.6-1.9,1.5-2.8c0.6-0.6,1-0.9,1.8-1.3c1.3-0.6,2.2-0.2,3.6-0.5c2.3-0.5,4-0.2,5.7-1.7
	c1.3-1.2,2-2.1,2.2-3.9c0.3-2.2-0.3-3.9-2-5.4c0.9-1.5,1.2-2.6,1.2-4.4c0.1-1.7-0.1-2.8-0.9-4.2h3.5c0.7,0,0.9,0.1,1.9,0.3
	C327.5,259.1,328.3,259.8,328.8,260.8z M176.7,223.5c-0.4-0.8-0.5-1.3-0.5-2.2c0-0.8,0.2-1.3,0.4-2.1c0.3-0.9,0.5-1.3,1-2.1
	c0,0.6,0,0.9,0.1,1.5c0.2,0.8,0.5,1.2,0.9,2c0.4,0.7,0.8,1,1.1,1.8c0.5,1,0.9,1.5,0.9,2.6s-0.4,1.7-0.8,2.7c-0.3,0.7-0.6,1.1-1,1.7
	c0.2-0.8,0.2-1.3,0-2.1c-0.2-0.9-0.5-1.3-1-2.1C177.4,224.5,177,224.1,176.7,223.5z M143.8,230.8c0-0.6,0-1,0.2-1.5l0.7-1.5
	c0.2-0.4,0.2-0.7,0.3-1.2c0.1-0.4,0.1-0.6,0.1-1l1.4,1.7c0.2,0.3,0.3,0.5,0.3,0.9c0,0.5-0.2,0.7-0.3,1.2c-0.2,0.6-0.5,0.9-0.5,1.5
	c0,0.5,0,0.9,0.3,1.3l1.5,1.8c0.2,0.3,0.6,0.3,0.9,0.2c0.5-0.1,0.6-0.6,0.8-1.1s0.2-0.9,0-1.4l1.3,1.5c0.3,0.4,0.3,0.7,0.3,1.2
	c0.1,0.4,0.1,0.6,0,0.9l-0.5,1.6c-0.1,0.4-0.1,0.6,0,1s0.2,0.7,0.5,1c0.3,0.4,0.6,0.6,1,0.8c0.3,0.1,0.5,0.2,0.8,0.1
	c0.3-0.2,0.4-0.5,0.5-0.8l0.4-1.8c0-0.3-0.1-0.4-0.2-0.7c-0.1-0.3-0.3-0.5-0.5-0.8l2,1.2c0.4,0.3,0.5,0.7,0.6,1.2s0.1,0.8,0,1.3
	l-0.2,1.9c-0.1,0.5,0.1,0.8,0.3,1.3c0.3,0.5,0.7,0.6,1.3,0.9c0.7,0.3,1.1,0.5,1.8,0.6v-5.8h2.3v5.8c0.7-0.1,1.1-0.3,1.8-0.6
	c0.5-0.3,0.9-0.4,1.3-0.9c0.3-0.4,0.4-0.8,0.3-1.3l-0.2-1.9c-0.1-0.5-0.1-0.8,0-1.3s0.2-0.9,0.6-1.2l2-1.2c-0.2,0.3-0.3,0.5-0.5,0.8
	c-0.1,0.2-0.3,0.4-0.2,0.7l0.4,1.8c0.1,0.4,0.1,0.7,0.5,0.8c0.3,0.1,0.5,0,0.8-0.1c0.5-0.2,0.7-0.4,1-0.8c0.3-0.4,0.4-0.6,0.5-1
	s0.1-0.6,0-1l-0.5-1.6c-0.1-0.3,0-0.6,0-0.9c0.1-0.5,0.1-0.8,0.3-1.2l1.3-1.5c-0.2,0.5-0.2,0.9,0,1.4s0.3,0.9,0.8,1.1
	c0.4,0.1,0.7,0,0.9-0.2l1.5-1.8c0.3-0.4,0.3-0.8,0.3-1.3c0-0.6-0.3-0.9-0.5-1.5c-0.1-0.5-0.4-0.7-0.4-1.2c0-0.4,0.1-0.6,0.4-0.9
	l1.4-1.7c0,0.4,0,0.6,0.1,1c0.1,0.5,0.2,0.7,0.4,1.2l0.7,1.5c0.2,0.5,0.2,0.9,0.2,1.5s0,0.9-0.1,1.5c-0.2,0.7-0.6,1-1,1.6
	c-0.6,0.8-0.9,1.3-1.6,2c-0.8,0.7-1.2,1.1-2.1,1.6c0.1,0.6,0.1,0.9-0.1,1.5c-0.2,0.8-0.5,1.2-1,1.7c-0.5,0.6-1,0.8-1.6,1.2
	c-0.6,0.3-1,0.4-1.6,0.6c-0.1,0.6-0.2,0.9-0.6,1.4c-0.3,0.5-0.6,0.7-1,1.1c-0.8,0.7-1.3,1-2.3,1.4c-1.2,0.5-1.9,0.7-3.1,0.7
	c-1.3,0-2-0.2-3.1-0.7c-1-0.4-1.5-0.7-2.3-1.4c-0.4-0.4-0.7-0.6-1-1.1s-0.5-0.8-0.6-1.4c-0.7-0.1-1-0.3-1.6-0.6
	c-0.7-0.4-1.1-0.6-1.7-1.2c-0.5-0.6-0.8-1-1-1.7c-0.2-0.6-0.2-0.9-0.1-1.5c-0.9-0.5-1.4-0.9-2.1-1.6s-1-1.2-1.6-2
	c-0.4-0.6-0.8-0.9-1-1.6C143.8,231.6,143.8,231.2,143.8,230.8z M139.4,224.8c0-1.1,0.4-1.6,0.9-2.6c0.4-0.7,0.8-1,1.1-1.8
	c0.4-0.8,0.7-1.2,0.9-2c0.1-0.6,0.1-0.9,0.1-1.5c0.5,0.7,0.8,1.2,1.1,2.1c0.3,0.8,0.4,1.3,0.4,2.1c0,0.9-0.2,1.4-0.5,2.2
	c-0.3,0.7-0.8,1-1.2,1.7c-0.4,0.8-0.8,1.2-0.9,2.1c-0.2,0.8-0.2,1.3,0,2.1c-0.5-0.6-0.7-1-1.1-1.7
	C139.8,226.5,139.4,226,139.4,224.8z M140.3,210.3c0.4-0.5,0.5-0.9,0.5-1.6c0.1-0.5,0.1-0.8-0.1-1.3c0.6,0.4,0.9,0.8,1.2,1.4
	c0.5,0.9,0.8,1.6,0.7,2.6c-0.1,0.9-0.4,1.4-0.9,2.2l-1.9,2.7c-0.2,0.4-0.4,0.6-0.6,0.9c-0.4,0.6-0.5,1-0.8,1.7
	c-0.2,0.6-0.4,0.9-0.6,1.5c-0.1-0.8-0.2-1.3-0.3-2.1c-0.2-0.8-0.4-1.2-0.5-2c0-1.2,0.1-2,0.8-2.9L140.3,210.3z M148.3,193.8h8.1
	c0.4,0,0.7,0.2,1,0.6c0.5,0.5,0.3,1.2,0.3,1.8l-0.1,0.6c-0.4-0.4-0.7-0.7-1.3-0.7h-2.5c0.6,0.6,1.1,1.1,1.1,2c0,1.2-1,2.2-2.2,2.2
	s-2.2-1-2.2-2.2c0-0.6,0.2-1.2,0.7-1.6l0.4-0.4h-3c-1,0-1.5-0.5-2.2-1.2s-1-1.4-1-2.3C146.1,193.2,147.2,193.8,148.3,193.8z
	 M153.6,182.8l2.8,3.7c0.2,0.2,0.2,0.5,0.5,0.7c0.3,0.3,0.5,0.4,0.9,0.5h-2.3c-0.7,0-1.1-0.1-1.7-0.5c-0.6-0.3-0.8-0.7-1.3-1.3
	l-2.3-3c-0.2-0.3-0.3-0.5-0.6-0.7c-0.3-0.3-0.5-0.4-0.8-0.6h2.7c0.5,0,0.7,0.1,1.1,0.3C153.1,182.1,153.3,182.5,153.6,182.8z
	 M164,186.6c0.2,0.3,0.3,0.5,0.6,0.7c0.4,0.4,0.7,0.6,1.2,0.8h-3.1c-0.7,0-1.2-0.2-1.8-0.6c-0.5-0.3-0.6-0.7-0.9-1.1l-2.8-4.3
	c-0.3-0.4-0.4-0.7-0.8-1c-0.5-0.5-0.9-0.7-1.6-0.9h2.9c0.7,0,1.1,0.2,1.7,0.6c0.5,0.3,0.8,0.5,1.1,1L164,186.6z M172.1,187.6h-2.3
	c-0.7,0-1.1-0.1-1.7-0.5c-0.6-0.3-0.8-0.7-1.3-1.3l-2.3-3c-0.2-0.3-0.3-0.5-0.6-0.7c-0.3-0.3-0.5-0.4-0.8-0.6h2.7
	c0.5,0,0.8,0.1,1.2,0.3s0.6,0.4,0.9,0.8l2.8,3.7c0.2,0.2,0.2,0.5,0.5,0.7C171.5,187.5,171.7,187.5,172.1,187.6z M174.7,192.5
	c0,0.9-0.3,1.5-1,2.3s-1.3,1.2-2.2,1.2h-3c0.6,0.6,1.1,1.1,1.1,2c0,1.2-1,2.2-2.2,2.2s-2.2-1-2.2-2.2c0-0.6,0.3-1.2,0.7-1.6l0.4-0.4
	h-2.5c-0.6,0-0.9,0.3-1.4,0.8v-0.6c0-0.4,0-0.7,0-1c0.1-0.6,0.7-1.4,1.4-1.4h8.1C172.8,193.8,174,193.2,174.7,192.5z M181,197.8
	c0.3,5.1-2.8,10.3-8.3,11c-0.3,3.1-1.8,4.9-4.6,5.9c0.2,2.7,0.1,5.2-0.3,7.8v0.1c0.6,1.5,1,3.2,1,4.8c0,3-2.5,4.9-5.6,4.8
	c-0.9-0.1-1.9-0.3-3.1-0.3c-3.2,0-4.4,1.1-7.3-1.2c-1.1-0.9-1.4-1.9-1.4-3.3c0-1.6,0.3-3.4,0.9-4.9c-0.5-2.7-0.5-5.1-0.3-7.8
	c-2.8-1-4.3-2.9-4.7-5.9c-5.5-0.8-8.6-5.9-8.3-11c0.4-1.6,1-3.1,2.4-4.1v4.7c0,4.2,2.4,8.1,7.1,8h0.8c-0.6,7.7,10.2,8.4,9.5,1.9
	c-1.4-0.5-2.4-1.6-2.5-3.2h7.4c-0.2,1.6-1.2,2.7-2.6,3.2c-0.7,6.5,10,5.8,9.5-1.9h0.8c4.7,0.1,7.1-3.8,7.1-8v-4.7
	C180,194.6,180.6,196.1,181,197.8z M183,216.5c0,0.8-0.3,1.2-0.5,2s-0.2,1.3-0.3,2.1c-0.2-0.6-0.3-0.9-0.6-1.5
	c-0.3-0.7-0.4-1.1-0.8-1.7c-0.2-0.4-0.4-0.6-0.6-0.9l-1.9-2.7c-0.5-0.7-0.8-1.2-0.9-2.2c-0.1-1.1,0.2-1.7,0.7-2.6
	c0.4-0.6,0.7-1,1.2-1.4c-0.1,0.5-0.1,0.8-0.1,1.3c0.1,0.6,0.2,1,0.5,1.6l2.4,3.3C182.9,214.5,183.1,215.3,183,216.5z M300.9,246.6
	h-8.7c-3.4,0-4.9-1-7.2-3.6c-0.8-0.9-1.2-1.6-1.7-2.4c1.8,1.6,4.2,2.4,6.6,2.4c2,0,4.1-0.1,6.1,0.1c1.5,0.1,3,0.8,3.9,1.9
	C300.4,245.6,300.7,246,300.9,246.6z M166.2,227.8c1-2.7-4.6-2.8-6.2-2.8c-1,0-1.9,0.1-2.9,0.2c-1.3,0.2-3.9,0.7-3.2,2.6
	c0.5,1.5,2,1.6,3.4,1.9c1,0.2,1.8,0,2.8,0s1.8,0.3,2.8,0.1C164.2,229.5,165.7,229.3,166.2,227.8z M165.1,223
	c0.4-2.2,0.6-4.4,0.6-6.6v-0.9l-2.3,2.7c-0.2-0.3-0.3-0.7-0.5-1.2s-0.6-1.7-1.2-1.9c-0.7,0.4-0.8,0.3-1.6,0.3c-0.7,0-0.9,0-1.5-0.3
	h-0.1c-0.5,0.1-1.5,2.6-1.7,3l-2.3-2.7c0,2.5,0.1,5,0.6,7.5c1.7-0.4,3.4-0.4,5-0.4C161.8,222.6,163.4,222.5,165.1,223z M276,189.5
	c0,0-0.2-0.6-0.2-1s0.1-1,0.1-1c-6.5,1.6-10.1,2.5-16.5,4.4c-6.7,1.9-10.4,3.3-17.2,5.3c-6.5,1.9-10.2,3.4-16.8,4.8
	c-3.4,0.7-5.6,1.3-8.9,1.3c-3.6,0-5.2,0-7.1-1c-2.2-1.1-3.9-2.2-4.3-4.6c-0.2-1.1-0.3-2,0.3-2.9c0.6-0.8,1.3-1.2,2.3-1.3
	c1.3,0,2.4,0.6,2.8,1.8c0.4,1.1,0.1,2.1-0.8,2.9c1.2,0.1,1.9,0.1,3.1-0.1c1.8-0.2,3.1-0.1,4.5-1.3c1.1-1,1.6-2,1.7-3.5
	c0-1.8-0.7-2.9-2.2-3.9c-0.9-0.6-1.6-0.9-2.8-0.9c1.7-0.5,2.9-0.5,4.5,0.3c0.8,0.4,1.3,0.8,1.8,1.5c0.9,1.3,1.2,2.5,0.7,4.1
	c3.3,0.4,5.3,0.3,8.4-0.7c3.5-1.1,5.4-2.5,8.1-5c2.8-2.6,4.2-4.5,5.9-8c-2.7,1.4-4.4,2-7.4,2.7c-7.6,1.8-13.4-1.3-19.9-1.8
	c-3.8-0.3-8.3,0.6-11.7,1.9c-4.1,1.6-6.8,3.4-8.5,7.4c-1.6,3.6-1.8,6.4-0.3,10.1c1.3,3.4,3.4,5.2,6.3,6.8c4.2,2.5,6.8,2.6,11.7,3
	c6.9,0.5,10.5-0.6,17.1-2c6.1-1.2,9.3-2.8,15.3-4.4c6.5-1.8,10.2-2.8,16.8-4.4c2.3-2.6,3.8-3.9,6.5-6
	C271.6,191.8,273.2,190.8,276,189.5z M199.4,149.6c1.5-0.9,2.6-1.1,4.3-1c-1.4,0.6-2.2,1.1-3.3,2.1c-1.6,1.4-2.3,2.6-3,4.6
	c-0.7,0.3-1.1,0.5-1.6,1c-0.9,0.8-1.2,1.5-1.5,2.7c-0.4,1.6-0.3,2.8,0.6,4.2c1.2-1.3,2-2,3.6-2.9c1.2-0.7,2-1,3.3-1.4
	c0.3-1.8,0.9-2.9,2.1-4.3c1.7-1.9,3.2-2.8,5.8-3.1c-1.5,0.6-2.3,1.2-3.3,2.4c-1.8,2-2.2,3.8-2.3,6.5c-0.1,1.6,0.1,2.5,0.5,4
	c0.8-1.2,1.4-1.8,2.6-2.6c0.9-0.6,1.5-0.9,2.5-1c0.9-0.2,1.4,0.1,2.3,0.1c1.2,0,1.8,0.1,3,0.1c1.9,0.2,3.2-0.3,4.7-1.6
	c1.4-1.3,2-2.6,2-4.5c-0.1-0.6-0.2-0.9-0.4-1.5s-0.3-0.9-0.7-1.4c0.9,0.1,1.5,0.4,2.2,1.2s0.9,1.5,0.9,2.6c0,1-0.2,1.6-0.7,2.4
	c2.2,0.4,3.7,0.2,5.7-0.7c1.8-0.9,2.8-1.7,3.8-3.5c0.6-1,0.8-1.7,1-2.9c1.6-0.9,2.4-1.5,3.8-2.7c1-0.9,1.6-1.5,2.5-2.6l1.1,3.8
	c0.2,0.8,0.2,1.3,0.2,2.2c0,0.7-0.1,1.1-0.3,1.8l3.3-3.8c0.6-0.7,0.9-1.2,1.1-2.2c0.2-0.7,0.2-1.1,0.1-1.8l-1.6-6.3
	c-0.2-0.8-0.1-1.4,0.1-2.2c0.2-0.7,0.4-1.1,0.9-1.7l1.5-1.6c-0.2,0.5-0.2,0.7-0.2,1.1c-0.1,0.6-0.2,0.9,0,1.4l1.5,5.5
	c0.2,0.7,0.2,1.1,0.2,1.9c0,0.8-0.1,1.3-0.3,2.1l3.3-3.8c0.6-0.7,0.9-1.2,1.1-2.1c0.2-0.7,0.2-1.1,0.1-1.8l-1.5-6.3
	c-0.2-0.8-0.2-1.4,0.1-2.2c0.2-0.7,0.4-1.1,0.9-1.7l1.5-1.7c-0.2,0.5-0.2,0.7-0.2,1.1c-0.1,0.5-0.2,0.9,0,1.4l1.5,5.6
	c0.2,0.8,0.2,1.2,0.2,2s-0.1,1.2-0.3,2l2.9-3.3c0.5-0.6,0.7-1.1,0.9-1.9s0.1-1.2,0.1-2l-0.2-2c0,0-0.2-1.6,0.1-2.5
	c0.4-1.4,1.2-1.9,2.1-3c1.5-1.8,2.8-2.5,4.6-4c2.4-2,3.8-3.2,6.3-5.1c0.3-1.8,0.1-3-0.7-4.7c-0.6-1.2-1.1-1.8-2.2-2.6
	c-0.7-0.5-1.2-0.8-2-1.1s-1.2-0.4-2.1-0.7c-2.3-0.5-4-0.7-6.5-0.2c-1.1,0.2-1.9,0.4-2.8,0.7c0,0-1.4,0.6-2.2,1.1
	c0.3,0.9,0.3,1.5,0.2,2.4c-0.2,1-0.5,1.6-1.3,2.4c-1.1,1.1-2.1,1-3.6,1.5c-2.4,0.8-4,0.4-6.5,0.9s-4.1,0.4-6.4,1.5
	c-4.5,2-6.4,4.8-8.9,9c-2,3.5-2.3,5.9-4.8,8.9c-0.6,0.7-0.9,1.1-1.5,1.7c1.5-0.3,2.4-0.4,3.9-0.6c2.4-0.2,3.7-0.3,6.1-0.2
	c-1.1,0.4-1.7,0.6-2.8,1.2c-0.7,0.4-1,0.6-1.7,1.1c-0.7,2.2-1.6,3.5-3.5,4.9c-2,1.5-3.5,1.9-6,2c-2.2,0.1-3.4-0.8-5.5-1.3
	c-2.5-0.6-3.8-1.6-6.3-1.5c-1.7,0.1-2.7,0.3-4.2,0.9c-2,0.9-3.1,1.7-4.4,3.5c-1.3,1.8-1.9,3.1-2.2,5.3c-1.3,0.4-2,0.9-2.9,2
	c-0.9,1-1.4,1.8-1.5,3.1c-0.1,1.2,0.1,1.9,0.7,2.9c1-1.1,1.7-1.6,3-2.3c1.2-0.8,2-1.1,3.4-1.5c0.5-1.4,0.9-2.2,1.8-3.3
	C197.9,150.8,198.4,150.2,199.4,149.6z M241.2,127.2c0.9-2.5,2.3-3.7,4.5-5.2c1.8-1.2,3-1.5,5-2.1c1.5-0.4,2.5-0.3,4-0.8
	c1.8-0.5,2.8-0.9,4.4-1.8c-1.3,1.5-2.2,2.3-3.8,3.5c-2.5,1.8-4.8,1.9-7.2,3.6c-3.7,2.6-5.4,4.9-7.2,9.1
	C240.3,131,240.4,129.5,241.2,127.2z M328.8,143.3c0.4-1.3,0.4-2.1,0.2-3.5c-0.2-1.2-0.4-2-1.1-3c-0.8-1.1-2-1.7-2.9-2.1
	c-0.8-0.4-3.2-0.6-4.1-0.6h-1.2c-0.7,0-1.1,0-1.8-0.1c-1-0.2-1.6-0.3-2.4-1.1l-1.9-1.9c0.5,0.2,0.8,0.3,1.3,0.3
	c0.4,0.1,0.7,0.1,1.1,0.1h5.5c1,0,1.5,0.1,2.5,0.4c0.7,0.2,1.1,0.3,1.8,0.6l-3.6-4.7c-0.5-0.6-0.8-1-1.5-1.4
	c-0.8-0.5-1.3-0.6-2.2-0.6h-6.2c-0.8,0-1.2,0.1-2-0.2c-0.6-0.3-1-0.5-1.3-1l-1-1.6c0.5,0.2,0.8,0.3,1.3,0.3c0.4,0.1,0.7,0.1,1.1,0.1
	h5.6c1,0,1.6,0.1,2.5,0.3c0.7,0.2,1.1,0.3,1.8,0.6l-3.6-4.7c-0.5-0.6-0.8-1-1.5-1.4c-0.8-0.4-1.3-0.6-2.2-0.6h-6.3
	c-0.8,0-1.2,0.1-2-0.2c-0.6-0.3-1-0.5-1.3-1l-1-1.6c0.4,0.2,0.8,0.3,1.2,0.4c0.4,0.1,0.7,0.1,1.1,0.1h5.6c1,0,1.5,0.1,2.5,0.3
	c0.7,0.2,1.1,0.3,1.8,0.6l-3.6-4.7c-0.5-0.6-0.8-1-1.5-1.3c-0.8-0.5-1.3-0.6-2.2-0.6h-5.9c-0.8,0-1.3,0.1-2-0.2
	c-0.4-0.2-0.6-0.4-0.7-0.7c0,0-1-1.3-1.6-2.2c-1.3-1.9-3-5.1-3-5.1c2.5-0.2,3.9-0.4,6.2-1.2c3.7-1.3,6.3-2.2,8.5-5.4
	c1.7-2.5,2.2-4.5,2.2-7.5c0-3.1-0.6-5-2.3-7.5c-1.6-2.4-3.3-3.3-5.8-4.8s-4.2-1.7-7-2.6c-2.4-0.7-4.8-0.5-6-2.8
	c-0.8-1.5-1-2.7-0.4-4.3c0.5-1.3,1.2-2,2.5-2.5c-3.1-1.1-5.4-1.1-8.5,0.3c-2.1,0.9-3.5,1.7-4.6,3.7c-1.3,2.2-1.5,4-0.7,6.5
	c-3,1.5-4.6,2.5-7.2,4.5c-3.7,2.7-5.6,4.5-8.6,8.1c2.9-0.7,4.5-1,7.4-1.4c2.6-0.3,4.1-0.4,6.8-0.5c-0.1-1.5,0.1-2.5,0.8-3.8
	c1.3-2.4,3.3-3.6,6-3.7c-1.2,0.5-1.8,1-2.6,2c-1,1.4-1.7,2.7-1,4.3c0.6,1.4,1.6,2.2,3.1,2.3c0.8,0,1.4-0.1,2.1-0.6
	c-0.2-0.9-0.2-1.5,0-2.4c0.6-2.5,2.8-4,5.3-3.8c-0.8,0.4-1.2,0.7-1.8,1.4c-1.7,2-1.9,4.7-0.3,6.8c1.3,1.8,3.1,2.5,5.3,2.1
	c-0.3-0.5-0.6-1.5-0.6-2.2c0-1.9,2.4-4.2,4.3-4.2c2.1,0,4.2,1.7,4.3,3.8c0.2,4.2-2.8,5.5-5.8,5.9c-1.9,0.3-4.2-0.5-6.1-0.9
	c-2.8-0.5-4.2-1.1-7-1.6c-6-1.1-9.5-1.7-15.7-1.4c-4.8,0.2-8.5,0.9-13.3,1.8c-7.6,1.5-10,2.9-17.6,4.4c-8.5,1.7-14,3.7-22.7,3.8
	c-9.2,0.1-14.6-0.6-23.5-3.2c1,1.7,1.3,2.8,1.6,4.7c0.2,1.1,0.2,1.7,0.2,2.8c-0.9-2.2-1.6-3.3-2.9-5.3c-1.8-2.6-3.7-3.4-5.3-6.1
	c-0.4-0.7-0.7-1-0.9-1.7c-0.2-0.8-0.3-1.3-0.1-2.1c0.1-0.6,0.3-1,0.7-1.5c0,0.6,0.1,0.9,0.3,1.4c0.2,0.3,0.3,0.5,0.6,0.8l5.5,5.5
	c0.7-3.8,0.5-6.2-0.5-9.9c-0.8-2.8-1.5-4.3-3.1-6.7c0.9-2.5,1.2-4,1.3-6.7c0-2.1-0.2-3.6-0.6-5.3c-0.2,1.6-0.8,2.7-2,3.8
	c-0.5,0.5-0.9,0.7-1.5,1c-0.9,0.5-1.3,1-1.7,1.9c-0.3,0.7-0.3,1.2-0.3,2.1c0,1.1,0.2,1.7,0.8,2.7c-1.3-0.8-1.9-1.4-2.8-2.6
	c-0.6-0.9-1-1.4-1.3-2.5c-0.2-0.9-0.1-1.6,0.3-2.4c0.4-0.7,0.9-1.1,1.5-1.4c0.8-0.5,1.5-0.3,2.3-0.5c1-0.3,1.5-0.6,2.2-1.3
	c1-1,1.4-1.8,1.6-3.2c-1.9-0.5-3.1-0.6-5.1-0.4c-1.1,0.1-1.7,0.2-2.8,0.5c-1.4-1.6-2.6-2.3-4.6-3c-1.2-0.4-2-0.5-3.3-0.5
	c-1.6-1.5-2.8-2.1-4.9-2.7c-1.9-0.5-3.1-0.3-5.1-0.3s-3.2-0.2-5.1,0.3c-2.1,0.6-3.3,1.2-4.9,2.7c-1.3,0-2.1,0.1-3.3,0.5
	c-2,0.7-3.2,1.4-4.6,3c-1-0.3-1.7-0.4-2.8-0.5c-2-0.2-3.1-0.1-5.1,0.5c0.2,1.3,0.6,2.1,1.6,3.1c0.7,0.7,1.2,1,2.3,1.3
	c0.8,0.2,1.6,0.1,2.3,0.5c0.6,0.3,1.1,0.7,1.5,1.4c0.5,0.8,0.5,1.5,0.3,2.4c-0.2,1.1-0.6,1.6-1.3,2.5c-0.9,1.2-1.5,1.8-2.8,2.6
	c0.6-0.9,0.8-1.6,0.8-2.7c0-0.8,0-1.3-0.3-2.1c-0.4-0.9-0.8-1.4-1.7-1.9c-0.6-0.3-1-0.5-1.5-1c-1.3-1.2-1.9-2.2-2.1-4
	c-0.6,2-0.6,3.3-0.5,5.4c0.1,2.6,0.4,4.2,1.3,6.7c-1.6,2.4-2.4,3.9-3.1,6.7c-1.1,3.7-1.2,6.1-0.5,9.9l5.5-5.5
	c0.3-0.3,0.4-0.4,0.6-0.8c0.3-0.5,0.3-0.8,0.3-1.4c0.4,0.5,0.6,0.9,0.7,1.5c0.2,0.8,0.1,1.3-0.1,2.1c-0.2,0.7-0.5,1.1-0.9,1.7
	c-1.6,2.7-3.5,3.5-5.3,6.1c-1.3,1.9-2,3.1-2.9,5.3c-0.3-0.8-0.4-1.2-0.5-2.1c0-0.8,0.1-1.2,0.4-2c-3-1.7-4.6-2.8-7.3-4.9
	c-2.6-2-4.2-3-6.3-5.4c-2.5-2.9-5.5-4.6-5.1-8.4c0.2-2,1.4-2.8,2.1-4.6c0.9-2.3,2.1-3.5,2-6c-0.1-2.6-0.9-4.3-2.9-6.1
	c0.2-1.6,0-2.5-0.8-3.9c-1-1.9-2.3-2.8-4.4-3.3c0.7,1.2,0.9,2.1,0.8,3.4c-0.1,1.2-0.3,2-1,3c0.7,1,1,1.8,0.9,3
	c-0.1,1.4-0.5,2.4-1.6,3.3c0.3-1.9,0.1-3.2-0.8-5c-1-1.8-2-2.7-3.8-3.4c-0.5-2.5-2.5-4.1-5.1-4c-1.5,0-2.5,0.4-3.6,1.5
	c1.4,0.2,2.2,0.7,3,1.8c0.4,0.6,0.6,1.1,0.7,1.8c-0.5,0.3-0.8,0.6-1.2,1c-0.5,0.6-0.7,1-0.9,1.7c1.9,0.1,3.2,0.7,4.5,2.2
	s1.8,2.9,1.5,5c-0.4-1.2-0.8-1.8-1.6-2.8c-2.1-2.3-4.5-3-7.5-2.3c-1.2-1.3-2.4-1.8-4.1-1.6c-1.8,0.1-3,0.8-4,2.3
	c1.2,0,1.9,0.3,2.9,0.9c0.8,0.5,1.1,0.9,1.6,1.6c-0.5,0.6-0.7,1-1.1,1.6c-0.7,1.5-0.9,2.5-0.8,4.2c0.1,1.8,0.4,3,1.6,4.4
	c1.3,1.5,2.4,2.4,4.4,2.3c0.6,0,1-0.2,1.6-0.3c0.7-0.2,1-0.7,1.7-0.7c1.7,0.2,2.3,2.5,0,3.3c-0.6,0.2-1-0.2-1.6-0.3
	c-0.8-0.2-1.2-0.5-2-0.5c-1,0.1-1.6,0.6-2.3,1.4c-0.7,0.8-1,1.6-1,2.7c-0.8,0.2-1.3,0.2-2.1,0c-0.6-0.2-0.9-0.4-1.4-0.8
	c-0.4,1.5-0.2,2.7,0.7,3.9s1.9,1.8,3.5,1.9c1,2.1,2.1,3.1,4.1,4.1c1,0.5,1.6,0.8,2.8,0.8c1.4,0,2-0.8,3.2-1.4c0.8-0.4,1.2-0.9,2.1-1
	c1-0.1,1.6,0,2.4,0.6c1.1,0.8,1.6,1.7,1.6,3.1c0,1.8-1.3,2.7-2.9,3.4c-1.2,0.6-2.1,0.7-3.4,0.4l2.3,2.2c0.7,0.6,1.1,1,1.9,1.4
	c0.9,0.4,1.4,0.6,2.4,0.6h7.2c0.9,0,1.5,0,2.4,0.2c1,0.3,1.6,0.3,2.3,1.1l1.7,1.7c-0.5-0.2-0.8-0.3-1.4-0.3
	c-0.4-0.1-0.7-0.1-1.1-0.1h-7.3c-1,0-1.6-0.1-2.6-0.3c-0.8-0.2-1.2-0.3-2-0.6l3.6,3.4c0.7,0.6,1.1,1,1.9,1.4
	c0.9,0.4,1.4,0.6,2.4,0.6h7.2c0.9,0,1.5,0,2.4,0.2c1,0.2,1.6,0.3,2.3,1l1.7,1.8c-0.5-0.2-0.8-0.3-1.4-0.3c-0.5-0.1-0.7-0.1-1.2-0.1
	h-7.5c-1,0-1.6-0.1-2.6-0.3c-0.8-0.2-1.2-0.3-2-0.6l3.6,3.4c0.7,0.6,1.1,1,1.9,1.4c0.9,0.4,1.4,0.6,2.4,0.6h7.2c0.9,0,1.5,0,2.4,0.2
	c1,0.2,1.6,0.3,2.3,1l1.8,1.8c-0.5-0.2-0.8-0.3-1.4-0.3c-0.4-0.1-0.7-0.1-1.2-0.1H122c-1,0-1.6-0.1-2.7-0.3
	c-0.8-0.2-1.2-0.3-1.9-0.6l3.6,3.4c0.7,0.6,1.1,1,1.9,1.3c0.9,0.4,1.4,0.6,2.4,0.6h12.4c-1.3-1.1-2.2-2.1-3.1-3.7
	c-0.5-1.1-0.9-1.7-1.1-2.9c-0.2-1-0.2-1.6,0-2.5c-0.5-0.3-0.7-0.5-1.1-0.9c-0.8-0.8-1.3-1.3-1.8-2.3c-0.9-1.6-1-2.7-1-4.5
	c0-1,0-1.7,0.3-2.7c0.3-0.9,0.6-1.4,1.2-2.2c0.5-0.8,1-1.1,1.6-1.8c0.3-0.3,0.5-0.5,0.8-0.9c0.3-0.5,0.5-0.8,0.6-1.4l0.8,2.2
	c0.2,0.4,0.2,0.7,0.1,1.2c-0.1,0.5-0.4,0.7-0.7,1.2c-0.5,0.7-0.9,0.9-1.3,1.6c-0.5,0.9-0.8,1.4-0.9,2.4c-0.2,1.2-0.1,1.9,0.3,3
	c0.2,0.6,0.4,0.9,0.8,1.4c0.4,0.5,0.7,0.8,1.3,1.1l1-1.5l0.8-1.7c0.2-0.3,0.2-0.5,0.2-0.9c0.1-0.5,0-0.8-0.1-1.3l1.4,2
	c0.3,0.5,0.3,0.8,0.4,1.4c0,0.6,0,1-0.4,1.5l-1.4,2.4c-0.4,0.7-0.4,1.2-0.5,1.9c0,0.8,0,1.2,0.2,2c0.3,0.9,0.5,1.3,1,2.1
	s0.9,1.3,1.6,2c0.4-1.4,0.6-2.2,1.1-3.6c0.4-1,0.7-1.4,0.9-2.5c0.1-0.4,0.1-0.7,0.1-1.1c0-0.6,0-0.9-0.1-1.5l1.7,2.2
	c0.4,0.5,0.3,0.8,0.3,1.4c0,0.5-0.1,0.8-0.2,1.2l-1.3,3.8c-0.2,0.6-0.2,1,0,1.7c0.2,1,0.6,1.5,1.4,2.2c0.7,0.6,1.2,0.9,2.1,1.1
	l1-3.2c0.2-0.5,0.2-0.8,0.2-1.4c0-0.7,0-1.2-0.2-1.8l1.8,1.8c0.5,0.5,0.4,1,0.5,1.6c0,0.5,0.1,0.9-0.1,1.4l-1,3
	c-0.3,0.9-0.3,1.4-0.2,2.3c0.1,1.1,0.2,1.7,0.6,2.7c-0.9-0.3-1.3-0.6-2-1.2c-0.5-0.5-0.8-0.9-1.1-1.6c-0.3-0.5-0.3-0.8-0.5-1.4
	c-0.7-0.3-1.1-0.5-1.7-0.9c-1.1-0.7-1.7-1.2-2.6-2.3h-11.3c-5.8,3.2-4.8,3.2-8.1,4.9c-5.2,2.8-8,6.2-13.8,5.9
	c-2.3-0.1-3.4-0.9-5.6-1.4c-1.4-0.3-2.2-0.7-3.7-0.7c-1.9,0-3.2,0.2-4.8,1.2c-1.5,0.9-2.2,1.6-3,3.1c1.7-0.7,2.9-0.9,4.7-0.5
	c1.6,0.3,2.5,0.7,3.8,1.7c-1.3-0.3-2-0.4-3.3-0.3c-2.6,0-4.3,0.3-6.4,1.7c-2.1,1.4-3.3,2.7-3.9,5.2c-0.3,1.4-0.3,2.3,0,3.7
	c-0.7,0.5-1,0.8-1.5,1.5c-0.8,1-1.5,1.7-1.5,3s0.4,2.3,1.4,3.1c0.5-1.5,1.2-2.3,2.5-3c0.9-0.5,1.5-0.7,2.5-0.7
	c0.4,0.3,0.6,0.5,1,0.7c0.5,0.3,0.9,0.4,1.5,0.6l1.3-1.5c-0.2-2.4,0.3-4.1,1.8-6c1.8-2.2,3.9-3.2,6.8-3c-2.7,0.7-4.3,2.1-5.3,4.7
	c-0.6,1.6-0.7,2.6-0.5,4.3c-1.2,0.6-1.8,1.3-2.4,2.5c-0.9,1.9-0.8,3.6,0.4,5.4c0.8-1.3,1.4-2,2.7-3c1.4-1.1,2.4-1.5,4.1-1.8
	c0.9,0.3,1.4,0.4,2.3,0.5c1.4,0.2,2.2,0.1,3.6-0.1c-0.6-1-0.8-1.7-0.8-2.9c-0.1-2.8,1.1-5.2,3.7-6.2c1.1-0.4,1.8-0.5,3-0.3
	c-1.2,0.3-1.9,0.7-2.8,1.6c-1.3,1.3-2.2,2.6-1.8,4.5c0.2,1.4,0.8,2.3,2.1,3.1c0.8,0.5,1.4,0.7,2.3,0.7c0,0.7-0.1,1.1-0.2,1.8
	c-0.2,0.9-0.4,1.3-0.8,2.1c1.8-0.2,2.9-0.7,4.4-1.8c1-0.8,1.5-1.4,2.1-2.6c1-0.3,1.5-0.5,2.3-1.2c1.6-1.3,2.6-2.8,2.3-4.9
	c-0.2-1.3-0.6-2.1-1.6-2.9c-0.2-1.8,1.3-3.4,3.1-3.5c1.9,0,3.4,1.9,3.1,3.8c-0.1,0.6-0.3,1-0.7,1.6c0.8-0.1,1.2-0.2,1.9-0.5
	c0.9-0.5,1.3-0.9,1.9-1.7l3.3-4.8c0.3-0.4,0.4-0.7,0.8-1.1c1.2-1.4,2.2-2.5,4-2.5h1.7c-0.5,0.3-0.7,0.6-1.1,1
	c-0.3,0.3-0.5,0.5-0.8,0.9l-3.3,5.3c-0.6,0.9-1,1.4-1.8,2.1c-0.6,0.5-0.9,0.8-1.6,1.3l4.4-0.1c0.9,0,1.4-0.2,2.2-0.5
	c0.9-0.4,1.3-0.8,1.9-1.6l4.1-6.1c0.5-0.7,0.7-1.1,1.4-1.5c0.6-0.4,1-0.8,1.8-0.8h2.4c-0.5,0.3-0.7,0.5-1.1,0.9
	c-0.3,0.3-0.5,0.5-0.8,0.9l-3.4,5.4c-0.6,0.9-1,1.4-1.8,2.1c-0.6,0.5-0.9,0.8-1.6,1.3l4.3-0.1c0.9,0,1.4-0.1,2.2-0.5
	c0.9-0.4,1.4-0.8,1.9-1.6l5.9-9.1c-1-0.9-1.5-1.6-1.9-2.9c-0.4-1-0.4-1.7-0.3-2.8c0-0.9,0.2-1.4,0.4-2.3c0.2-0.8,0.5-1.2,0.7-2.1
	c0.1-0.7,0.2-1.1,0.2-1.7c0-0.5,0-0.8-0.1-1.4l1.5,1.2c0.4,0.3,0.5,0.6,0.7,1c0.2,0.5,0.3,0.9,0.2,1.5c0,0.6-0.2,0.9-0.3,1.5
	c-0.2,0.9-0.5,1.4-0.6,2.4s-0.1,1.6,0.2,2.6c0.4,1.1,0.8,1.5,1.6,2.4c1.1,1.1,1.9,1.6,3.3,2.2v-10.6h2.3v10.6c0,0.6,0.2,0.9,0.5,1.4
	c0.4,0.5,0.7,0.7,1.3,0.9l4,2c1.1,0.5,1.9,0.5,3.1,0.5c1-0.1,1.5-0.2,2.4-0.6l2.9-1.1c-0.7,0.1-1.2,0.1-1.8-0.1
	c-0.8-0.2-1.1-0.6-1.8-0.9l-7.3-3.9c0.9-0.7,1.3-1.5,1.6-2.6c0.3-1,0.3-1.6,0.2-2.6s-0.4-1.5-0.6-2.4c-0.1-0.6-0.3-0.9-0.3-1.5
	s0-0.9,0.2-1.5c0.2-0.5,0.3-0.7,0.7-1l1.5-1.2c-0.1,0.5-0.1,0.9-0.1,1.4c0,0.7,0.1,1.1,0.2,1.7c0.2,0.8,0.5,1.2,0.7,2.1
	c0.2,0.9,0.3,1.4,0.3,2.3c0,1.8-0.3,2.8-1,4.4l7.5,4.1c0.8,0.4,1.2,0.6,2.1,0.7c0.8,0.1,1.3,0.1,2.1-0.3l3.8-1.6
	c-0.7,0.1-1.1,0.1-1.8-0.1c-0.8-0.2-1.1-0.6-1.8-1l-7.1-3.9c0,0-0.4,0-0.9-0.2c0.5-1.4,0.5-2.4,0.7-3.9c0.1-1.1,0.3-1.8,0-2.9
	l-0.8-3.5c-0.1-0.5-0.2-0.8-0.1-1.4c0-0.7,0-1.2,0.5-1.6l1.8-1.8c-0.2,0.7-0.2,1.1-0.2,1.8c0,0.5,0.1,0.8,0.2,1.4
	c0.2,1.1,0.5,1.6,0.8,2.7c0.2,1,0.4,1.6,0.5,2.6c0.1,0.9,0.1,1.4,0,2.3c-0.1,1.1-0.6,2.6-0.6,2.6l8.5,4.6c0.8,0.4,1.2,0.6,2.1,0.7
	c0.8,0.1,1.3,0.1,2.1-0.3l3.8-1.6c-0.7,0.1-1.1,0.1-1.8-0.1c-0.8-0.2-1.1-0.6-1.8-0.9l-7.1-3.9c-0.4-0.2-0.7-0.3-1.2-0.5
	s-0.8-0.3-1.3-0.5c0.3-0.5,0.4-0.8,0.6-1.4c0.3-0.8,0.4-1.2,0.6-2.1c0.3-1.9,0.1-3.1-0.2-4.9c-0.4-1.9-1.3-2.9-1.6-4.8
	c-0.2-0.6-0.3-0.9-0.2-1.5c0-0.6,0-1,0.3-1.4l1.7-2.2c-0.1,0.6-0.1,0.9-0.1,1.5c0,0.4,0,0.7,0.1,1.1c0.2,0.9,0.6,1.3,0.9,2.2
	c0.5,1.5,0.8,2.3,1.2,3.8c0.7-0.7,1.1-1.1,1.6-2c0.5-0.8,0.8-1.2,1-2.1c0.2-0.7,0.3-1.2,0.2-2c0-0.8-0.1-1.3-0.5-1.9l-1.4-2.4
	c-0.3-0.4-0.3-0.7-0.3-1.2c-0.1-0.7,0-1.1,0.3-1.7l1.4-2c-0.1,0.5-0.2,0.8-0.1,1.3c0,0.4,0.1,0.6,0.2,0.9l0.8,1.7l1,1.5
	c0.6-0.3,0.9-0.6,1.3-1.1c0.4-0.5,0.6-0.8,0.8-1.4c0.4-1.1,0.5-1.8,0.3-3c-0.2-1-0.4-1.5-0.9-2.4c-0.4-0.7-0.8-1-1.3-1.6
	c-0.3-0.4-0.6-0.6-0.7-1.2c-0.1-0.4,0-0.7,0.1-1.2l0.8-2.2c0.1,0.6,0.3,0.9,0.6,1.4c0.3,0.4,0.5,0.5,0.8,0.9
	c0.6,0.7,1.1,1.1,1.6,1.8c0.5,0.8,0.9,1.3,1.2,2.2c0.3,1,0.3,1.6,0.3,2.7c0,1.8-0.2,2.9-1,4.5c-0.5,1-1,1.5-1.8,2.3
	c-0.4,0.4-0.7,0.6-1.2,0.9c0.2,1,0.2,1.5,0,2.5c-0.2,1.2-0.5,1.8-1.1,2.9c-1,1.9-2.6,3.1-3.6,4.1c0,0,0.1,1.5,0,2.5
	c-0.1,1.3-0.3,2-0.8,3.2l9.7,5.2c0.8,0.4,1.2,0.6,2.1,0.7c0.8,0.1,1.3,0.1,2.1-0.3l3.8-1.6c-0.7,0.1-1.2,0.1-1.8-0.1
	c-0.8-0.2-1.1-0.5-1.8-0.9l-7.2-3.9c-0.4-0.2-0.7-0.3-1.1-0.5c-0.5-0.2-0.8-0.3-1.3-0.5c0.9-0.3,1.5-0.4,2.4-0.5
	c1.2-0.1,1.9,0.1,3,0.4c0.7,0.2,1.1,0.4,1.7,0.7l5.6,3c0.8,0.4,1.2,0.6,2.1,0.7c0.8,0.1,1.4,0.1,2.1-0.3l4.6-2.1
	c-0.8,0.1-1.2,0.2-1.8-0.1c-0.7-0.4-1-0.9-1.3-1.6c-0.7-1.8,0.7-3.6,2.3-4.4c6.5-3.1,9.9-4.4,16.1-7.4c9.2-4.4,13.9-8.1,23.4-11.8
	c5.1-2,7.9-4.5,13.4-4.5c3.4,0,5.7-0.1,8.6,1.8c1.4,0.9,2.2,1.5,3.2,2.9c0.9,1.4,1.1,2.5,1.4,4.1c0.3,1.7,0,2.7-0.1,4.4
	c-0.1,4.1,0,9,3.4,12.9c1.7,2,3.1,2.8,5.4,4.1c2,1.1,3.1,1.6,5,2.7c0.9,0.5,2.1,2,2.3,2.7c0.3,0.8,0.2,1.4,0,2.2
	c1.6,0,2.5-0.1,4-0.7c2.2-0.9,3.5-1.8,4.8-3.8h6.2c0.6,1,0.8,1.8,0.8,3c0,1.4,0,2.4-0.9,3.4c-1,1-1.8,1-3,1.1
	c-2.5,0.1-3.6-0.6-6-0.4c-1.9,0.2-3.1,0.2-4.8,1.1c-2.2,1.2-3.2,2.5-4,4.8c-0.5,1.5-0.7,2.5-0.5,4.2c-0.9,0.6-1.3,1-1.8,1.9
	c-1,1.8-1,3.5,0,5.3c1-1.1,1.6-1.7,2.9-2.5c1-0.7,1.9-1,3.3-1.2c0.3-3.1,1.6-5.2,4.3-6.8c1.4-0.8,2.3-1.1,3.9-1.2
	c-1.8,0.8-2.7,1.6-3.9,3.2c-1.8,2.3-2.7,4.1-2.5,7c-0.6,0.9-0.9,1.6-0.8,2.7c0.1,1.1,0.4,1.9,1.2,2.6c1.9-2.1,2.5-2.7,4.6-3.7
	c0.8-0.4,1.4-0.6,2.3-0.8c1,0.3,1.7,0.4,2.8,0.3c0.7-0.1,1.5-0.4,1.8-0.4c-0.7-2.5-1.3-4.8,0.4-6.8c1.7-2.1,3.3-2.8,5.9-2.6
	c-1.6,0.5-2.7,1-3.6,2.3c-0.9,1.3-1.2,2.3-1.1,3.9c0.2,1.7,0.8,2.9,2.3,3.8c-0.1,0.9,0,1.4,0.4,2.2c0.3,0.8,0.7,1.3,1.4,1.9
	c0.2-1.2,0.6-1.9,1.5-2.8c0.6-0.6,1-0.9,1.8-1.3c1.3-0.6,2.2-0.2,3.6-0.5c2.3-0.4,4-0.2,5.7-1.7c1.3-1.2,2-2.1,2.2-3.8
	c0.3-2.2-0.3-3.9-2-5.4c0.9-1.5,1.2-2.6,1.2-4.3c0.1-1.7-0.1-2.8-0.9-4.2h3.5c0.7,0,0.9,0.1,1.9,0.3
	C327.5,141.6,328.3,142.5,328.8,143.3z M176.7,106c-0.4-0.8-0.5-1.3-0.5-2.2c0-0.8,0.2-1.3,0.4-2.1c0.3-0.8,0.5-1.3,1-2.1
	c0,0.6,0,0.9,0.1,1.4c0.2,0.8,0.5,1.3,0.9,2s0.8,1,1.1,1.7c0.5,0.9,0.9,1.5,0.9,2.6s-0.4,1.7-0.8,2.7c-0.3,0.7-0.6,1.1-1,1.7
	c0.2-0.8,0.2-1.3,0-2.1c-0.2-0.9-0.5-1.3-1-2.1C177.4,107,177,106.6,176.7,106z M143.8,113.2c0-0.6,0-1,0.2-1.5l0.7-1.5
	c0.2-0.4,0.2-0.7,0.3-1.2c0.1-0.4,0.1-0.6,0.1-1l1.4,1.7c0.2,0.3,0.3,0.5,0.3,0.9c0,0.5-0.2,0.7-0.3,1.2c-0.2,0.6-0.5,0.9-0.5,1.5
	c0,0.5,0,0.9,0.3,1.3l1.5,1.8c0.2,0.3,0.6,0.3,0.9,0.2c0.5-0.1,0.6-0.6,0.8-1.1s0.2-0.9,0-1.4l1.3,1.5c0.3,0.4,0.3,0.7,0.3,1.1
	c0.1,0.4,0.1,0.6,0,0.9l-0.5,1.6c-0.1,0.4-0.1,0.6,0,1s0.2,0.7,0.5,1c0.3,0.4,0.6,0.6,1,0.8c0.3,0.1,0.5,0.2,0.8,0.1
	s0.4-0.4,0.5-0.8l0.4-1.8c0-0.3-0.1-0.4-0.2-0.7c-0.1-0.4-0.3-0.5-0.5-0.8l2,1.2c0.4,0.3,0.5,0.7,0.6,1.2s0.1,0.8,0,1.3l-0.2,2
	c-0.1,0.5,0.1,0.8,0.3,1.3c0.3,0.5,0.7,0.6,1.3,0.9c0.7,0.3,1.1,0.5,1.8,0.6v-5.8h2.3v5.8c0.7-0.1,1.1-0.2,1.8-0.6
	c0.5-0.3,0.9-0.4,1.3-0.9c0.3-0.4,0.4-0.8,0.3-1.3l-0.2-2c-0.1-0.5-0.1-0.8,0-1.3s0.2-0.9,0.6-1.2l2-1.2c-0.2,0.3-0.3,0.5-0.5,0.8
	c-0.1,0.3-0.3,0.4-0.2,0.7l0.4,1.8c0.1,0.4,0.1,0.7,0.5,0.8c0.3,0.1,0.5,0,0.8-0.1c0.5-0.2,0.7-0.4,1-0.8c0.3-0.4,0.4-0.6,0.5-1
	s0.1-0.7,0-1l-0.5-1.6c-0.1-0.3,0-0.6,0-0.9c0.1-0.5,0.1-0.8,0.3-1.1l1.3-1.5c-0.2,0.5-0.2,0.9,0,1.4s0.3,0.9,0.8,1.1
	c0.4,0.1,0.7,0,0.9-0.2l1.5-1.8c0.3-0.4,0.3-0.8,0.3-1.3c0-0.6-0.3-0.9-0.5-1.5c-0.1-0.5-0.4-0.7-0.4-1.2c0-0.4,0.1-0.6,0.4-0.9
	l1.4-1.7c0,0.4,0,0.6,0.1,1c0.1,0.5,0.2,0.7,0.4,1.2l0.7,1.5c0.2,0.6,0.2,0.9,0.2,1.5s0,0.9-0.1,1.5c-0.2,0.7-0.6,1-1,1.6
	c-0.6,0.8-0.9,1.3-1.6,2c-0.8,0.7-1.2,1.1-2.1,1.6c0.1,0.6,0.1,0.9-0.1,1.5c-0.2,0.8-0.5,1.2-1,1.7c-0.5,0.6-1,0.8-1.6,1.2
	c-0.6,0.3-1,0.4-1.6,0.6c-0.1,0.6-0.2,0.9-0.6,1.4c-0.3,0.5-0.6,0.7-1,1c-0.8,0.7-1.3,1-2.3,1.4c-1.2,0.5-1.9,0.7-3.1,0.7
	c-1.3,0-2-0.2-3.1-0.7c-1-0.4-1.5-0.7-2.3-1.4c-0.4-0.4-0.7-0.5-1-1s-0.5-0.8-0.6-1.4c-0.7-0.1-1-0.3-1.6-0.6
	c-0.7-0.4-1.1-0.6-1.7-1.2c-0.5-0.6-0.8-1-1-1.7c-0.2-0.6-0.2-0.9-0.1-1.5c-0.9-0.5-1.4-0.9-2.1-1.6s-1-1.2-1.6-2
	c-0.4-0.6-0.8-0.9-1-1.6C143.8,114.1,143.8,113.8,143.8,113.2z M139.4,107.5c0-1.1,0.4-1.6,0.9-2.6c0.4-0.7,0.8-1,1.1-1.7
	c0.4-0.8,0.7-1.2,0.9-2c0.1-0.5,0.1-0.9,0.1-1.4c0.5,0.7,0.8,1.2,1.1,2.1c0.3,0.8,0.4,1.3,0.4,2.1c0,0.9-0.2,1.4-0.5,2.2
	c-0.3,0.7-0.8,1-1.2,1.7c-0.4,0.8-0.8,1.2-0.9,2.1c-0.2,0.8-0.2,1.3,0,2.1c-0.5-0.6-0.7-1-1.1-1.7
	C139.8,109.1,139.4,108.5,139.4,107.5z M140.3,93c0.4-0.5,0.5-0.9,0.5-1.6c0.1-0.5,0.1-0.8-0.1-1.3c0.6,0.4,0.9,0.8,1.2,1.4
	c0.5,0.9,0.8,1.6,0.7,2.7c-0.1,0.9-0.4,1.4-0.9,2.1l-1.9,2.7c-0.2,0.4-0.4,0.5-0.6,0.9c-0.4,0.6-0.5,1-0.8,1.7
	c-0.2,0.6-0.4,0.9-0.6,1.5c-0.1-0.8-0.2-1.3-0.3-2.1c-0.2-0.8-0.4-1.2-0.5-2c0-1.2,0.1-1.9,0.8-2.9L140.3,93z M148.3,76.2h8.1
	c0.4,0,0.7,0.2,1,0.6c0.5,0.5,0.3,1.2,0.3,1.8l-0.1,0.6c-0.4-0.4-0.7-0.7-1.3-0.7h-2.5c0.6,0.6,1.1,1.1,1.1,2c0,1.2-1,2.2-2.2,2.2
	s-2.2-1-2.2-2.2c0-0.6,0.2-1.2,0.7-1.6l0.4-0.4h-3c-1,0-1.5-0.5-2.2-1.2s-1-1.4-1-2.3C146.1,75.8,147.2,76.2,148.3,76.2z
	 M153.6,65.3l2.8,3.7c0.2,0.2,0.2,0.5,0.5,0.7c0.3,0.3,0.5,0.4,0.9,0.5h-2.3c-0.7,0-1.1-0.1-1.7-0.5c-0.6-0.3-0.8-0.7-1.3-1.3
	l-2.3-3c-0.2-0.3-0.3-0.5-0.6-0.7c-0.3-0.3-0.5-0.4-0.8-0.6h2.7c0.5,0,0.7,0.1,1.1,0.4C153.1,64.8,153.3,65,153.6,65.3z M164,69.2
	c0.2,0.3,0.3,0.5,0.6,0.7c0.4,0.4,0.7,0.6,1.2,0.8h-3.1c-0.7,0-1.2-0.1-1.8-0.6c-0.5-0.3-0.6-0.7-0.9-1.2l-2.8-4.3
	c-0.3-0.4-0.4-0.7-0.8-1.1c-0.5-0.5-0.9-0.7-1.6-0.9h2.9c0.7,0,1.1,0.2,1.7,0.6c0.5,0.3,0.8,0.6,1.1,1.1L164,69.2z M172.1,70.1h-2.3
	c-0.7,0-1.1-0.1-1.7-0.5c-0.6-0.3-0.8-0.7-1.3-1.3l-2.3-3c-0.2-0.3-0.3-0.5-0.6-0.7c-0.3-0.3-0.5-0.4-0.8-0.6h2.7
	c0.5,0,0.8,0.1,1.2,0.4c0.4,0.2,0.6,0.4,0.9,0.8l2.8,3.7c0.2,0.2,0.2,0.5,0.5,0.7C171.5,70,171.7,70,172.1,70.1z M174.7,75
	c0,0.9-0.3,1.5-1,2.3s-1.3,1.2-2.2,1.2h-3c0.6,0.6,1.1,1.1,1.1,2c0,1.2-1,2.2-2.2,2.2s-2.2-1-2.2-2.2c0-0.6,0.3-1.2,0.7-1.6l0.4-0.4
	h-2.5c-0.6,0-0.9,0.3-1.4,0.8v-0.6c0-0.4,0-0.7,0-1c0.1-0.7,0.7-1.4,1.4-1.4h8.1C172.8,76.2,174,75.8,174.7,75z M181,80.3
	c0.3,5.1-2.8,10.3-8.3,11c-0.3,3.1-1.8,4.9-4.6,5.9c0.2,2.7,0.1,5.2-0.3,7.8v0.1c0.6,1.4,1,3.2,1,4.8c0,3-2.5,4.9-5.6,4.8
	c-0.9-0.1-1.9-0.3-3.1-0.3c-3.2,0-4.4,1.1-7.3-1.2c-1.1-0.9-1.4-1.9-1.4-3.3c0-1.6,0.3-3.4,0.9-4.9c-0.5-2.7-0.5-5.1-0.3-7.8
	c-2.8-1-4.3-2.9-4.7-5.9c-5.5-0.8-8.6-5.9-8.3-11c0.4-1.6,1-3.1,2.4-4.1v4.7c0,4.2,2.4,8.1,7.1,8h0.8c-0.6,7.7,10.2,8.4,9.5,1.9
	c-1.4-0.6-2.4-1.6-2.5-3.2h7.4c-0.2,1.6-1.2,2.6-2.6,3.2c-0.7,6.5,10,5.7,9.5-1.9h0.8c4.7,0.1,7.1-3.8,7.1-8v-4.7
	C180,77.2,180.6,78.6,181,80.3z M183,99c0,0.8-0.3,1.2-0.5,2s-0.2,1.3-0.3,2.1c-0.2-0.6-0.3-0.9-0.6-1.5c-0.3-0.7-0.4-1.1-0.8-1.7
	c-0.2-0.4-0.4-0.6-0.6-0.9l-1.9-2.7c-0.5-0.7-0.8-1.2-0.9-2.1c-0.1-1.1,0.2-1.7,0.7-2.7c0.4-0.6,0.7-0.9,1.2-1.4
	c-0.1,0.5-0.1,0.8-0.1,1.3c0.1,0.6,0.2,1.1,0.5,1.6l2.4,3.3C182.9,97.1,183.1,98,183,99z M300.9,129.2h-8.7c-3.4,0-4.9-1-7.2-3.6
	c-0.8-0.9-1.2-1.5-1.7-2.4c1.8,1.6,4.2,2.4,6.6,2.4c2,0,4.1-0.1,6.1,0.1c1.5,0.1,3,0.8,3.9,1.9C300.4,128.1,300.7,128.5,300.9,129.2
	z M166.2,110.3c1-2.8-4.6-2.8-6.2-2.8c-1,0-1.9,0.1-2.9,0.2c-1.3,0.2-3.9,0.6-3.2,2.6c0.5,1.5,2,1.6,3.4,1.9c1,0.2,1.8,0,2.8,0
	s1.8,0.3,2.8,0.1C164.2,112,165.7,111.8,166.2,110.3z M165.1,105.6c0.4-2.2,0.6-4.4,0.6-6.6v-0.9l-2.3,2.7c-0.2-0.3-0.3-0.7-0.5-1.2
	s-0.6-1.7-1.2-1.9c-0.7,0.4-0.8,0.3-1.6,0.3c-0.7,0-0.9,0-1.5-0.3h-0.1c-0.5,0.1-1.5,2.6-1.7,3l-2.3-2.7c0,2.5,0.1,5,0.6,7.5
	c1.7-0.4,3.4-0.4,5-0.4C161.8,105.1,163.4,105.1,165.1,105.6z M276,72c0,0-0.2-0.6-0.2-1s0.1-1.1,0.1-1.1
	c-6.5,1.6-10.1,2.5-16.5,4.4c-6.7,1.9-10.4,3.3-17.2,5.3c-6.5,1.9-10.2,3.4-16.8,4.8c-3.4,0.7-5.6,1.3-8.9,1.3c-3.6,0-5.2,0-7.1-1
	c-2.2-1.1-3.9-2.2-4.3-4.6c-0.2-1.1-0.3-2,0.3-2.9c0.6-0.8,1.3-1.2,2.3-1.3c1.3,0,2.4,0.6,2.8,1.8c0.4,1.1,0.1,2.1-0.8,2.9
	c1.2,0.1,1.9,0.1,3.1,0c1.8-0.2,3.1-0.1,4.5-1.3c1.1-1,1.6-1.9,1.7-3.4c0-1.8-0.7-2.9-2.2-3.9c-0.9-0.6-1.6-0.9-2.8-0.9
	c1.7-0.6,2.9-0.5,4.5,0.3c0.8,0.4,1.3,0.8,1.8,1.5c0.9,1.3,1.2,2.5,0.7,4.1c3.3,0.4,5.3,0.3,8.4-0.7c3.5-1.1,5.4-2.5,8.1-5.1
	c2.8-2.6,4.2-4.5,5.9-8c-2.7,1.4-4.4,2-7.4,2.7c-7.6,1.8-13.4-1.4-19.9-1.8c-3.8-0.3-8.3,0.6-11.7,1.9c-4.1,1.6-6.8,3.4-8.5,7.4
	c-1.6,3.6-1.8,6.4-0.3,10.1c1.3,3.4,3.4,5.2,6.3,6.8c4.2,2.5,6.8,2.6,11.7,3c6.9,0.5,10.5-0.6,17.1-2c6.1-1.3,9.3-2.8,15.3-4.4
	c6.5-1.8,10.2-2.8,16.8-4.4c2.3-2.6,3.8-3.9,6.5-6C271.6,74.3,273.2,73.5,276,72z M189.7,387.8c-0.9,1-1.4,1.8-1.5,3.1
	c-0.1,1.2,0.1,1.9,0.7,2.9c1-1.1,1.7-1.6,3-2.3c1.2-0.8,2-1.1,3.4-1.5c0.5-1.4,0.9-2.2,1.8-3.3c0.7-0.9,1.2-1.4,2.2-2
	c1.5-0.9,2.6-1.1,4.3-1c-1.4,0.6-2.2,1.1-3.3,2.1c-1.6,1.4-2.3,2.6-3,4.6c-0.7,0.3-1.1,0.5-1.6,1c-0.9,0.8-1.2,1.5-1.5,2.7
	c-0.4,1.6-0.3,2.8,0.6,4.2c1.2-1.3,2-2,3.6-2.9c1.2-0.7,2-1,3.3-1.4c0.3-1.8,0.9-2.9,2.1-4.3c1.7-1.9,3.2-2.8,5.8-3.1
	c-1.5,0.6-2.3,1.2-3.3,2.4c-1.8,2-2.2,3.8-2.3,6.5c-0.1,1.6,0.1,2.5,0.5,4c0.8-1.2,1.4-1.8,2.6-2.6c0.9-0.5,1.5-0.9,2.5-1
	c0.9-0.1,1.4,0.1,2.3,0.1c1.2,0,1.8,0.1,3,0.1c1.9,0.2,3.2-0.3,4.7-1.6c1.4-1.3,2-2.6,2-4.5c-0.1-0.6-0.2-0.9-0.4-1.5
	s-0.3-0.9-0.7-1.3c0.9,0.1,1.5,0.4,2.2,1.1c0.7,0.8,0.9,1.5,0.9,2.6c0,1-0.2,1.6-0.7,2.4c2.2,0.4,3.7,0.2,5.7-0.7
	c1.8-0.9,2.8-1.7,3.8-3.5c0.6-1,0.8-1.7,1-2.9c1.6-0.9,2.4-1.5,3.8-2.7c1-0.9,1.6-1.5,2.5-2.6l1.1,3.8c0.2,0.8,0.2,1.4,0.2,2.2
	c0,0.7-0.1,1.1-0.3,1.8l3.3-3.8c0.6-0.7,0.9-1.2,1.1-2.1c0.2-0.7,0.2-1.1,0.1-1.8l-1.6-6.3c-0.2-0.8-0.1-1.4,0.1-2.2
	c0.2-0.7,0.4-1.1,0.9-1.7l1.5-1.6c-0.2,0.5-0.2,0.7-0.2,1.1c-0.1,0.6-0.2,0.9,0,1.4l1.5,5.5c0.2,0.7,0.2,1.1,0.2,1.9
	s-0.1,1.3-0.3,2.1l3.3-3.8c0.6-0.7,0.9-1.2,1.1-2.1c0.2-0.7,0.2-1.1,0.1-1.8l-1.5-6.3c-0.2-0.8-0.2-1.4,0.1-2.2
	c0.2-0.7,0.4-1.1,0.9-1.7l1.5-1.7c-0.2,0.5-0.2,0.7-0.2,1.1c-0.1,0.5-0.2,0.9,0,1.4l1.5,5.6c0.2,0.8,0.2,1.2,0.2,2s-0.1,1.2-0.3,2
	l2.9-3.3c0.5-0.6,0.7-1.1,0.9-1.9c0.2-0.8,0.1-1.2,0.1-2l-0.2-1.9c0,0-0.2-1.6,0.1-2.5c0.4-1.4,1.2-1.9,2.1-3c1.5-1.8,2.8-2.5,4.6-4
	c2.4-2,3.8-3.2,6.3-5.1c0.3-1.8,0.1-3-0.7-4.7c-0.6-1.2-1.1-1.8-2.2-2.6c-0.7-0.5-1.2-0.8-2-1.1s-1.2-0.4-2.1-0.7
	c-2.3-0.5-4-0.7-6.5-0.2c-1.1,0.2-1.9,0.4-2.8,0.7c0,0-1.4,0.6-2.2,1.1c0.3,0.9,0.3,1.5,0.2,2.4c-0.2,1.1-0.5,1.6-1.3,2.4
	c-1.1,1.1-2.1,1-3.6,1.5c-2.4,0.8-4,0.4-6.5,0.9s-4.1,0.4-6.4,1.5c-4.5,2-6.4,4.8-8.9,9c-2,3.5-2.3,5.9-4.8,8.9
	c-0.6,0.7-0.9,1-1.5,1.7c1.5-0.3,2.4-0.4,3.9-0.6c2.4-0.2,3.7-0.3,6.1-0.2c-1.1,0.4-1.7,0.6-2.8,1.2c-0.7,0.4-1,0.6-1.7,1.1
	c-0.7,2.2-1.6,3.5-3.5,4.9c-2,1.5-3.5,1.9-6,2c-2.2,0.1-3.4-0.8-5.5-1.3c-2.5-0.6-3.8-1.5-6.3-1.5c-1.7,0.1-2.7,0.3-4.2,0.9
	c-2,0.9-3.1,1.7-4.4,3.5s-1.9,3.1-2.2,5.3C191.3,386.2,190.6,386.6,189.7,387.8z M241.2,362.1c0.9-2.5,2.3-3.7,4.5-5.2
	c1.8-1.2,3-1.5,5-2.1c1.5-0.5,2.5-0.4,4-0.8c1.8-0.5,2.8-0.9,4.4-1.8c-1.3,1.5-2.2,2.3-3.8,3.5c-2.5,1.8-4.8,1.9-7.2,3.6
	c-3.7,2.6-5.4,4.9-7.2,9.1C240.3,366,240.4,364.5,241.2,362.1z"/>
<polygon class="st0" points="577,127.8 548.6,206.8 520.3,127.8 510.4,127.8 544.5,219.5 552.8,219.5 586.6,128.8 587,127.8 "/>
<path class="st0" d="M627.1,187.1h-29.6v24.2h34.4v7.4h-43.4v-68.2h42.9v7.4h-33.9v22h29.6V187.1z"/>
<path class="st0" d="M681.7,187.1h-29.6v24.2h34.4v7.4h-43.4v-68.2H686v7.4h-33.9v22h29.6V187.1z"/>
<path class="st0" d="M722.7,191h-16v27.6h-9v-68.2h22.6c7.7,0,13.6,1.8,17.7,5.2c4.1,3.5,6.2,8.6,6.2,15.3c0,4.2-1.1,8-3.4,11.1
	c-2.3,3.2-5.5,5.5-9.6,7.1l16,29v0.6h-9.7L722.7,191z M706.6,183.8h13.8c4.5,0,8-1.2,10.7-3.5s4-5.4,4-9.3c0-4.2-1.3-7.5-3.8-9.7
	c-2.5-2.3-6.1-3.4-10.9-3.4h-13.8V183.8z"/>
<path class="st0" d="M794.4,200.8h-28.6l-6.4,17.9h-9.3l26.1-68.2h7.9l26.1,68.2H801L794.4,200.8z M768.6,193.5h23.2l-11.6-31.9
	L768.6,193.5z"/>
<g>
	<path class="st0" d="M520.8,341.2v-92.4h27.3c8.2,0,15.4,1.8,21.7,5.5c6.3,3.6,11.2,8.8,14.7,15.5s5.2,14.3,5.2,23v4.6
		c0,8.8-1.7,16.5-5.2,23.1s-8.5,11.8-14.9,15.4c-6.5,3.6-13.8,5.4-22.2,5.4L520.8,341.2L520.8,341.2z M536.9,261.8v66.7h10.5
		c8.4,0,14.9-2.6,19.4-7.9c4.5-5.3,6.8-12.8,6.9-22.7v-5.1c0-10-2.2-17.7-6.5-23c-4.4-5.3-10.7-7.9-19-7.9L536.9,261.8L536.9,261.8z
		"/>
	<path class="st0" d="M616.3,341.2H603v-64.7h13.3V341.2z"/>
	<path class="st0" d="M662.2,324.3c0-2.5-0.9-4.5-2.7-5.8s-5-2.8-9.6-4.3s-8.3-3-11-4.4c-7.3-4-11-9.3-11-16c0-3.5,1-6.6,3-9.4
		c2-2.7,4.8-4.9,8.5-6.4s7.8-2.3,12.4-2.3c4.6,0,8.7,0.8,12.4,2.5c3.6,1.7,6.4,4,8.4,7.1s3,6.5,3,10.4h-13.3c0-3-0.9-5.3-2.8-6.9
		c-1.9-1.6-4.5-2.5-7.9-2.5c-3.3,0-5.8,0.7-7.6,2.1c-1.8,1.4-2.7,3.2-2.7,5.4c0,2.1,1.1,3.9,3.2,5.3s5.2,2.8,9.4,4
		c7.6,2.3,13.1,5.1,16.6,8.5s5.2,7.6,5.2,12.6c0,5.6-2.1,10-6.4,13.2s-9.9,4.8-17.1,4.8c-5,0-9.5-0.9-13.6-2.7s-7.2-4.3-9.4-7.5
		c-2.1-3.2-3.2-6.8-3.2-11h13.4c0,7.1,4.3,10.7,12.8,10.7c3.2,0,5.6-0.6,7.4-1.9C661.3,328.5,662.2,326.6,662.2,324.3z"/>
	<path class="st0" d="M721.1,328h-23.4l-4.4,13.3h-14.2l24.1-64.7h12.4l24.2,64.7h-14.2L721.1,328z M701.4,317.1h16.2l-8.1-24.2
		L701.4,317.1z"/>
	<path class="st0" d="M760,341.2h-13.3v-64.7H760V341.2z"/>
	<path class="st0" d="M825,341.2h-13.3l-25.9-42.6v42.6h-13.3v-64.7h13.3l26,42.7v-42.7h13.3v64.7H825z"/>
	<path class="st0" d="M850.8,341.2h-13.3v-64.7h13.3V341.2z"/>
	<path class="st0" d="M896.7,324.3c0-2.5-0.9-4.5-2.7-5.8s-5-2.8-9.6-4.3s-8.3-3-11-4.4c-7.3-4-11-9.3-11-16c0-3.5,1-6.6,3-9.4
		c2-2.7,4.8-4.9,8.5-6.4s7.8-2.3,12.4-2.3c4.6,0,8.7,0.8,12.4,2.5c3.6,1.7,6.4,4,8.4,7.1s3,6.5,3,10.4h-13.3c0-3-0.9-5.3-2.8-6.9
		c-1.9-1.6-4.5-2.5-7.9-2.5c-3.3,0-5.8,0.7-7.6,2.1c-1.8,1.4-2.7,3.2-2.7,5.4c0,2.1,1.1,3.9,3.2,5.3s5.2,2.8,9.4,4
		c7.6,2.3,13.1,5.1,16.6,8.5s5.2,7.6,5.2,12.6c0,5.6-2.1,10-6.4,13.2s-9.9,4.8-17.1,4.8c-5,0-9.5-0.9-13.6-2.7s-7.2-4.3-9.4-7.5
		c-2.1-3.2-3.2-6.8-3.2-11h13.4c0,7.1,4.3,10.7,12.8,10.7c3.2,0,5.6-0.6,7.4-1.9C895.8,328.5,896.7,326.6,896.7,324.3z"/>
	<path class="st0" d="M968.1,276.5v42.6c0,7.1-2.2,12.7-6.6,16.8c-4.4,4.1-10.5,6.2-18.2,6.2c-7.6,0-13.6-2-18-6s-6.7-9.5-6.8-16.5
		v-43.1h13.3v42.7c0,4.2,1,7.3,3,9.3c2,1.9,4.8,2.9,8.4,2.9c7.5,0,11.3-3.9,11.4-11.8v-43.1H968.1z M938.4,266.8
		c0,1.6-0.6,2.9-1.7,4c-1.2,1.1-2.6,1.6-4.4,1.6c-1.8,0-3.3-0.5-4.4-1.6c-1.1-1.1-1.7-2.4-1.7-4s0.6-2.9,1.7-4
		c1.1-1.1,2.6-1.7,4.4-1.7c1.8,0,3.3,0.6,4.5,1.7C937.8,264,938.4,265.2,938.4,266.8z M947.7,266.8c0-1.6,0.6-3,1.8-4
		c1.2-1.1,2.7-1.6,4.4-1.6s3.2,0.5,4.4,1.7c1.2,1.1,1.8,2.4,1.8,4c0,1.5-0.6,2.9-1.7,4c-1.1,1.1-2.6,1.7-4.4,1.7
		c-1.8,0-3.3-0.6-4.5-1.7C948.3,269.8,947.7,268.3,947.7,266.8z"/>
	<path class="st0" d="M1012.5,324.3c0-2.5-0.9-4.5-2.7-5.8s-5-2.8-9.6-4.3s-8.3-3-11-4.4c-7.3-4-11-9.3-11-16c0-3.5,1-6.6,3-9.4
		c2-2.7,4.8-4.9,8.5-6.4s7.8-2.3,12.4-2.3c4.6,0,8.7,0.8,12.4,2.5c3.6,1.7,6.4,4,8.4,7.1c2,3.1,3,6.5,3,10.4h-13.3
		c0-3-0.9-5.3-2.8-6.9c-1.9-1.6-4.5-2.5-7.9-2.5c-3.3,0-5.8,0.7-7.6,2.1c-1.8,1.4-2.7,3.2-2.7,5.4c0,2.1,1.1,3.9,3.2,5.3
		s5.2,2.8,9.4,4c7.6,2.3,13.1,5.1,16.6,8.5c3.5,3.4,5.2,7.6,5.2,12.6c0,5.6-2.1,10-6.4,13.2s-9.9,4.8-17.1,4.8
		c-5,0-9.5-0.9-13.6-2.7s-7.2-4.3-9.4-7.5c-2.1-3.2-3.2-6.8-3.2-11h13.4c0,7.1,4.3,10.7,12.8,10.7c3.2,0,5.6-0.6,7.4-1.9
		C1011.6,328.5,1012.5,326.6,1012.5,324.3z"/>
	<path class="st0" d="M1083.6,287.3h-19.8v53.9h-13.3v-53.9h-19.6v-10.8h52.7L1083.6,287.3L1083.6,287.3z"/>
	<path class="st0" d="M1130.2,313.2h-25.6v17.3h30v10.7h-43.4v-64.7h43.3v10.8h-29.9v15.4h25.6V313.2z"/>
	<path class="st0" d="M1181.3,313.2h-25.6v17.3h30v10.7h-43.4v-64.7h43.3v10.8h-29.9v15.4h25.6V313.2z"/>
	<path class="st0" d="M1211,276.5l16.6,46.9l16.5-46.9h17.5v64.7h-13.4v-17.7l1.3-30.5l-17.5,48.2h-9.2l-17.4-48.2l1.3,30.5v17.7
		h-13.3v-64.7H1211z"/>
</g>
</svg>
