<svg width="11" height="16" viewBox="0 0 11 16" fill="none" xmlns="http://www.w3.org/2000/svg">
    <path fill-rule="evenodd" clip-rule="evenodd" d="M4.74749 0.282843C4.9037 0.126633 5.15696 0.126633 5.31317 0.282843L9.77782 4.74749C9.93403 4.9037 9.93403 5.15696 9.77782 5.31317L9.28284 5.80815C9.12663 5.96436 8.87337 5.96436 8.71716 5.80815L5.03033 2.12132L1.3435 5.80815C1.18729 5.96436 0.934027 5.96436 0.777817 5.80815L0.282843 5.31317C0.126633 5.15696 0.126633 4.9037 0.282843 4.74749L4.74749 0.282843Z" fill="#555867"/>
    <path fill-rule="evenodd" clip-rule="evenodd" d="M5.31318 14.8688C5.15697 15.025 4.90371 15.025 4.7475 14.8688L0.282852 10.4041C0.126642 10.2479 0.126642 9.99465 0.282852 9.83844L0.777826 9.34347C0.934036 9.18726 1.1873 9.18725 1.34351 9.34346L5.03034 13.0303L8.71717 9.34346C8.87338 9.18725 9.12664 9.18725 9.28285 9.34346L9.77783 9.83844C9.93404 9.99465 9.93404 10.2479 9.77783 10.4041L5.31318 14.8688Z" fill="#555867"/>
</svg>
