<svg id="Layer_1" data-name="Layer 1" xmlns="http://www.w3.org/2000/svg" viewBox="0 0 1382 500"><defs><style>.cls-1{fill:#006eb5;}</style></defs><title>veera-logo</title><path class="cls-1" d="M412.5,126.1a18.73,18.73,0,0,0,2-11.8,3.55,3.55,0,0,1-.2-1A55.6,55.6,0,0,0,412,106c-3.4-8.4-14.1-18.5-21.1-24.1C376.6,70.4,366,59.2,358,42.3c-20.4,5.6-32.1,3.6-51.9-1.8C293.3,37,286.4,32.6,273.2,30c-9.7-1.9-16.8-2.9-25.3-2.9a56.06,56.06,0,0,0-33.8,11.7,56.71,56.71,0,0,0-33.8-11.7c-8.5,0-15.5,1-25.3,2.9-13.2,2.6-20.1,7.1-32.9,10.5-19.9,5.4-31.4,7.3-51.9,1.8-7.1,15-13.3,21.5-24.6,32.6-5.4,5-11.6,9-16.6,14.4-7.2,7.7-11.9,11.4-14.9,22.1-2.4,8.5.9,19.1,9.7,22.4,7.2,2.7,14.8,0,16.9-8a9.39,9.39,0,0,0,.1-6.2c5.9,2.7,10.8,8.2,14.2,13.6,8.7,13.9,12.6,25.1,14.8,41.6,1.2,9.1.7,14.4.4,23.6a174.75,174.75,0,0,1-5.4,39.4c-2,8.5-4,16.6-7.5,24.6-8.3,19.5-16,29.7-32.3,43.4L20.4,324c3.3,14.6,5.9,22.6,12,36.2,5.3,11.9,8.6,18.9,16.6,29.4s13.2,16,23.8,23.6c14.2,10.3,24.3,13.3,41,18,13.4,3.8,21.8,4.3,35.6,8,10.4,2.8,16.6,4.1,26.5,8.2,14.5,5.9,27,14.8,38.2,25.6a115,115,0,0,1,15.2-12.7c17.3-12.2,29.5-15.6,49.5-21,13.7-3.7,22.1-4.2,35.6-8,16.6-4.7,26.7-7.8,41-18,10.6-7.6,15.9-13.3,23.8-23.6,8-10.5,11.2-17.5,16.6-29.4,6.1-13.6,8.8-21.6,12-36.2l-4.6-18.2c-26.6-22.3-31.9-38.4-39.8-68-4.3-16.1-7.2-45.7-5-62.9,1.9-14.4,4.2-22.8,11.3-35.4,4.3-7.8,9.3-15.8,17.7-19.7a9.39,9.39,0,0,0,.1,6.2c2.2,7.9,9.8,10.6,17,8C408.4,132.3,410.5,129.9,412.5,126.1Zm-9.2,193.3c-7.7-7.3-12.3-13.2-18.5-23.2a110.31,110.31,0,0,1-6.2-11.7c5.2,7.5,12.1,14.9,21.6,22.9ZM50.2,282.8a116.15,116.15,0,0,1-25.5,36.5l3-11.9C37.7,299.1,44.5,291.8,50.2,282.8Zm-16-178.4c19.1,1.7,29.4,28.1,32.2,43.6l.2,1a100.4,100.4,0,0,0-5.4-11c-5.7-10.2-11.9-19.5-23.8-22.6l-1.3,2.7c2.4,1.9,2.5,4.3,1.8,7.1-1.7,6.2-7.4,8-13,5.9-3.3-1.2-4.9-3-6.7-6.3a15.69,15.69,0,0,1-1.5-10.5C18.8,106.4,26.7,103.7,34.2,104.4Zm373.7.1c-4-2.7-9.2-3.6-14.4-3.2-20.7,1.9-31.8,29-34.9,46-2.1,11.5-3.4,19.8-3.9,31.4-1.3,17.8,1.5,44.6,5.5,59.7,2.2,8,4.1,15.1,6.4,21.6h-.1c2.7,7.6,4.5,13.7,6.7,19.4,6.6,17.3,17.5,32.4,31.2,44.9-4.8,20.9-14.7,46.1-27.8,63.2-7.8,10.2-12.8,15.6-23.2,23-13.8,9.9-23.5,12.9-40,17.6-13.4,3.8-21.8,4.3-35.5,8-10.6,2.9-16.8,4.2-26.9,8.3a119.67,119.67,0,0,0-37,24.2,105.87,105.87,0,0,0-13.5-11c-17.7-12.6-29.9-15.9-50.4-21.5-13.7-3.7-22.1-4.2-35.6-8-16.6-4.7-26.3-7.6-40-17.6-10.3-7.4-15.4-12.8-23.2-23-13-17.1-23-42.3-27.7-63.2,9.8-9,14.9-15.2,22.1-26.7,7.5-12,11.1-24.2,15.8-37.5a89.38,89.38,0,0,0,3.1-9.1,224,224,0,0,0,8.6-52.7c.3-7.8.7-12.9.1-19.7-.4-11.6-1.8-19.9-3.9-31.4-2.6-13.9-10.9-35.1-24.4-42.7-7.4-4.2-17.8-4.9-24.7-.4C24.5,96.8,33.4,88.6,39.1,84,52.5,73.3,64.2,61.3,71.7,45.6c19.4,5.1,32.3,2.6,51.1-2.4,12.7-3.4,19.6-7.9,32.7-10.5,9.5-1.9,16.4-2.8,24.7-2.8a46.9,46.9,0,0,1,18.4,3.5c6.7,2.5,9.8,4.5,15.4,8.9,9.8-7.7,21.1-12.5,33.8-12.5,8.3,0,15.2,1,24.7,2.8,13.1,2.6,20,7.1,32.7,10.5,18.7,5,31.7,7.5,51.1,2.4,6.6,13.6,13.7,21,24.2,31.2,5.2,5.1,11.4,9.1,16.4,14.5C401.6,96.5,405.2,99.7,407.9,104.5Zm3.6,10.4c.7,6.4-2,13.7-8.4,16.1-5.5,2.1-11.3.3-13-5.9-.8-2.8-.7-5.2,1.8-7.1l-1.3-2.7c-8.8,2.3-15.5,8.8-20.3,16.4a111.41,111.41,0,0,0-9,17.4l.2-1.1c2.4-12.8,10.3-33.5,22.9-40.6C393.5,102.3,408.7,102.7,411.5,114.9Zm-72,268.7a6.57,6.57,0,0,0,.2-3.4,6.42,6.42,0,0,0-1.1-3,6.92,6.92,0,0,0-2.9-2.1,14,14,0,0,0-4.1-.6h-1.2a10.87,10.87,0,0,1-1.8-.1,3.81,3.81,0,0,1-2.4-1.1l-1.9-1.9a3.08,3.08,0,0,0,1.3.3,4.1,4.1,0,0,0,1.1.1h5.5a10.68,10.68,0,0,1,2.5.3,12.66,12.66,0,0,1,1.8.6l-3.6-4.7a5,5,0,0,0-1.5-1.4,4.28,4.28,0,0,0-2.2-.6H323a4.57,4.57,0,0,1-2-.2,2.68,2.68,0,0,1-1.3-1l-1-1.6a3.08,3.08,0,0,0,1.3.3,4.1,4.1,0,0,0,1.1.1h5.6a10.07,10.07,0,0,1,2.5.3,12.66,12.66,0,0,1,1.8.6l-3.6-4.7a5,5,0,0,0-1.5-1.4,4.28,4.28,0,0,0-2.2-.6h-6.3a4.57,4.57,0,0,1-2-.2,2.68,2.68,0,0,1-1.3-1l-1-1.6a5.64,5.64,0,0,0,1.2.4,4.1,4.1,0,0,0,1.1.1H321a10.68,10.68,0,0,1,2.5.3,12.66,12.66,0,0,1,1.8.6l-3.6-4.7a5,5,0,0,0-1.5-1.4,4.28,4.28,0,0,0-2.2-.6h-5.9a4.42,4.42,0,0,1-2-.2,1.2,1.2,0,0,1-.7-.7s-1-1.3-1.6-2.2c-1.3-1.9-3-5.1-3-5.1a21.31,21.31,0,0,0,6.2-1.2c3.7-1.3,6.3-2.2,8.5-5.4a13.63,13.63,0,0,0-.1-15c-1.6-2.4-3.3-3.3-5.8-4.8s-4.2-1.7-7-2.6c-2.4-.7-4.8-.5-6-2.8a4.69,4.69,0,0,1-.4-4.3,3.89,3.89,0,0,1,2.5-2.5,10.12,10.12,0,0,0-8.5.3c-2.1.9-3.5,1.7-4.6,3.7a7.12,7.12,0,0,0-.7,6.5,37.9,37.9,0,0,0-7.2,4.5,43.48,43.48,0,0,0-8.6,8,64.19,64.19,0,0,1,7.4-1.4c2.6-.3,4.1-.4,6.8-.5a6.25,6.25,0,0,1,.8-3.8,6.66,6.66,0,0,1,6-3.7,5.72,5.72,0,0,0-2.6,2c-1,1.4-1.7,2.7-1,4.3a3.44,3.44,0,0,0,3.1,2.3,3.22,3.22,0,0,0,2.1-.6,5,5,0,0,1,5.3-6.2,4.89,4.89,0,0,0-1.8,1.4,5.3,5.3,0,0,0-.3,6.8,5,5,0,0,0,5.3,2.1,5.12,5.12,0,0,1-.6-2.2c0-1.9,2.4-4.2,4.3-4.2a4.33,4.33,0,0,1,4.3,3.8c.2,4.2-2.8,5.5-5.8,5.9-1.9.3-4.2-.5-6.1-.9-2.8-.5-4.2-1.1-7-1.6-6-1.1-9.5-1.7-15.7-1.4a86.69,86.69,0,0,0-13.3,1.8c-7.6,1.5-10,2.9-17.6,4.4-8.5,1.7-14,3.7-22.7,3.8a69.55,69.55,0,0,1-23.5-3.2,11.44,11.44,0,0,1,1.6,4.7,13.2,13.2,0,0,1,.2,2.8,27.31,27.31,0,0,0-2.9-5.3c-1.8-2.6-3.7-3.4-5.3-6.1a5.56,5.56,0,0,1-.9-1.7,3.76,3.76,0,0,1-.1-2.1,3,3,0,0,1,.7-1.5,3.19,3.19,0,0,0,.3,1.4,4.17,4.17,0,0,0,.6.8l5.5,5.5a19.55,19.55,0,0,0-.5-9.9,20.49,20.49,0,0,0-3.1-6.7,19,19,0,0,0,1.3-6.7,22,22,0,0,0-.6-5.3,5.71,5.71,0,0,1-2,3.8,4.92,4.92,0,0,1-1.5,1,3.51,3.51,0,0,0-1.7,1.9,4.66,4.66,0,0,0-.3,2.1,4.49,4.49,0,0,0,.8,2.7,8.71,8.71,0,0,1-2.8-2.6,8,8,0,0,1-1.3-2.4,3.39,3.39,0,0,1,.3-2.4,3.35,3.35,0,0,1,1.5-1.4c.8-.5,1.5-.3,2.3-.5a4,4,0,0,0,2.2-1.4,4.94,4.94,0,0,0,1.6-3.2,12.49,12.49,0,0,0-5.1-.4,13.73,13.73,0,0,0-2.8.5,9.5,9.5,0,0,0-4.6-3,9.12,9.12,0,0,0-3.3-.5,10.33,10.33,0,0,0-4.9-2.7,17.32,17.32,0,0,0-5.1-.3,17.32,17.32,0,0,0-5.1.3,10.33,10.33,0,0,0-4.9,2.7,9.12,9.12,0,0,0-3.3.5,8.84,8.84,0,0,0-4.6,3,12.61,12.61,0,0,0-2.8-.5,11.14,11.14,0,0,0-5.1.5,4.94,4.94,0,0,0,1.6,3.1,4.49,4.49,0,0,0,2.3,1.4,8.56,8.56,0,0,1,2.3.5,3.35,3.35,0,0,1,1.5,1.4,2.89,2.89,0,0,1,.3,2.4,4.37,4.37,0,0,1-1.3,2.4,8.71,8.71,0,0,1-2.8,2.6,4.3,4.3,0,0,0,.8-2.7,5.11,5.11,0,0,0-.3-2.1,3.51,3.51,0,0,0-1.7-1.9,7.84,7.84,0,0,1-1.5-1,5.67,5.67,0,0,1-2.1-4,14,14,0,0,0-.5,5.4,19.45,19.45,0,0,0,1.3,6.7,22.73,22.73,0,0,0-3.6,16.6l5.5-5.5a2.41,2.41,0,0,0,.6-.8,2.23,2.23,0,0,0,.3-1.4,3,3,0,0,1,.7,1.5,3.76,3.76,0,0,1-.1,2.1,5.56,5.56,0,0,1-.9,1.7c-1.6,2.7-3.5,3.5-5.3,6.1a27.31,27.31,0,0,0-2.9,5.3,7.17,7.17,0,0,1-.5-2.1,4.77,4.77,0,0,1,.4-2,61.31,61.31,0,0,1-7.3-4.8c-2.6-2-4.2-3-6.3-5.4-2.5-2.9-5.5-4.6-5.1-8.4.2-2,1.4-2.8,2.1-4.6.9-2.3,2.1-3.5,2-6a7.77,7.77,0,0,0-2.9-6.1,5.47,5.47,0,0,0-.8-3.9,5.77,5.77,0,0,0-4.4-3.3,6.26,6.26,0,0,1-.2,6.5,4.12,4.12,0,0,1,.9,3,4.22,4.22,0,0,1-1.6,3.3,7.34,7.34,0,0,0-.8-5,7.2,7.2,0,0,0-3.8-3.5,4.82,4.82,0,0,0-5.1-4,4.55,4.55,0,0,0-3.6,1.5,4.21,4.21,0,0,1,3.7,3.6,3.78,3.78,0,0,0-1.2,1,4,4,0,0,0-.9,1.7,5.78,5.78,0,0,1,4.5,2.2,5.65,5.65,0,0,1,1.5,5,7.85,7.85,0,0,0-1.6-2.8,7.33,7.33,0,0,0-7.5-2.3,4.62,4.62,0,0,0-4.1-1.6,4.7,4.7,0,0,0-4,2.3,5.83,5.83,0,0,1,2.9.9,4.89,4.89,0,0,1,1.6,1.6,9.06,9.06,0,0,0-1.1,1.6,7.56,7.56,0,0,0-.8,4.2,6.46,6.46,0,0,0,1.6,4.4c1.3,1.5,2.4,2.4,4.4,2.3a9,9,0,0,0,1.6-.3c.7-.2,1-.7,1.7-.7,1.7.2,2.3,2.5,0,3.3-.6.2-1-.2-1.6-.3a7.34,7.34,0,0,0-2-.5,3.34,3.34,0,0,0-2.3,1.4,3.54,3.54,0,0,0-1,2.6,3.75,3.75,0,0,1-2.1,0,3.92,3.92,0,0,1-1.4-.8,4.18,4.18,0,0,0,.7,3.9,4.31,4.31,0,0,0,3.5,1.9,7.82,7.82,0,0,0,4.1,4.1,5.38,5.38,0,0,0,2.8.8c1.4-.1,2-.8,3.2-1.4.8-.4,1.2-.9,2.1-1a2.94,2.94,0,0,1,2.4.6,3.47,3.47,0,0,1,1.6,3.1c0,1.8-1.3,2.7-2.9,3.4a4.48,4.48,0,0,1-3.4.4l2.3,2.2a8.47,8.47,0,0,0,1.9,1.4,5,5,0,0,0,2.4.6h7.2a9.74,9.74,0,0,1,2.4.2,3.73,3.73,0,0,1,2.3,1l1.7,1.7a3.19,3.19,0,0,0-1.4-.3,4.1,4.1,0,0,0-1.1-.1h-7.3a11.53,11.53,0,0,1-2.6-.3,15.19,15.19,0,0,1-2-.6l3.6,3.4a8.47,8.47,0,0,0,1.9,1.4,5,5,0,0,0,2.4.6h7.2a9.74,9.74,0,0,1,2.4.2c1,.3,1.6.3,2.3,1.1l1.7,1.7a5.77,5.77,0,0,0-1.4-.3,4.87,4.87,0,0,0-1.2-.1h-7.5a11.53,11.53,0,0,1-2.6-.3,15.19,15.19,0,0,1-2-.6l3.6,3.4a8.47,8.47,0,0,0,1.9,1.4,5,5,0,0,0,2.4.6h7.2a9.74,9.74,0,0,1,2.4.2,3.73,3.73,0,0,1,2.3,1l1.8,1.8a3.19,3.19,0,0,0-1.4-.3,4.48,4.48,0,0,0-1.2-.1h-6.9a13.12,13.12,0,0,1-2.7-.3,10.56,10.56,0,0,1-1.9-.6l3.6,3.4a5.86,5.86,0,0,0,1.9,1.3,5,5,0,0,0,2.4.6h12.4a11.34,11.34,0,0,1-3.1-3.7,10.21,10.21,0,0,1-1.1-2.9,5.28,5.28,0,0,1,0-2.5,4.81,4.81,0,0,1-1.1-.9,8,8,0,0,1-1.8-2.3,7.86,7.86,0,0,1-1-4.5,8.31,8.31,0,0,1,.3-2.7,6.78,6.78,0,0,1,1.2-2.2,13.72,13.72,0,0,1,1.6-1.8,7.27,7.27,0,0,0,.8-.9,3.51,3.51,0,0,0,.6-1.4l.8,2.2a1.63,1.63,0,0,1,.1,1.2c-.1.5-.4.7-.7,1.2a18.26,18.26,0,0,0-1.3,1.6,5.42,5.42,0,0,0-.9,2.4,5.11,5.11,0,0,0,.3,3,3.92,3.92,0,0,0,.8,1.4,3.48,3.48,0,0,0,1.3,1.1l1-1.5.8-1.7a1.34,1.34,0,0,0,.2-.9,2.88,2.88,0,0,0-.1-1.3l1.4,2a3.26,3.26,0,0,1,.4,1.4,2,2,0,0,1-.4,1.5l-1.4,2.4a4.49,4.49,0,0,0-.5,1.9,6.8,6.8,0,0,0,.2,2,8.11,8.11,0,0,0,1,2.1,10,10,0,0,0,1.6,2c.4-1.4.6-2.2,1.1-3.6a12.54,12.54,0,0,0,.9-2.5,4.48,4.48,0,0,0,.1-1.2,7.57,7.57,0,0,0-.1-1.5l1.7,2.2c.4.4.3.8.3,1.4a4.3,4.3,0,0,1-.2,1.2l-1.3,3.8a2.48,2.48,0,0,0,0,1.7,3.52,3.52,0,0,0,1.4,2.2,4.27,4.27,0,0,0,2.1,1.1l1-3.2a3.18,3.18,0,0,0,.2-1.4,5.54,5.54,0,0,0-.2-1.8l1.8,1.8c.5.5.4,1,.5,1.6a3.33,3.33,0,0,1-.1,1.4l-1,3a4.53,4.53,0,0,0-.2,2.3,8.17,8.17,0,0,0,.6,2.7,5.1,5.1,0,0,1-2-1.2,4.57,4.57,0,0,1-1.1-1.6,6.94,6.94,0,0,1-.5-1.3,5.85,5.85,0,0,1-1.7-1,9.37,9.37,0,0,1-2.6-2.3H138.8c-5.8,3.2-4.8,3.2-8.1,4.9-5.2,2.8-8,6.2-13.8,5.9-2.3-.1-3.4-.9-5.6-1.4a15.14,15.14,0,0,0-3.7-.7,8,8,0,0,0-4.8,1.2,6.91,6.91,0,0,0-3,3.1,7,7,0,0,1,4.7-.5,7.73,7.73,0,0,1,3.8,1.7,9.26,9.26,0,0,0-3.3-.3,9.62,9.62,0,0,0-6.4,1.8,7.92,7.92,0,0,0-3.9,5.2,7.72,7.72,0,0,0,0,3.7,5.36,5.36,0,0,0-1.5,1.5c-.8,1-1.5,1.7-1.5,3a3.66,3.66,0,0,0,1.4,3.1,4.72,4.72,0,0,1,2.5-3,4.51,4.51,0,0,1,2.5-.7,6.07,6.07,0,0,0,1,.7,6.71,6.71,0,0,0,1.5.6l1.3-1.5a7.71,7.71,0,0,1,1.8-6,7.47,7.47,0,0,1,6.8-3,7,7,0,0,0-5.3,4.7,7.9,7.9,0,0,0-.5,4.3,4.53,4.53,0,0,0-2.4,2.5,4.86,4.86,0,0,0,.4,5.3,9.59,9.59,0,0,1,2.7-3,8,8,0,0,1,4.1-1.8,9.48,9.48,0,0,0,2.3.5,10.89,10.89,0,0,0,3.6-.1,4.89,4.89,0,0,1-.8-2.9c-.1-2.8,1.1-5.2,3.7-6.2a5.11,5.11,0,0,1,3-.3,5.3,5.3,0,0,0-2.8,1.6c-1.3,1.3-2.2,2.6-1.8,4.5a4,4,0,0,0,2.1,3.1,3.89,3.89,0,0,0,2.3.7,11,11,0,0,1-.2,1.8,7.61,7.61,0,0,1-.8,2.1,8.14,8.14,0,0,0,4.4-1.8,6.72,6.72,0,0,0,2.1-2.6,5.1,5.1,0,0,0,2.3-1.2c1.6-1.3,2.6-2.8,2.3-4.9a4.06,4.06,0,0,0-1.6-2.9,3.27,3.27,0,0,1,3.1-3.5,3.3,3.3,0,0,1,3.1,3.8,3,3,0,0,1-.7,1.5,5.92,5.92,0,0,0,1.9-.5,4.94,4.94,0,0,0,1.9-1.6l3.3-4.8a7.63,7.63,0,0,1,.8-1.1c1.2-1.4,2.2-2.5,4-2.5h1.7a5.24,5.24,0,0,0-1.1,1,7.27,7.27,0,0,0-.8.9l-3.3,5.3a9.09,9.09,0,0,1-1.8,2.1c-.6.5-.9.8-1.6,1.3l4.4-.1a5,5,0,0,0,4.1-2.1l4.1-6.1a4.06,4.06,0,0,1,1.4-1.5,3,3,0,0,1,1.8-.8h2.4a4.81,4.81,0,0,0-1.1.9,7.27,7.27,0,0,0-.8.9l-3.4,5.4a9.09,9.09,0,0,1-1.8,2.1c-.6.5-.9.8-1.6,1.3l4.3-.1a4.19,4.19,0,0,0,2.2-.5,3.75,3.75,0,0,0,1.9-1.6l5.9-9.1a5.69,5.69,0,0,1-1.9-2.9,5.3,5.3,0,0,1-.3-2.8,9.26,9.26,0,0,1,.4-2.3c.2-.8.5-1.2.7-2.1a11.14,11.14,0,0,0,.2-1.7,7.08,7.08,0,0,0-.1-1.4l1.5,1.2a2.29,2.29,0,0,1,.7,1,2.51,2.51,0,0,1,.2,1.5,8,8,0,0,1-.3,1.5,16.84,16.84,0,0,0-.6,2.4,5.76,5.76,0,0,0,.2,2.6,6.33,6.33,0,0,0,1.6,2.4,8,8,0,0,0,3.3,2.2V373.6h2.3v10.6a2.51,2.51,0,0,0,1.8,2.3l4,2a7,7,0,0,0,5.5-.1l2.9-1.1a3.6,3.6,0,0,1-1.8-.1,10.08,10.08,0,0,1-1.8-.9l-7.3-3.9a4.45,4.45,0,0,0,1.6-2.6,5.76,5.76,0,0,0,.2-2.6,16.84,16.84,0,0,0-.6-2.4,8,8,0,0,1-.3-1.5,3.89,3.89,0,0,1,.2-1.5,1.83,1.83,0,0,1,.7-1l1.5-1.2a6.15,6.15,0,0,0-.1,1.4,8.81,8.81,0,0,0,.2,1.7c.2.8.5,1.2.7,2.1a9.08,9.08,0,0,1,.3,2.3,9.47,9.47,0,0,1-1,4.4l7.5,4.2a5.22,5.22,0,0,0,2.1.7,3.12,3.12,0,0,0,2.1-.3l3.8-1.6a3.67,3.67,0,0,1-1.8-.1,10.08,10.08,0,0,1-1.8-.9l-7.1-3.9a2.68,2.68,0,0,1-.9-.2,16.78,16.78,0,0,0,.7-3.9,7.08,7.08,0,0,0,0-2.9l-.8-3.5a3.21,3.21,0,0,1-.1-1.4c0-.7,0-1.2.5-1.6l1.8-1.8a5.54,5.54,0,0,0-.2,1.8,7.84,7.84,0,0,0,.2,1.4,27.59,27.59,0,0,0,.8,2.7,23.81,23.81,0,0,1,.5,2.6,8.85,8.85,0,0,1,0,2.3,14.37,14.37,0,0,1-.6,2.6l8.5,4.6a5.22,5.22,0,0,0,2.1.7,3.12,3.12,0,0,0,2.1-.3l3.8-1.6a3.67,3.67,0,0,1-1.8-.1,6.08,6.08,0,0,1-1.8-.9l-7.1-3.9c-.4-.2-.7-.3-1.2-.5l-1.3-.5a5.91,5.91,0,0,0,.6-1.4,12.88,12.88,0,0,0,.6-2.1,13.39,13.39,0,0,0-.2-4.9c-.4-1.9-1.3-2.9-1.6-4.8a2.62,2.62,0,0,1-.2-1.5,2.09,2.09,0,0,1,.3-1.4l1.7-2.2a7.57,7.57,0,0,0-.1,1.5,4.87,4.87,0,0,0,.1,1.2,20.36,20.36,0,0,0,.9,2.2c.5,1.5.8,2.3,1.2,3.8a10,10,0,0,0,1.6-2,5.8,5.8,0,0,0,1-2.1,4.42,4.42,0,0,0,.2-2,3,3,0,0,0-.5-1.9l-1.4-2.4a1.68,1.68,0,0,1-.3-1.2,2.49,2.49,0,0,1,.3-1.7l1.4-2a2.88,2.88,0,0,0-.1,1.3,2.39,2.39,0,0,0,.2.9l.8,1.7,1,1.5a3.48,3.48,0,0,0,1.3-1.1,3.92,3.92,0,0,0,.8-1.4,5.11,5.11,0,0,0,.3-3,7,7,0,0,0-.9-2.4,10.1,10.1,0,0,0-1.3-1.6,2.4,2.4,0,0,1-.7-1.2,2.46,2.46,0,0,1,.1-1.2l.8-2.2a3.51,3.51,0,0,0,.6,1.4c.3.4.5.5.8.9.6.7,1.1,1.1,1.6,1.8a9.41,9.41,0,0,1,1.2,2.2,8,8,0,0,1,.3,2.7,8.75,8.75,0,0,1-1,4.5,8,8,0,0,1-1.8,2.3,5.38,5.38,0,0,1-1.2.9,5.28,5.28,0,0,1,0,2.5,7.91,7.91,0,0,1-1.1,2.9,16.68,16.68,0,0,1-3.6,4.1,19,19,0,0,1,0,2.5,8.87,8.87,0,0,1-.8,3.2l9.7,5.2a5.22,5.22,0,0,0,2.1.7,3.12,3.12,0,0,0,2.1-.3l3.8-1.6a3.6,3.6,0,0,1-1.8-.1,10.08,10.08,0,0,1-1.8-.9l-7.2-3.9c-.4-.2-.7-.3-1.1-.5l-1.3-.5a10.27,10.27,0,0,1,2.4-.5,7.53,7.53,0,0,1,3,.4,8.65,8.65,0,0,1,1.7.7l5.6,3a5.22,5.22,0,0,0,2.1.7,3,3,0,0,0,2.1-.3l4.6-2.1a2.7,2.7,0,0,1-1.8-.1,2.93,2.93,0,0,1-1.3-1.6c-.7-1.8.7-3.6,2.3-4.4,6.5-3.1,9.9-4.4,16.1-7.4,9.2-4.4,13.9-8.1,23.4-11.8,5.1-2,7.9-4.5,13.4-4.5,3.4,0,5.7-.1,8.6,1.7a9.85,9.85,0,0,1,3.2,2.9,10,10,0,0,1,1.4,4.1,16.22,16.22,0,0,1-.1,4.4c-.1,4.1,0,9,3.4,12.9a16.82,16.82,0,0,0,5.4,4.1c2,1.1,3.1,1.6,5,2.7a6.43,6.43,0,0,1,2.3,2.7,3.32,3.32,0,0,1,0,2.2,9.15,9.15,0,0,0,4-.7,9.06,9.06,0,0,0,4.8-3.8h6.2a5.21,5.21,0,0,1,.8,3c0,1.4,0,2.4-.9,3.4a3.89,3.89,0,0,1-3,1.1c-2.5.1-3.6-.6-6-.4a11.25,11.25,0,0,0-4.8,1.1,7.65,7.65,0,0,0-4,4.8,8.18,8.18,0,0,0-.5,4.1,4.69,4.69,0,0,0-1.8,1.9,5.06,5.06,0,0,0,0,5.3,9.89,9.89,0,0,1,2.9-2.5,6.88,6.88,0,0,1,3.3-1.2,8.15,8.15,0,0,1,4.3-6.8,7.76,7.76,0,0,1,3.9-1.2,9.38,9.38,0,0,0-3.9,3.2c-1.8,2.3-2.7,4.1-2.5,7a3.66,3.66,0,0,0-.8,2.6,3.55,3.55,0,0,0,1.2,2.6c1.9-2.1,2.5-2.7,4.6-3.7a9,9,0,0,1,2.3-.8,6.55,6.55,0,0,0,2.8.3c.7-.1,1.5-.4,1.8-.4-.7-2.5-1.3-4.8.4-6.8a6.08,6.08,0,0,1,5.9-2.6,6,6,0,0,0-3.6,2.3,5.44,5.44,0,0,0-1.1,3.9,4.59,4.59,0,0,0,2.3,3.8,3.36,3.36,0,0,0,.4,2.2,4.29,4.29,0,0,0,1.4,1.9,4.57,4.57,0,0,1,1.5-2.8,5.94,5.94,0,0,1,1.8-1.3c1.3-.6,2.2-.2,3.6-.5,2.3-.4,4-.2,5.7-1.7a6,6,0,0,0,.2-9.2,7.39,7.39,0,0,0,1.2-4.3,6.7,6.7,0,0,0-.9-4.2h3.5a8.08,8.08,0,0,1,1.9.3A11.09,11.09,0,0,1,339.5,383.6ZM187.4,346.2a4.19,4.19,0,0,1-.5-2.2,7.79,7.79,0,0,1,.4-2.1,10,10,0,0,1,1-2.1,7.57,7.57,0,0,0,.1,1.5,7.22,7.22,0,0,0,.9,2,10.81,10.81,0,0,1,1.1,1.8,4.79,4.79,0,0,1,.9,2.6,6.49,6.49,0,0,1-.8,2.7,9.5,9.5,0,0,1-1,1.7,3.75,3.75,0,0,0,0-2.1,5.8,5.8,0,0,0-1-2.1A16.29,16.29,0,0,1,187.4,346.2Zm-32.9,7.3a3.64,3.64,0,0,1,.2-1.5l.7-1.5a4.22,4.22,0,0,0,.3-1.2,3.4,3.4,0,0,0,.1-1l1.4,1.7a1.4,1.4,0,0,1,.3.9,5.27,5.27,0,0,1-.3,1.2c-.2.6-.5.9-.5,1.5a1.94,1.94,0,0,0,.3,1.3l1.5,1.8a.76.76,0,0,0,.9.2c.5-.1.6-.6.8-1.1a1.71,1.71,0,0,0,0-1.4l1.3,1.5a1.55,1.55,0,0,1,.3,1.1,1.38,1.38,0,0,1,0,.9l-.5,1.6a1.7,1.7,0,0,0,0,1,1.91,1.91,0,0,0,.5,1,2.54,2.54,0,0,0,1,.8,1.13,1.13,0,0,0,.8.1c.3-.1.4-.4.5-.8l.4-1.8a1.85,1.85,0,0,0-.2-.7c-.1-.4-.3-.5-.5-.8l2,1.2c.4.2.5.6.6,1.1a2.85,2.85,0,0,1,0,1.3l-.2,2a2.08,2.08,0,0,0,.3,1.3c.3.5.7.6,1.3.9a6.36,6.36,0,0,0,1.8.6V361h2.3v5.8a6.36,6.36,0,0,0,1.8-.6,3.81,3.81,0,0,0,1.3-.9,1.52,1.52,0,0,0,.3-1.3l-.2-2a2.85,2.85,0,0,1,0-1.3c.1-.5.2-.9.6-1.1l2-1.2c-.2.3-.3.5-.5.8s-.3.4-.2.7l.4,1.8c.1.4.1.7.5.8a1.13,1.13,0,0,0,.8-.1,2,2,0,0,0,1-.8,2.35,2.35,0,0,0,.5-1,1.7,1.7,0,0,0,0-1l-.5-1.6a2.72,2.72,0,0,1,0-.9,2.9,2.9,0,0,1,.3-1.1l1.3-1.5a1.71,1.71,0,0,0,0,1.4c.2.5.3.9.8,1.1s.7.1.9-.2l1.5-1.8a1.94,1.94,0,0,0,.3-1.3c0-.6-.3-.9-.5-1.5s-.4-.7-.4-1.2a1.09,1.09,0,0,1,.4-.9l1.4-1.7a3.4,3.4,0,0,0,.1,1,5.64,5.64,0,0,0,.4,1.2l.7,1.5a3.89,3.89,0,0,1,.2,1.5,7.57,7.57,0,0,1-.1,1.5,5.37,5.37,0,0,1-1,1.6,10,10,0,0,1-1.6,1.9,10.62,10.62,0,0,1-2.1,1.6,2.57,2.57,0,0,1-.1,1.5,3.23,3.23,0,0,1-1,1.7,6.1,6.1,0,0,1-1.6,1.2,10.41,10.41,0,0,1-1.6.6,2.51,2.51,0,0,1-.6,1.4,3.18,3.18,0,0,1-1,1,6.78,6.78,0,0,1-2.3,1.4,7,7,0,0,1-3.1.7,6.43,6.43,0,0,1-3.1-.7,6.78,6.78,0,0,1-2.3-1.4,9.43,9.43,0,0,1-1-1,3.51,3.51,0,0,1-.6-1.4,7.58,7.58,0,0,1-1.6-.6,6.57,6.57,0,0,1-1.7-1.2,4.25,4.25,0,0,1-1-1.7,2.57,2.57,0,0,1-.1-1.5,8.34,8.34,0,0,1-2.1-1.6,14.62,14.62,0,0,1-1.6-1.9,5.37,5.37,0,0,1-1-1.6A2.54,2.54,0,0,1,154.5,353.5Zm-4.4-5.8a5.09,5.09,0,0,1,.9-2.6,10.81,10.81,0,0,0,1.1-1.8,8.82,8.82,0,0,0,.9-2,7.08,7.08,0,0,0,.1-1.5,8.42,8.42,0,0,1,1.1,2.1,5.22,5.22,0,0,1,.4,2.1,5.45,5.45,0,0,1-.5,2.2c-.3.7-.8,1-1.2,1.7a5.58,5.58,0,0,0-.9,2.1,3.75,3.75,0,0,0,0,2.1,9.91,9.91,0,0,1-1.1-1.7A6.49,6.49,0,0,1,150.1,347.7Zm.9-14.5a2.2,2.2,0,0,0,.5-1.6,2,2,0,0,0-.1-1.3,3.23,3.23,0,0,1,1.2,1.4,4.23,4.23,0,0,1,.7,2.7,4,4,0,0,1-.9,2.1l-1.9,2.7c-.2.4-.4.5-.6.9a8.86,8.86,0,0,0-.8,1.7c-.2.6-.4.9-.6,1.5-.1-.8-.2-1.3-.3-2.1a14.62,14.62,0,0,1-.5-2,4.28,4.28,0,0,1,.8-2.9Zm8-16.7h8.1a1.22,1.22,0,0,1,1,.6c.5.5.3,1.2.3,1.8l-.1.6a1.71,1.71,0,0,0-1.3-.7h-2.5a2.72,2.72,0,0,1,1.1,2,2.2,2.2,0,1,1-4.4,0,2,2,0,0,1,.7-1.6l.4-.4h-3a2.9,2.9,0,0,1-2.2-1.2,3,3,0,0,1-1-2.2A4.17,4.17,0,0,0,159,316.5Zm5.3-10.9,2.8,3.7c.2.2.2.5.5.7a1.62,1.62,0,0,0,.9.5h-2.3a2.62,2.62,0,0,1-1.7-.5c-.6-.3-.8-.7-1.3-1.2l-2.3-3a2,2,0,0,0-.6-.7,4.17,4.17,0,0,0-.8-.6h2.7a3,3,0,0,1,2.1,1.1Zm10.4,3.9a2,2,0,0,0,.6.7,3.17,3.17,0,0,0,1.2.8h-3.1a2.47,2.47,0,0,1-1.8-.6c-.5-.3-.6-.7-.9-1.1L168,305a3.92,3.92,0,0,0-.8-1,3.19,3.19,0,0,0-1.6-.9h2.9a2.72,2.72,0,0,1,1.7.6,3.57,3.57,0,0,1,1.1,1Zm8.1.9h-2.3a2.62,2.62,0,0,1-1.7-.5c-.6-.3-.8-.7-1.3-1.2l-2.3-3a2,2,0,0,0-.6-.7,4.17,4.17,0,0,0-.8-.6h2.7a2.38,2.38,0,0,1,1.2.3,2.28,2.28,0,0,1,.9.8l2.8,3.7c.2.2.2.5.5.7A1.62,1.62,0,0,0,182.8,310.4Zm2.6,4.9a3,3,0,0,1-1,2.2,2.76,2.76,0,0,1-2.2,1.2h-3a2.72,2.72,0,0,1,1.1,2,2.2,2.2,0,0,1-4.4,0,2.36,2.36,0,0,1,.7-1.6l.4-.4h-2.5c-.6,0-.9.3-1.4.8V318a1.59,1.59,0,0,1,1.4-1.4h8.1A4.55,4.55,0,0,0,185.4,315.3Zm6.3,5.3c.3,5.1-2.8,10.3-8.3,11a6.33,6.33,0,0,1-4.6,5.9,33.77,33.77,0,0,1-.3,7.8v.1a12.87,12.87,0,0,1,1,4.8c0,3-2.5,4.9-5.6,4.8a25.08,25.08,0,0,0-3.1-.3c-3.2,0-4.4,1.1-7.3-1.2a3.77,3.77,0,0,1-1.4-3.3,13.72,13.72,0,0,1,.9-4.9,29.17,29.17,0,0,1-.3-7.8,6.66,6.66,0,0,1-4.7-5.9c-5.5-.7-8.6-5.9-8.3-11a6.67,6.67,0,0,1,2.4-4.1v4.7c0,4.2,2.4,8.1,7.1,8h.8c-.6,7.7,10.2,8.4,9.5,1.9a3.66,3.66,0,0,1-2.5-3.2h7.4a3.92,3.92,0,0,1-2.6,3.2c-.7,6.5,10,5.7,9.5-1.9h.8c4.7.1,7.1-3.8,7.1-8v-4.7A6.14,6.14,0,0,1,191.7,320.6Zm2,18.7a7.34,7.34,0,0,1-.5,2,15.17,15.17,0,0,0-.3,2.1,9.38,9.38,0,0,0-.6-1.5,8.86,8.86,0,0,0-.8-1.7,7,7,0,0,0-.6-.9l-1.9-2.7a4,4,0,0,1-.9-2.1,4.39,4.39,0,0,1,.7-2.7,8.06,8.06,0,0,1,1.2-1.4,5.7,5.7,0,0,0-.1,1.3,4.28,4.28,0,0,0,.5,1.6l2.4,3.3A3,3,0,0,1,193.7,339.3Zm117.9,30.2h-8.7c-3.4,0-4.9-1-7.2-3.6a11.8,11.8,0,0,1-1.7-2.4,9.94,9.94,0,0,0,6.6,2.4c2,0,4.1-.1,6.1.1a5.62,5.62,0,0,1,3.9,1.9A3.36,3.36,0,0,1,311.6,369.5ZM176.9,350.6c1-2.8-4.6-2.8-6.2-2.8a28.25,28.25,0,0,0-2.9.2c-1.3.2-3.9.6-3.2,2.6.5,1.5,2,1.6,3.4,1.9a13.1,13.1,0,0,0,2.8,0,13.13,13.13,0,0,0,2.8.1C174.9,352.3,176.4,352.1,176.9,350.6Zm-1.1-4.7a36.83,36.83,0,0,0,.6-6.6v-.9l-2.3,2.7a7.26,7.26,0,0,1-.5-1.2c-.2-.5-.6-1.7-1.2-2-.7.4-.8.3-1.6.3a2.54,2.54,0,0,1-1.5-.3h-.1c-.5.1-1.5,2.6-1.7,3l-2.3-2.7a38,38,0,0,0,.6,7.5,17.19,17.19,0,0,1,5-.4A21.36,21.36,0,0,1,175.8,345.9Zm110.9-33.6a4.07,4.07,0,0,1-.2-1,10.42,10.42,0,0,1,.1-1.1c-6.5,1.6-10.1,2.5-16.5,4.4-6.7,1.9-10.4,3.3-17.2,5.3-6.5,1.9-10.2,3.4-16.8,4.8a39.88,39.88,0,0,1-8.9,1.3c-3.6,0-5.2,0-7.1-1-2.2-1.1-3.9-2.2-4.3-4.6a3.62,3.62,0,0,1,.3-2.9,3,3,0,0,1,2.3-1.3,2.75,2.75,0,0,1,2.8,1.8,2.51,2.51,0,0,1-.8,2.9,10.75,10.75,0,0,0,3.1-.1c1.8-.2,3.1-.1,4.5-1.3a4.69,4.69,0,0,0,1.7-3.4,5.1,5.1,0,0,0-5-4.9,5.09,5.09,0,0,1,4.5.3A4.41,4.41,0,0,1,231,313a4.3,4.3,0,0,1,.7,4.1,17,17,0,0,0,8.4-.7c3.5-1.1,5.4-2.5,8.1-5.1a23.47,23.47,0,0,0,5.9-8,27.34,27.34,0,0,1-7.4,2.7c-7.6,1.8-13.4-1.4-19.9-1.8a28.8,28.8,0,0,0-11.7,1.9c-4.1,1.6-6.8,3.4-8.5,7.4-1.6,3.6-1.8,6.4-.3,10.1,1.3,3.4,3.4,5.2,6.3,6.8,4.2,2.5,6.8,2.6,11.7,3,6.9.5,10.5-.6,17.1-2,6.1-1.3,9.3-2.8,15.3-4.4,6.5-1.8,10.2-2.8,16.8-4.4a41,41,0,0,1,6.5-6A27.4,27.4,0,0,1,286.7,312.3Zm-76.6-39.8a6.56,6.56,0,0,1,4.3-1,10.32,10.32,0,0,0-3.3,2.1,10,10,0,0,0-3,4.6,4.35,4.35,0,0,0-1.6,1,4.61,4.61,0,0,0-1.5,2.6,5.07,5.07,0,0,0,.6,4.3,12.77,12.77,0,0,1,3.6-2.9,13.65,13.65,0,0,1,3.3-1.4,7.34,7.34,0,0,1,2.1-4.2,8.2,8.2,0,0,1,5.8-3.1,7.27,7.27,0,0,0-3.3,2.4c-1.8,2-2.2,3.8-2.3,6.4a10.75,10.75,0,0,0,.5,4,8.07,8.07,0,0,1,2.6-2.6,4.91,4.91,0,0,1,2.5-1,17.7,17.7,0,0,1,2.3.1c1.2.1,1.8.1,3,.1a6.17,6.17,0,0,0,6.7-6.1,8.33,8.33,0,0,0-.4-1.5,6.07,6.07,0,0,0-.7-1.4,4,4,0,0,1,2.2,1.2,4.32,4.32,0,0,1,.2,5,8.61,8.61,0,0,0,5.7-.7,7.88,7.88,0,0,0,3.8-3.4,7.16,7.16,0,0,0,1-2.9,20.17,20.17,0,0,0,3.8-2.7,20.62,20.62,0,0,0,2.5-2.6l1.1,3.8a7.84,7.84,0,0,1,.2,2.2,5.66,5.66,0,0,1-.3,1.8l3.3-3.8a4.27,4.27,0,0,0,1.1-2.1,3.67,3.67,0,0,0,.1-1.8l-1.6-6.3a4.16,4.16,0,0,1,.1-2.2,4,4,0,0,1,.9-1.7l1.5-1.6a2.34,2.34,0,0,0-.2,1.1,2.23,2.23,0,0,0,0,1.4l1.5,5.4a5.84,5.84,0,0,1,.2,1.9,7.61,7.61,0,0,1-.3,2.1l3.3-3.8a4.19,4.19,0,0,0,1.1-2.2,3.67,3.67,0,0,0,.1-1.8l-1.5-6.3a3.35,3.35,0,0,1,.1-2.2,4,4,0,0,1,.9-1.7l1.5-1.7a2.34,2.34,0,0,0-.2,1.1,2.23,2.23,0,0,0,0,1.4l1.5,5.6a6.8,6.8,0,0,1,.2,2,5.82,5.82,0,0,1-.3,1.9l2.9-3.3a4.2,4.2,0,0,0,.9-1.9,6.73,6.73,0,0,0,.1-2l-.2-2a7.38,7.38,0,0,1,.1-2.5c.4-1.4,1.2-1.9,2.1-3,1.5-1.8,2.8-2.5,4.6-4,2.4-2,3.8-3.1,6.3-5.1a7,7,0,0,0-.7-4.7,6.16,6.16,0,0,0-2.2-2.6,5.64,5.64,0,0,0-2-1.1,12.93,12.93,0,0,0-2.1-.7,14.2,14.2,0,0,0-6.5-.2,19.07,19.07,0,0,0-2.8.7,20.72,20.72,0,0,0-2.2,1.1,4.92,4.92,0,0,1,.2,2.4,4.1,4.1,0,0,1-1.3,2.4c-1.1,1.1-2.1,1.1-3.6,1.5-2.4.8-4,.4-6.5.9s-4.1.4-6.4,1.5c-4.5,2-6.4,4.7-8.9,9-2,3.4-2.3,5.9-4.8,8.9-.6.7-.9,1.1-1.5,1.7a26.29,26.29,0,0,1,3.9-.6,31.13,31.13,0,0,1,6.1-.2,16.86,16.86,0,0,0-2.8,1.2c-.7.4-1,.6-1.7,1a8.88,8.88,0,0,1-3.5,5,8.65,8.65,0,0,1-6,1.9c-2.2.1-3.4-.8-5.5-1.3-2.5-.6-3.8-1.6-6.3-1.5a9.9,9.9,0,0,0-4.2.9,10.12,10.12,0,0,0-4.4,3.5,10.39,10.39,0,0,0-2.2,5.3,5.69,5.69,0,0,0-2.9,1.9,4.8,4.8,0,0,0-1.5,3.1,4.21,4.21,0,0,0,.7,2.9,11.4,11.4,0,0,1,3-2.3,10.39,10.39,0,0,1,3.4-1.5,9.61,9.61,0,0,1,1.8-3.3A4.75,4.75,0,0,1,210.1,272.5Zm41.8-22.4c.9-2.5,2.3-3.7,4.5-5.2a15.66,15.66,0,0,1,5-2.1c1.5-.4,2.5-.4,4-.8a21.38,21.38,0,0,0,4.4-1.8,17.49,17.49,0,0,1-3.8,3.4c-2.5,1.8-4.8,1.9-7.2,3.6a18.54,18.54,0,0,0-7.2,9.1A9.38,9.38,0,0,1,251.9,250.1Zm87.6,16.1a6.89,6.89,0,0,0,.2-3.5,6.42,6.42,0,0,0-1.1-3,6.92,6.92,0,0,0-2.9-2.1,14,14,0,0,0-4.1-.6h-1.2a10.87,10.87,0,0,1-1.8-.1,4.29,4.29,0,0,1-2.4-1l-1.9-1.9a6.11,6.11,0,0,0,1.3.3,4.1,4.1,0,0,0,1.1.1h5.5a10.68,10.68,0,0,1,2.5.3,12.66,12.66,0,0,1,1.8.6l-3.6-4.7a5,5,0,0,0-1.5-1.4,4.28,4.28,0,0,0-2.2-.6H323a4.57,4.57,0,0,1-2-.2,2.68,2.68,0,0,1-1.3-1l-1-1.6a6.11,6.11,0,0,0,1.3.3,4.1,4.1,0,0,0,1.1.1h5.6a10.07,10.07,0,0,1,2.5.3,12.66,12.66,0,0,1,1.8.6l-3.6-4.7a3.74,3.74,0,0,0-1.5-1.3,4.28,4.28,0,0,0-2.2-.6h-6.3a4.57,4.57,0,0,1-2-.2,2.68,2.68,0,0,1-1.3-1l-1-1.6a5.27,5.27,0,0,0,1.2.3,4.1,4.1,0,0,0,1.1.1H321a10.68,10.68,0,0,1,2.5.3,12.66,12.66,0,0,1,1.8.6l-3.6-4.7a5,5,0,0,0-1.5-1.4,4.28,4.28,0,0,0-2.2-.6h-5.9a4.42,4.42,0,0,1-2-.2,1.2,1.2,0,0,1-.7-.7s-1-1.3-1.6-2.2c-1.3-1.9-3-5.1-3-5.1a18.46,18.46,0,0,0,6.2-1.2c3.7-1.3,6.3-2.2,8.5-5.4a13.63,13.63,0,0,0-.1-15c-1.6-2.4-3.3-3.3-5.8-4.8s-4.2-1.7-7-2.6c-2.4-.7-4.8-.5-6-2.8a4.72,4.72,0,0,1-.4-4.3,3.89,3.89,0,0,1,2.5-2.5,10.12,10.12,0,0,0-8.5.3c-2.1.9-3.5,1.7-4.6,3.7a7,7,0,0,0-.7,6.4,37.9,37.9,0,0,0-7.2,4.5,44,44,0,0,0-8.6,8.1,64.19,64.19,0,0,1,7.4-1.4c2.6-.3,4.1-.4,6.8-.5a6.25,6.25,0,0,1,.8-3.8,6.66,6.66,0,0,1,6-3.7,5.72,5.72,0,0,0-2.6,2c-1,1.4-1.7,2.7-1,4.3a3.44,3.44,0,0,0,3.1,2.3,3.22,3.22,0,0,0,2.1-.6,5,5,0,0,1,5.3-6.2,4.89,4.89,0,0,0-1.8,1.4,5.3,5.3,0,0,0-.3,6.8,5,5,0,0,0,5.3,2.1,6,6,0,0,1-.6-2.2c0-2,2.4-4.2,4.3-4.2a4.33,4.33,0,0,1,4.3,3.8c.2,4.2-2.8,5.5-5.8,5.9-1.9.2-4.2-.6-6.1-.9-2.8-.5-4.2-1.1-7-1.6-6-1.1-9.5-1.7-15.7-1.4a86.69,86.69,0,0,0-13.3,1.8c-7.6,1.5-10,2.9-17.6,4.4-8.5,1.7-14,3.7-22.7,3.8a69.55,69.55,0,0,1-23.5-3.2,11.44,11.44,0,0,1,1.6,4.7,13.2,13.2,0,0,1,.2,2.8,27.31,27.31,0,0,0-2.9-5.3c-1.8-2.6-3.7-3.4-5.3-6.1a7,7,0,0,1-.9-1.7,3.76,3.76,0,0,1-.1-2.1,3,3,0,0,1,.7-1.5,3.53,3.53,0,0,0,.3,1.4,4.17,4.17,0,0,0,.6.8l5.5,5.5a19.55,19.55,0,0,0-.5-9.9,20.49,20.49,0,0,0-3.1-6.7,19,19,0,0,0,1.3-6.7,22,22,0,0,0-.6-5.3,5.71,5.71,0,0,1-2,3.8,4.92,4.92,0,0,1-1.5,1,3.51,3.51,0,0,0-1.7,1.9,4.88,4.88,0,0,0-.3,2.1,4.49,4.49,0,0,0,.8,2.7,8.71,8.71,0,0,1-2.8-2.6,8,8,0,0,1-1.3-2.4,3.28,3.28,0,0,1,1.8-3.8c.8-.5,1.5-.3,2.3-.5a4,4,0,0,0,2.2-1.4,4.94,4.94,0,0,0,1.6-3.2,12.49,12.49,0,0,0-5.1-.4,13.73,13.73,0,0,0-2.8.5,8.84,8.84,0,0,0-4.6-3,9.12,9.12,0,0,0-3.3-.5,10.33,10.33,0,0,0-4.9-2.7,17.32,17.32,0,0,0-5.1-.3,17.32,17.32,0,0,0-5.1.3,10.33,10.33,0,0,0-4.9,2.7,7.39,7.39,0,0,0-3.3.5,8.84,8.84,0,0,0-4.6,3,12.61,12.61,0,0,0-2.8-.5,11.14,11.14,0,0,0-5.1.5,4.94,4.94,0,0,0,1.6,3.1,5.28,5.28,0,0,0,2.3,1.4c.8.2,1.6,0,2.3.5a3.35,3.35,0,0,1,1.5,1.4,2.89,2.89,0,0,1,.3,2.4,4.74,4.74,0,0,1-1.3,2.4,8.71,8.71,0,0,1-2.8,2.6,4.3,4.3,0,0,0,.8-2.7,5.11,5.11,0,0,0-.3-2.1,3.51,3.51,0,0,0-1.7-1.9,4.92,4.92,0,0,1-1.5-1,5.87,5.87,0,0,1-2.1-4,14,14,0,0,0-.5,5.4,19.45,19.45,0,0,0,1.3,6.7,22.73,22.73,0,0,0-3.6,16.6l5.5-5.5a4.17,4.17,0,0,0,.6-.8,2.23,2.23,0,0,0,.3-1.4,3,3,0,0,1,.7,1.5,3.76,3.76,0,0,1-.1,2.1,5.56,5.56,0,0,1-.9,1.7c-1.6,2.7-3.5,3.5-5.3,6.1a27.31,27.31,0,0,0-2.9,5.3,7.17,7.17,0,0,1-.5-2.1,4.06,4.06,0,0,1,.4-1.9,61.31,61.31,0,0,1-7.3-4.8c-2.6-2-4.2-3-6.3-5.4-2.5-2.9-5.5-4.6-5.1-8.4.2-2,1.4-2.8,2.1-4.6.9-2.3,2.1-3.5,2-6a7.77,7.77,0,0,0-2.9-6.1,5.47,5.47,0,0,0-.8-3.9,6.38,6.38,0,0,0-4.4-3.4,6.26,6.26,0,0,1-.2,6.5,4.12,4.12,0,0,1,.9,3,4.08,4.08,0,0,1-1.6,3.3,7,7,0,0,0-.8-4.9,7.2,7.2,0,0,0-3.8-3.5,4.82,4.82,0,0,0-5.1-4,4.55,4.55,0,0,0-3.6,1.5,4.21,4.21,0,0,1,3.7,3.6,5.8,5.8,0,0,0-1.2,1,4,4,0,0,0-.9,1.7,5.78,5.78,0,0,1,4.5,2.2,5.54,5.54,0,0,1,1.5,4.9,6.7,6.7,0,0,0-1.6-2.7,7.14,7.14,0,0,0-7.5-2.3,5.12,5.12,0,0,0-8.1.6,5.83,5.83,0,0,1,2.9.9,4.1,4.1,0,0,1,1.6,1.6,9.91,9.91,0,0,0-1.1,1.7,7.38,7.38,0,0,0-.8,4.1,6.46,6.46,0,0,0,1.6,4.4c1.3,1.5,2.4,2.4,4.4,2.3a4.71,4.71,0,0,0,1.6-.4c.7-.2,1-.7,1.7-.7,1.7.2,2.3,2.5,0,3.3-.6.2-1-.2-1.6-.3a7.34,7.34,0,0,0-2-.5,3.34,3.34,0,0,0-2.3,1.4,3.54,3.54,0,0,0-1,2.6,3.75,3.75,0,0,1-2.1,0,3.92,3.92,0,0,1-1.4-.8,4.23,4.23,0,0,0,.7,3.9,4.4,4.4,0,0,0,3.5,2,8.19,8.19,0,0,0,4.1,4.1,5.38,5.38,0,0,0,2.8.8c1.4,0,2-.8,3.2-1.4.8-.4,1.2-.9,2.1-1a2.94,2.94,0,0,1,2.4.6,3.47,3.47,0,0,1,1.6,3.1c0,1.8-1.3,2.7-2.9,3.4a4.48,4.48,0,0,1-3.4.4l2.3,2.2a5.86,5.86,0,0,0,1.9,1.3,5,5,0,0,0,2.4.6h7.2a9.74,9.74,0,0,1,2.4.2,3.73,3.73,0,0,1,2.3,1l1.7,1.7a5.77,5.77,0,0,0-1.4-.3,4.1,4.1,0,0,0-1.1-.1h-7.3a11.53,11.53,0,0,1-2.6-.3,15.19,15.19,0,0,1-2-.6l3.6,3.4a5.86,5.86,0,0,0,1.9,1.3,5,5,0,0,0,2.4.6h7.2a9.74,9.74,0,0,1,2.4.2,3.73,3.73,0,0,1,2.3,1l1.7,1.7a5.77,5.77,0,0,0-1.4-.3,4.87,4.87,0,0,0-1.2-.1h-7.5a11.53,11.53,0,0,1-2.6-.3,15.19,15.19,0,0,1-2-.6l3.6,3.4a5.86,5.86,0,0,0,1.9,1.3,5,5,0,0,0,2.4.6h7.2a9.74,9.74,0,0,1,2.4.2,3.73,3.73,0,0,1,2.3,1l1.8,1.8a5.73,5.73,0,0,0-1.4-.4,4.48,4.48,0,0,0-1.2-.1h-6.9a13.12,13.12,0,0,1-2.7-.3,10.56,10.56,0,0,1-1.9-.6l3.6,3.4a5.86,5.86,0,0,0,1.9,1.3,5,5,0,0,0,2.4.6h12.4a12.49,12.49,0,0,1-3.1-3.7,10.21,10.21,0,0,1-1.1-2.9,5.28,5.28,0,0,1,0-2.5,4.81,4.81,0,0,1-1.1-.9,8,8,0,0,1-1.8-2.3,7.86,7.86,0,0,1-1-4.5,7.72,7.72,0,0,1,.3-2.6,6.78,6.78,0,0,1,1.2-2.2,13.72,13.72,0,0,1,1.6-1.8,7.27,7.27,0,0,0,.8-.9,3.51,3.51,0,0,0,.6-1.4l.8,2.2a1.63,1.63,0,0,1,.1,1.2c-.1.5-.4.7-.7,1.2a18.26,18.26,0,0,0-1.3,1.6,5.42,5.42,0,0,0-.9,2.4,5.11,5.11,0,0,0,.3,3,3.92,3.92,0,0,0,.8,1.4,3.48,3.48,0,0,0,1.3,1.1l1-1.6.8-1.7a1.49,1.49,0,0,0,.2-.9,2.88,2.88,0,0,0-.1-1.3l1.4,1.9a3.26,3.26,0,0,1,.4,1.4,2,2,0,0,1-.4,1.5l-1.4,2.4a4.55,4.55,0,0,0-.5,2,5.84,5.84,0,0,0,.2,1.9,8.11,8.11,0,0,0,1,2.1,10,10,0,0,0,1.6,2c.4-1.4.6-2.2,1.1-3.6a11.72,11.72,0,0,0,.9-2.4,4.48,4.48,0,0,0,.1-1.2,7.57,7.57,0,0,0-.1-1.5l1.7,2.2c.4.4.3.8.3,1.4a4.3,4.3,0,0,1-.2,1.2l-1.3,3.8a2.48,2.48,0,0,0,0,1.7,3.52,3.52,0,0,0,1.4,2.2,4.27,4.27,0,0,0,2.1,1.1l1-3.2a3.18,3.18,0,0,0,.2-1.4,5.54,5.54,0,0,0-.2-1.8l1.8,1.8c.5.5.4,1,.5,1.7a3.33,3.33,0,0,1-.1,1.4l-1,3a4.53,4.53,0,0,0-.2,2.3,8.17,8.17,0,0,0,.6,2.7,4.15,4.15,0,0,1-2-1.2,4.57,4.57,0,0,1-1.1-1.6,5.78,5.78,0,0,1-.5-1.4,9.15,9.15,0,0,1-1.7-.9,11.31,11.31,0,0,1-2.6-2.3H138.8c-5.8,3.2-4.8,3.2-8.1,4.9-5.2,2.8-8,6.2-13.8,5.9-2.3-.2-3.4-.9-5.6-1.4a15.14,15.14,0,0,0-3.7-.7,8.74,8.74,0,0,0-4.8,1.1,6.91,6.91,0,0,0-3,3.1,7,7,0,0,1,4.7-.5,7.73,7.73,0,0,1,3.8,1.7,12.42,12.42,0,0,0-3.3-.4c-2.6.1-4.3.3-6.4,1.7a7.92,7.92,0,0,0-3.9,5.2,7.72,7.72,0,0,0,0,3.7,5.36,5.36,0,0,0-1.5,1.5c-.8,1-1.5,1.7-1.5,3a3.66,3.66,0,0,0,1.4,3.1,4.72,4.72,0,0,1,2.5-3,4.51,4.51,0,0,1,2.5-.7,6.07,6.07,0,0,0,1,.7,6.71,6.71,0,0,0,1.5.6l1.3-1.5a8.19,8.19,0,0,1,8.6-9,7.22,7.22,0,0,0-5.3,4.7,7.79,7.79,0,0,0-.5,4.3,4.88,4.88,0,0,0-2.4,2.5,5,5,0,0,0,.4,5.4,8.61,8.61,0,0,1,2.7-3,8,8,0,0,1,4.1-1.8,18.92,18.92,0,0,0,2.3.5,14.47,14.47,0,0,0,3.6-.1,4.89,4.89,0,0,1-.8-2.9c-.1-2.8,1.1-5.2,3.7-6.2a5.11,5.11,0,0,1,3-.3,5.3,5.3,0,0,0-2.8,1.6c-1.3,1.3-2.2,2.6-1.8,4.5a4,4,0,0,0,2.1,3.1,3.89,3.89,0,0,0,2.3.7,9.91,9.91,0,0,1-.2,1.8,9,9,0,0,1-.8,2.1,8.14,8.14,0,0,0,4.4-1.8,6.72,6.72,0,0,0,2.1-2.6,5.1,5.1,0,0,0,2.3-1.2c1.6-1.3,2.6-2.8,2.3-4.9a4.06,4.06,0,0,0-1.6-2.9,3.13,3.13,0,0,1,3.1-3.4,3.3,3.3,0,0,1,3.1,3.8,2.63,2.63,0,0,1-.7,1.5,5.92,5.92,0,0,0,1.9-.5,4.44,4.44,0,0,0,1.9-1.7l3.3-4.8a4.44,4.44,0,0,1,.8-1.1c1.2-1.4,2.2-2.4,4-2.5h1.7a3.46,3.46,0,0,0-1.1,1,8.74,8.74,0,0,0-.8,1l-3.3,5.3a9.09,9.09,0,0,1-1.8,2.1c-.6.5-.9.8-1.6,1.3l4.4-.1a4.19,4.19,0,0,0,2.2-.5,3.89,3.89,0,0,0,1.9-1.7l4.1-6.1a4.06,4.06,0,0,1,1.4-1.5,3,3,0,0,1,1.8-.8h2.4a10.47,10.47,0,0,0-1.1.8,8.74,8.74,0,0,0-.8,1l-3.4,5.4a9.09,9.09,0,0,1-1.8,2.1c-.6.5-.9.8-1.6,1.3l4.3-.1a4.19,4.19,0,0,0,2.2-.5,3.51,3.51,0,0,0,1.9-1.7l5.9-9.1a5.69,5.69,0,0,1-1.9-2.9,5.3,5.3,0,0,1-.3-2.8,9.26,9.26,0,0,1,.4-2.3c.2-.8.5-1.2.7-2.1a9.85,9.85,0,0,0,.2-1.7,6.6,6.6,0,0,0-.1-1.4l1.5,1.1a2.1,2.1,0,0,1,.7,1.1,2.51,2.51,0,0,1,.2,1.5,8,8,0,0,1-.3,1.5,21,21,0,0,0-.6,2.4,5.76,5.76,0,0,0,.2,2.6,6,6,0,0,0,1.6,2.3,9.11,9.11,0,0,0,3.3,2.2V256h2.3v10.6a2.39,2.39,0,0,0,.5,1.4,3,3,0,0,0,1.3.9l4,2a7,7,0,0,0,5.5-.1l2.9-1.1a3.6,3.6,0,0,1-1.8-.1,6.37,6.37,0,0,1-1.8-1l-7.3-3.9a4.45,4.45,0,0,0,1.6-2.6,5.76,5.76,0,0,0,.2-2.6,16.84,16.84,0,0,0-.6-2.4,8,8,0,0,1-.3-1.5,3.64,3.64,0,0,1,.2-1.5,2.59,2.59,0,0,1,.7-1.1l1.5-1.1a6.15,6.15,0,0,0-.1,1.4,8.81,8.81,0,0,0,.2,1.7c.2.8.5,1.2.7,2.1a9.08,9.08,0,0,1,.3,2.3,9.47,9.47,0,0,1-1,4.4L186,268a5.22,5.22,0,0,0,2.1.7,3.8,3.8,0,0,0,2.1-.2l3.8-1.6a3.67,3.67,0,0,1-1.8-.1,6.37,6.37,0,0,1-1.8-1l-7.1-3.9a2.68,2.68,0,0,1-.9-.2,16.78,16.78,0,0,0,.7-3.9,7.08,7.08,0,0,0,0-2.9l-.8-3.5a3.21,3.21,0,0,1-.1-1.4,2.05,2.05,0,0,1,.5-1.7l1.8-1.8a5.54,5.54,0,0,0-.2,1.8,5.9,5.9,0,0,0,.2,1.4,27.59,27.59,0,0,0,.8,2.7,23.81,23.81,0,0,1,.5,2.6,8.85,8.85,0,0,1,0,2.3,17.19,17.19,0,0,1-.6,2.6l8.5,4.6a5.22,5.22,0,0,0,2.1.7,3.12,3.12,0,0,0,2.1-.3l3.8-1.6a3.67,3.67,0,0,1-1.8-.1,6.37,6.37,0,0,1-1.8-1l-7.1-3.9c-.4-.2-.7-.3-1.2-.5l-1.3-.5a5.91,5.91,0,0,0,.6-1.4,16.55,16.55,0,0,0,.6-2.1,14,14,0,0,0-.2-5c-.4-1.9-1.3-2.8-1.6-4.8a2.62,2.62,0,0,1-.2-1.5,2.09,2.09,0,0,1,.3-1.4l1.7-2.2a7.57,7.57,0,0,0-.1,1.5,4.87,4.87,0,0,0,.1,1.2,20.36,20.36,0,0,0,.9,2.2c.5,1.5.8,2.3,1.2,3.8a7.83,7.83,0,0,0,1.6-2,5.8,5.8,0,0,0,1-2.1,4.13,4.13,0,0,0,.2-1.9,3.51,3.51,0,0,0-.5-2l-1.4-2.4a1.68,1.68,0,0,1-.3-1.2,2.49,2.49,0,0,1,.3-1.7l1.4-1.9a2.88,2.88,0,0,0-.1,1.3,2.39,2.39,0,0,0,.2.9l.8,1.7,1,1.6a3.48,3.48,0,0,0,1.3-1.1,3.92,3.92,0,0,0,.8-1.4,5.11,5.11,0,0,0,.3-3,7,7,0,0,0-.9-2.4,18.26,18.26,0,0,0-1.3-1.6,2.4,2.4,0,0,1-.7-1.2,2.55,2.55,0,0,1,.1-1.2l.8-2.2a3.51,3.51,0,0,0,.6,1.4c.3.4.5.5.8.9.6.7,1.1,1.1,1.6,1.8a9.41,9.41,0,0,1,1.2,2.2,7.72,7.72,0,0,1,.3,2.6,8.75,8.75,0,0,1-1,4.5,8,8,0,0,1-1.8,2.3,5.38,5.38,0,0,1-1.2.9,5.28,5.28,0,0,1,0,2.5,7.91,7.91,0,0,1-1.1,2.9,16.68,16.68,0,0,1-3.6,4.1,19,19,0,0,1,0,2.5,8.87,8.87,0,0,1-.8,3.2l9.7,5.2a5.22,5.22,0,0,0,2.1.7,3.8,3.8,0,0,0,2.1-.2l3.8-1.6a3.6,3.6,0,0,1-1.8-.1,6.37,6.37,0,0,1-1.8-1l-7.2-3.9c-.4-.2-.7-.3-1.1-.5l-1.3-.5a10.27,10.27,0,0,1,2.4-.5,7.53,7.53,0,0,1,3,.4,8.65,8.65,0,0,1,1.7.7l5.6,3a4,4,0,0,0,2.1.7,3,3,0,0,0,2.1-.3l4.6-2.1a2.7,2.7,0,0,1-1.8-.1,2.93,2.93,0,0,1-1.3-1.6c-.7-1.8.7-3.6,2.3-4.4,6.5-3.1,9.9-4.4,16.1-7.4,9.2-4.4,13.9-8.1,23.4-11.8,5.1-2,7.9-4.5,13.4-4.5,3.4,0,5.7-.1,8.6,1.8a9.85,9.85,0,0,1,3.2,2.9,9.53,9.53,0,0,1,1.4,4.1,16.22,16.22,0,0,1-.1,4.4c-.1,4.1,0,8.9,3.4,12.9a16.82,16.82,0,0,0,5.4,4.1c2,1.1,3.1,1.6,5,2.7a7.08,7.08,0,0,1,2.3,2.7,3.32,3.32,0,0,1,0,2.2,9.15,9.15,0,0,0,4-.7,9.06,9.06,0,0,0,4.8-3.8h6.2a5.42,5.42,0,0,1,.8,3c0,1.4,0,2.4-.9,3.4a3.89,3.89,0,0,1-3,1.1c-2.5.1-3.6-.6-6-.4a11.25,11.25,0,0,0-4.8,1.1,7.65,7.65,0,0,0-4,4.8,8.43,8.43,0,0,0-.5,4.2,4.38,4.38,0,0,0-1.8,2,5.06,5.06,0,0,0,0,5.3,11.63,11.63,0,0,1,2.9-2.5,6.88,6.88,0,0,1,3.3-1.2,8.15,8.15,0,0,1,4.3-6.8,7.76,7.76,0,0,1,3.9-1.2,9.38,9.38,0,0,0-3.9,3.2c-1.8,2.3-2.7,4.1-2.5,7a3.66,3.66,0,0,0-.8,2.6,3.55,3.55,0,0,0,1.2,2.6c1.9-2.1,2.5-2.7,4.6-3.7a9,9,0,0,1,2.3-.8,6.55,6.55,0,0,0,2.8.3,12.75,12.75,0,0,0,1.8-.4c-.7-2.5-1.3-4.8.4-6.8a6.08,6.08,0,0,1,5.9-2.6,6,6,0,0,0-3.6,2.3,5.31,5.31,0,0,0-1.1,3.9,4.59,4.59,0,0,0,2.3,3.8,3.48,3.48,0,0,0,.4,2.2,4.29,4.29,0,0,0,1.4,1.9,4.57,4.57,0,0,1,1.5-2.8,5.94,5.94,0,0,1,1.8-1.3c1.3-.6,2.2-.2,3.6-.5,2.3-.5,4-.2,5.7-1.7a6.09,6.09,0,0,0,.2-9.3,7.5,7.5,0,0,0,1.2-4.4,6.7,6.7,0,0,0-.9-4.2h3.5a8.08,8.08,0,0,1,1.9.3C338.2,264.5,339,265.2,339.5,266.2ZM187.4,228.8a4.19,4.19,0,0,1-.5-2.2,7.79,7.79,0,0,1,.4-2.1,8.11,8.11,0,0,1,1-2.1,7.57,7.57,0,0,0,.1,1.5,8.82,8.82,0,0,0,.9,2,10.81,10.81,0,0,1,1.1,1.8,5.09,5.09,0,0,1,.9,2.6,6.49,6.49,0,0,1-.8,2.7,9.5,9.5,0,0,1-1,1.7,3.75,3.75,0,0,0,0-2.1,5.8,5.8,0,0,0-1-2.1A16.29,16.29,0,0,1,187.4,228.8Zm-32.9,7.3a3.64,3.64,0,0,1,.2-1.5l.7-1.5a4.22,4.22,0,0,0,.3-1.2,3.4,3.4,0,0,0,.1-1l1.4,1.7a1.4,1.4,0,0,1,.3.9,5.27,5.27,0,0,1-.3,1.2c-.2.6-.5.9-.5,1.5a1.94,1.94,0,0,0,.3,1.3l1.5,1.8a.76.76,0,0,0,.9.2c.5-.1.6-.6.8-1.1a1.71,1.71,0,0,0,0-1.4l1.3,1.5a1.68,1.68,0,0,1,.3,1.2,1.38,1.38,0,0,1,0,.9l-.5,1.6a1.7,1.7,0,0,0,0,1,1.91,1.91,0,0,0,.5,1,2.54,2.54,0,0,0,1,.8,1.13,1.13,0,0,0,.8.1,1.37,1.37,0,0,0,.5-.8l.4-1.8a1.85,1.85,0,0,0-.2-.7,3.51,3.51,0,0,0-.5-.8l2,1.2a1.74,1.74,0,0,1,.6,1.2,2.85,2.85,0,0,1,0,1.3l-.2,1.9a2.08,2.08,0,0,0,.3,1.3c.3.5.7.6,1.3.9a6.36,6.36,0,0,0,1.8.6v-5.8h2.3v5.8a6.36,6.36,0,0,0,1.8-.6,3.81,3.81,0,0,0,1.3-.9,1.52,1.52,0,0,0,.3-1.3l-.2-1.9a2.85,2.85,0,0,1,0-1.3,1.74,1.74,0,0,1,.6-1.2l2-1.2c-.2.3-.3.5-.5.8s-.3.4-.2.7l.4,1.8c.1.4.1.7.5.8a1.13,1.13,0,0,0,.8-.1,2,2,0,0,0,1-.8,2.35,2.35,0,0,0,.5-1,1.7,1.7,0,0,0,0-1l-.5-1.6a2.72,2.72,0,0,1,0-.9,4.22,4.22,0,0,1,.3-1.2l1.3-1.5a1.71,1.71,0,0,0,0,1.4c.2.5.3.9.8,1.1a.9.9,0,0,0,.9-.2l1.5-1.8a1.94,1.94,0,0,0,.3-1.3c0-.6-.3-.9-.5-1.5s-.4-.7-.4-1.2a1.09,1.09,0,0,1,.4-.9l1.4-1.7a3.4,3.4,0,0,0,.1,1,5.64,5.64,0,0,0,.4,1.2l.7,1.5a3.64,3.64,0,0,1,.2,1.5,7.57,7.57,0,0,1-.1,1.5,5.37,5.37,0,0,1-1,1.6,15.58,15.58,0,0,1-1.6,2,10.62,10.62,0,0,1-2.1,1.6,2.57,2.57,0,0,1-.1,1.5,3.23,3.23,0,0,1-1,1.7,6.1,6.1,0,0,1-1.6,1.2,10.41,10.41,0,0,1-1.6.6,2.51,2.51,0,0,1-.6,1.4,5.24,5.24,0,0,1-1,1.1,6.78,6.78,0,0,1-2.3,1.4,7,7,0,0,1-3.1.7,6.43,6.43,0,0,1-3.1-.7,6.78,6.78,0,0,1-2.3-1.4,5.24,5.24,0,0,1-1-1.1,3.51,3.51,0,0,1-.6-1.4,4.42,4.42,0,0,1-1.6-.6,6.57,6.57,0,0,1-1.7-1.2,4.25,4.25,0,0,1-1-1.7,2.57,2.57,0,0,1-.1-1.5,8.34,8.34,0,0,1-2.1-1.6,15.58,15.58,0,0,1-1.6-2,5.37,5.37,0,0,1-1-1.6A2.28,2.28,0,0,1,154.5,236.1Zm-4.4-5.9a5.09,5.09,0,0,1,.9-2.6,10.81,10.81,0,0,0,1.1-1.8,8.82,8.82,0,0,0,.9-2,7.57,7.57,0,0,0,.1-1.5,7,7,0,0,1,1.1,2.1,5.22,5.22,0,0,1,.4,2.1,5.45,5.45,0,0,1-.5,2.2c-.3.7-.8,1-1.2,1.7a5.58,5.58,0,0,0-.9,2.1,3.75,3.75,0,0,0,0,2.1,9.91,9.91,0,0,1-1.1-1.7A6.49,6.49,0,0,1,150.1,230.2Zm.9-14.5a2.2,2.2,0,0,0,.5-1.6,2,2,0,0,0-.1-1.3,3.23,3.23,0,0,1,1.2,1.4,4.1,4.1,0,0,1,.7,2.6,4.69,4.69,0,0,1-.9,2.2l-1.9,2.7a7,7,0,0,1-.6.9,8.86,8.86,0,0,0-.8,1.7c-.2.6-.4.9-.6,1.5-.1-.8-.2-1.3-.3-2.1a14.62,14.62,0,0,1-.5-2,4.14,4.14,0,0,1,.8-2.9Zm8-16.6h8.1a1.22,1.22,0,0,1,1,.6c.5.5.3,1.2.3,1.8l-.1.6a1.71,1.71,0,0,0-1.3-.7h-2.5a2.72,2.72,0,0,1,1.1,2,2.2,2.2,0,1,1-4.4,0,2,2,0,0,1,.7-1.6l.4-.4h-3a2.9,2.9,0,0,1-2.2-1.2,3,3,0,0,1-1-2.3A4.25,4.25,0,0,0,159,199.1Zm5.3-11,2.8,3.7c.2.2.2.5.5.7a1.62,1.62,0,0,0,.9.5h-2.3a2.62,2.62,0,0,1-1.7-.5c-.6-.3-.8-.7-1.3-1.3l-2.3-3a2,2,0,0,0-.6-.7,4.17,4.17,0,0,0-.8-.6h2.7a2,2,0,0,1,1.1.3A4.5,4.5,0,0,1,164.3,188.1Zm10.4,3.9a2,2,0,0,0,.6.7,3.17,3.17,0,0,0,1.2.8h-3.1a3,3,0,0,1-1.8-.6c-.5-.3-.6-.7-.9-1.1l-2.8-4.3a3.92,3.92,0,0,0-.8-1,3.19,3.19,0,0,0-1.6-.9h2.9a2.72,2.72,0,0,1,1.7.6,2.66,2.66,0,0,1,1.1,1Zm8.1,1h-2.3a2.62,2.62,0,0,1-1.7-.5c-.6-.3-.8-.7-1.3-1.3l-2.3-3a2,2,0,0,0-.6-.7,4.17,4.17,0,0,0-.8-.6h2.7a2.38,2.38,0,0,1,1.2.3,2.28,2.28,0,0,1,.9.8l2.8,3.7c.2.2.2.5.5.7A1.33,1.33,0,0,0,182.8,193Zm2.6,4.9a3.19,3.19,0,0,1-1,2.3,2.76,2.76,0,0,1-2.2,1.2h-3a2.72,2.72,0,0,1,1.1,2,2.2,2.2,0,1,1-4.4,0,2.36,2.36,0,0,1,.7-1.6l.4-.4h-2.5c-.6,0-.9.3-1.4.8v-1.6c.1-.6.7-1.4,1.4-1.4h8.1A5.17,5.17,0,0,0,185.4,197.9Zm6.3,5.2c.3,5.1-2.8,10.3-8.3,11a6.33,6.33,0,0,1-4.6,5.9,33.77,33.77,0,0,1-.3,7.8v.1a13.3,13.3,0,0,1,1,4.8c0,3-2.5,4.9-5.6,4.8a25.08,25.08,0,0,0-3.1-.3c-3.2,0-4.4,1.1-7.3-1.2a3.77,3.77,0,0,1-1.4-3.3,13.72,13.72,0,0,1,.9-4.9,29.17,29.17,0,0,1-.3-7.8,6.66,6.66,0,0,1-4.7-5.9c-5.5-.8-8.6-5.9-8.3-11a6.67,6.67,0,0,1,2.4-4.1v4.7c0,4.2,2.4,8.1,7.1,8h.8c-.6,7.7,10.2,8.4,9.5,1.9a3.55,3.55,0,0,1-2.5-3.2h7.4a3.79,3.79,0,0,1-2.6,3.2c-.7,6.5,10,5.8,9.5-1.9h.8c4.7.1,7.1-3.8,7.1-8V199A6.38,6.38,0,0,1,191.7,203.1Zm2,18.8a7.34,7.34,0,0,1-.5,2,15.17,15.17,0,0,0-.3,2.1,9.38,9.38,0,0,0-.6-1.5,8.86,8.86,0,0,0-.8-1.7,7,7,0,0,0-.6-.9l-1.9-2.7a4,4,0,0,1-.2-4.8A5.53,5.53,0,0,1,190,213a5.7,5.7,0,0,0-.1,1.3,4.94,4.94,0,0,0,.5,1.6l2.4,3.3A2.85,2.85,0,0,1,193.7,221.9ZM311.6,252h-8.7c-3.4,0-4.9-1-7.2-3.6A15.39,15.39,0,0,1,294,246a9.94,9.94,0,0,0,6.6,2.4c2,0,4.1-.1,6.1.1a5.62,5.62,0,0,1,3.9,1.9A4.69,4.69,0,0,1,311.6,252ZM176.9,233.2c1-2.7-4.6-2.8-6.2-2.8a28.25,28.25,0,0,0-2.9.2c-1.3.2-3.9.7-3.2,2.6.5,1.5,2,1.6,3.4,1.9a13.1,13.1,0,0,0,2.8,0,13.13,13.13,0,0,0,2.8.1C174.9,234.8,176.4,234.7,176.9,233.2Zm-1.1-4.8a36.83,36.83,0,0,0,.6-6.6v-.9l-2.3,2.7a7.26,7.26,0,0,1-.5-1.2c-.2-.5-.6-1.7-1.2-1.9-.7.4-.8.3-1.6.3a2.54,2.54,0,0,1-1.5-.3h-.1c-.5.1-1.5,2.6-1.7,3l-2.3-2.7a38,38,0,0,0,.6,7.5,21.53,21.53,0,0,1,5-.4A21.22,21.22,0,0,1,175.8,228.4Zm110.9-33.6a4.07,4.07,0,0,1-.2-1,7.72,7.72,0,0,1,.1-1c-6.5,1.6-10.1,2.5-16.5,4.4-6.7,1.9-10.4,3.3-17.2,5.3-6.5,1.9-10.2,3.4-16.8,4.8a39.88,39.88,0,0,1-8.9,1.3c-3.6,0-5.2,0-7.1-1-2.2-1.1-3.9-2.2-4.3-4.6a3.62,3.62,0,0,1,.3-2.9,3,3,0,0,1,2.3-1.3,2.75,2.75,0,0,1,2.8,1.8,2.51,2.51,0,0,1-.8,2.9,10.75,10.75,0,0,0,3.1-.1c1.8-.2,3.1-.1,4.5-1.3a4.72,4.72,0,0,0,1.7-3.5,4.25,4.25,0,0,0-2.2-3.9,4.47,4.47,0,0,0-2.8-.9,5.44,5.44,0,0,1,4.5.3,4.41,4.41,0,0,1,1.8,1.5,4.3,4.3,0,0,1,.7,4.1,17,17,0,0,0,8.4-.7,19,19,0,0,0,8.1-5,23.47,23.47,0,0,0,5.9-8,27.34,27.34,0,0,1-7.4,2.7c-7.6,1.8-13.4-1.3-19.9-1.8a28.8,28.8,0,0,0-11.7,1.9c-4.1,1.6-6.8,3.4-8.5,7.4-1.6,3.6-1.8,6.4-.3,10.1,1.3,3.4,3.4,5.2,6.3,6.8,4.2,2.5,6.8,2.6,11.7,3,6.9.5,10.5-.6,17.1-2,6.1-1.2,9.3-2.8,15.3-4.4,6.5-1.8,10.2-2.8,16.8-4.4a41,41,0,0,1,6.5-6A25.41,25.41,0,0,1,286.7,194.8ZM210.1,155a6.56,6.56,0,0,1,4.3-1,10.32,10.32,0,0,0-3.3,2.1,9.5,9.5,0,0,0-3,4.6,4.35,4.35,0,0,0-1.6,1,4.56,4.56,0,0,0-1.5,2.7,4.81,4.81,0,0,0,.6,4.2,12.77,12.77,0,0,1,3.6-2.9,13.65,13.65,0,0,1,3.3-1.4,7.94,7.94,0,0,1,2.1-4.3,8.2,8.2,0,0,1,5.8-3.1,7.27,7.27,0,0,0-3.3,2.4c-1.8,2-2.2,3.8-2.3,6.5a10.75,10.75,0,0,0,.5,4,8.07,8.07,0,0,1,2.6-2.6,4.91,4.91,0,0,1,2.5-1,8.88,8.88,0,0,1,2.3.1c1.2,0,1.8.1,3,.1a6.17,6.17,0,0,0,6.7-6.1,8.33,8.33,0,0,0-.4-1.5,3.69,3.69,0,0,0-.7-1.4,3.07,3.07,0,0,1,2.2,1.2,3.46,3.46,0,0,1,.9,2.6,4,4,0,0,1-.7,2.4,8.61,8.61,0,0,0,5.7-.7,7.62,7.62,0,0,0,3.8-3.5,7.16,7.16,0,0,0,1-2.9,20.17,20.17,0,0,0,3.8-2.7,20.62,20.62,0,0,0,2.5-2.6l1.1,3.8a7.84,7.84,0,0,1,.2,2.2,5.66,5.66,0,0,1-.3,1.8l3.3-3.8a4.19,4.19,0,0,0,1.1-2.2,3.67,3.67,0,0,0,.1-1.8l-1.6-6.3a4.12,4.12,0,0,1,.1-2.2,4,4,0,0,1,.9-1.7l1.5-1.6a2.34,2.34,0,0,0-.2,1.1,2.23,2.23,0,0,0,0,1.4l1.5,5.5a5.84,5.84,0,0,1,.2,1.9,7.61,7.61,0,0,1-.3,2.1l3.3-3.8a4.27,4.27,0,0,0,1.1-2.1,3.67,3.67,0,0,0,.1-1.8l-1.5-6.3a3.33,3.33,0,0,1,.1-2.2,4,4,0,0,1,.9-1.7l1.5-1.7a2.34,2.34,0,0,0-.2,1.1,2.23,2.23,0,0,0,0,1.4l1.5,5.6a6.8,6.8,0,0,1,.2,2,6.93,6.93,0,0,1-.3,2l2.9-3.3a4.2,4.2,0,0,0,.9-1.9,6.73,6.73,0,0,0,.1-2l-.2-2a7.38,7.38,0,0,1,.1-2.5c.4-1.4,1.2-1.9,2.1-3,1.5-1.8,2.8-2.5,4.6-4,2.4-2,3.8-3.2,6.3-5.1a7,7,0,0,0-.7-4.7,6.16,6.16,0,0,0-2.2-2.6,7.81,7.81,0,0,0-2-1.1c-.8-.3-1.2-.4-2.1-.7a14.2,14.2,0,0,0-6.5-.2,19.07,19.07,0,0,0-2.8.7,20.72,20.72,0,0,0-2.2,1.1,4.92,4.92,0,0,1,.2,2.4,4.1,4.1,0,0,1-1.3,2.4c-1.1,1.1-2.1,1-3.6,1.5-2.4.8-4,.4-6.5.9s-4.1.4-6.4,1.5c-4.5,2-6.4,4.8-8.9,9-2,3.5-2.3,5.9-4.8,8.9-.6.7-.9,1.1-1.5,1.7,1.5-.3,2.4-.4,3.9-.6a41.47,41.47,0,0,1,6.1-.2,16.86,16.86,0,0,0-2.8,1.2,16.29,16.29,0,0,0-1.7,1.1,8.65,8.65,0,0,1-3.5,4.9,9.25,9.25,0,0,1-6,2c-2.2.1-3.4-.8-5.5-1.3-2.5-.6-3.8-1.6-6.3-1.5a11.68,11.68,0,0,0-4.2.9,9.46,9.46,0,0,0-4.4,3.5,10.39,10.39,0,0,0-2.2,5.3,5.3,5.3,0,0,0-2.9,2,4.8,4.8,0,0,0-1.5,3.1,4.21,4.21,0,0,0,.7,2.9,9.62,9.62,0,0,1,3-2.3,10.39,10.39,0,0,1,3.4-1.5,9.61,9.61,0,0,1,1.8-3.3A3.88,3.88,0,0,1,210.1,155Zm41.8-22.4c.9-2.5,2.3-3.7,4.5-5.2a15.66,15.66,0,0,1,5-2.1c1.5-.4,2.5-.3,4-.8a17,17,0,0,0,4.4-1.8,21.07,21.07,0,0,1-3.8,3.5c-2.5,1.8-4.8,1.9-7.2,3.6a18.54,18.54,0,0,0-7.2,9.1A9.68,9.68,0,0,1,251.9,132.6Zm87.6,16.1a6.89,6.89,0,0,0,.2-3.5,6.42,6.42,0,0,0-1.1-3,6.92,6.92,0,0,0-2.9-2.1,14,14,0,0,0-4.1-.6h-1.2a10.87,10.87,0,0,1-1.8-.1,3.81,3.81,0,0,1-2.4-1.1l-1.9-1.9a3.08,3.08,0,0,0,1.3.3,4.1,4.1,0,0,0,1.1.1h5.5a7.27,7.27,0,0,1,2.5.4,12.66,12.66,0,0,1,1.8.6l-3.6-4.7a5,5,0,0,0-1.5-1.4,3.5,3.5,0,0,0-2.2-.6H323a4.57,4.57,0,0,1-2-.2,2.68,2.68,0,0,1-1.3-1l-1-1.6a3.08,3.08,0,0,0,1.3.3,4.1,4.1,0,0,0,1.1.1h5.6a10.07,10.07,0,0,1,2.5.3,12.66,12.66,0,0,1,1.8.6l-3.6-4.7a5,5,0,0,0-1.5-1.4,4.28,4.28,0,0,0-2.2-.6h-6.3a4.57,4.57,0,0,1-2-.2,2.68,2.68,0,0,1-1.3-1l-1-1.6a5.64,5.64,0,0,0,1.2.4,4.1,4.1,0,0,0,1.1.1H321a10.68,10.68,0,0,1,2.5.3,12.66,12.66,0,0,1,1.8.6l-3.6-4.7a3.74,3.74,0,0,0-1.5-1.3,3.5,3.5,0,0,0-2.2-.6h-5.9a4.42,4.42,0,0,1-2-.2,1.2,1.2,0,0,1-.7-.7s-1-1.3-1.6-2.2c-1.3-1.9-3-5.1-3-5.1a21.31,21.31,0,0,0,6.2-1.2c3.7-1.3,6.3-2.2,8.5-5.4a11.82,11.82,0,0,0,2.2-7.5,11.73,11.73,0,0,0-2.3-7.5c-1.6-2.4-3.3-3.3-5.8-4.8s-4.2-1.7-7-2.6c-2.4-.7-4.8-.5-6-2.8a4.69,4.69,0,0,1-.4-4.3,3.89,3.89,0,0,1,2.5-2.5,10.12,10.12,0,0,0-8.5.3c-2.1.9-3.5,1.7-4.6,3.7a7.12,7.12,0,0,0-.7,6.5,37.9,37.9,0,0,0-7.2,4.5,41.2,41.2,0,0,0-8.6,8.1,64.19,64.19,0,0,1,7.4-1.4c2.6-.3,4.1-.4,6.8-.5a6.25,6.25,0,0,1,.8-3.8,6.66,6.66,0,0,1,6-3.7,5.72,5.72,0,0,0-2.6,2c-1,1.4-1.7,2.7-1,4.3a3.44,3.44,0,0,0,3.1,2.3,3.22,3.22,0,0,0,2.1-.6,5,5,0,0,1,5.3-6.2,4.89,4.89,0,0,0-1.8,1.4,5.3,5.3,0,0,0-.3,6.8,5,5,0,0,0,5.3,2.1,5.12,5.12,0,0,1-.6-2.2c0-1.9,2.4-4.2,4.3-4.2a4.33,4.33,0,0,1,4.3,3.8c.2,4.2-2.8,5.5-5.8,5.9-1.9.3-4.2-.5-6.1-.9-2.8-.5-4.2-1.1-7-1.6-6-1.1-9.5-1.7-15.7-1.4a86.69,86.69,0,0,0-13.3,1.8c-7.6,1.5-10,2.9-17.6,4.4-8.5,1.7-14,3.7-22.7,3.8a69.55,69.55,0,0,1-23.5-3.2,11.44,11.44,0,0,1,1.6,4.7,13.2,13.2,0,0,1,.2,2.8,27.31,27.31,0,0,0-2.9-5.3c-1.8-2.6-3.7-3.4-5.3-6.1a7,7,0,0,1-.9-1.7,3.76,3.76,0,0,1-.1-2.1,3,3,0,0,1,.7-1.5,3.19,3.19,0,0,0,.3,1.4,4.17,4.17,0,0,0,.6.8l5.5,5.5a19.55,19.55,0,0,0-.5-9.9,20.49,20.49,0,0,0-3.1-6.7,19,19,0,0,0,1.3-6.7,21.46,21.46,0,0,0-.6-5.3,5.71,5.71,0,0,1-2,3.8,4.92,4.92,0,0,1-1.5,1,3.51,3.51,0,0,0-1.7,1.9,4.66,4.66,0,0,0-.3,2.1,4.49,4.49,0,0,0,.8,2.7,8.71,8.71,0,0,1-2.8-2.6,7.45,7.45,0,0,1-1.3-2.5,3.28,3.28,0,0,1,1.8-3.8c.8-.5,1.5-.3,2.3-.5a4.47,4.47,0,0,0,2.2-1.3,4.94,4.94,0,0,0,1.6-3.2,12.49,12.49,0,0,0-5.1-.4,13.73,13.73,0,0,0-2.8.5,9.5,9.5,0,0,0-4.6-3,9.12,9.12,0,0,0-3.3-.5,10.33,10.33,0,0,0-4.9-2.7,17.32,17.32,0,0,0-5.1-.3,17.32,17.32,0,0,0-5.1.3,10.33,10.33,0,0,0-4.9,2.7,9.12,9.12,0,0,0-3.3.5,9.5,9.5,0,0,0-4.6,3,12.61,12.61,0,0,0-2.8-.5,11.14,11.14,0,0,0-5.1.5,4.94,4.94,0,0,0,1.6,3.1,4.36,4.36,0,0,0,2.3,1.3,8.56,8.56,0,0,1,2.3.5,3.35,3.35,0,0,1,1.5,1.4,2.89,2.89,0,0,1,.3,2.4,5,5,0,0,1-1.3,2.5,8.71,8.71,0,0,1-2.8,2.6,4.3,4.3,0,0,0,.8-2.7,5.11,5.11,0,0,0-.3-2.1,3.51,3.51,0,0,0-1.7-1.9,4.92,4.92,0,0,1-1.5-1,5.67,5.67,0,0,1-2.1-4,14,14,0,0,0-.5,5.4,19.45,19.45,0,0,0,1.3,6.7,18.63,18.63,0,0,0-3.1,6.7,18.51,18.51,0,0,0-.5,9.9l5.5-5.5a2.41,2.41,0,0,0,.6-.8,2.23,2.23,0,0,0,.3-1.4,3,3,0,0,1,.7,1.5,3.76,3.76,0,0,1-.1,2.1,5.56,5.56,0,0,1-.9,1.7c-1.6,2.7-3.5,3.5-5.3,6.1a24.67,24.67,0,0,0-2.9,5.3,7.17,7.17,0,0,1-.5-2.1,4.77,4.77,0,0,1,.4-2,51.7,51.7,0,0,1-7.3-4.9c-2.6-2-4.2-3-6.3-5.4-2.5-2.9-5.5-4.6-5.1-8.4.2-2,1.4-2.8,2.1-4.6.9-2.3,2.1-3.5,2-6a7.77,7.77,0,0,0-2.9-6.1,5.37,5.37,0,0,0-.8-3.9,6,6,0,0,0-4.4-3.3,5.22,5.22,0,0,1,.8,3.4,5.39,5.39,0,0,1-1,3,4.12,4.12,0,0,1,.9,3,4.22,4.22,0,0,1-1.6,3.3,7.34,7.34,0,0,0-.8-5,6.66,6.66,0,0,0-3.8-3.4,4.82,4.82,0,0,0-5.1-4,4.55,4.55,0,0,0-3.6,1.5,4.21,4.21,0,0,1,3.7,3.6,5.8,5.8,0,0,0-1.2,1,4,4,0,0,0-.9,1.7,5.78,5.78,0,0,1,4.5,2.2,5.65,5.65,0,0,1,1.5,5,7.85,7.85,0,0,0-1.6-2.8,7.14,7.14,0,0,0-7.5-2.3,4.38,4.38,0,0,0-4.1-1.6,4.7,4.7,0,0,0-4,2.3,5,5,0,0,1,2.9.9,4.89,4.89,0,0,1,1.6,1.6,15.26,15.26,0,0,0-1.1,1.6A7.56,7.56,0,0,0,95,80a6.46,6.46,0,0,0,1.6,4.4c1.3,1.5,2.4,2.4,4.4,2.3a9,9,0,0,0,1.6-.3c.7-.2,1-.7,1.7-.7,1.7.2,2.3,2.5,0,3.3-.6.2-1-.2-1.6-.3a7.34,7.34,0,0,0-2-.5,3.34,3.34,0,0,0-2.3,1.4,3.78,3.78,0,0,0-1,2.7,3.75,3.75,0,0,1-2.1,0,3.92,3.92,0,0,1-1.4-.8,4.18,4.18,0,0,0,.7,3.9,4.31,4.31,0,0,0,3.5,1.9,7.82,7.82,0,0,0,4.1,4.1,5.38,5.38,0,0,0,2.8.8c1.4,0,2-.8,3.2-1.4.8-.4,1.2-.9,2.1-1a2.94,2.94,0,0,1,2.4.6,3.47,3.47,0,0,1,1.6,3.1c0,1.8-1.3,2.7-2.9,3.4a4.48,4.48,0,0,1-3.4.4l2.3,2.2a8.47,8.47,0,0,0,1.9,1.4,5,5,0,0,0,2.4.6h7.2a9.74,9.74,0,0,1,2.4.2c1,.3,1.6.3,2.3,1.1l1.7,1.7a3.19,3.19,0,0,0-1.4-.3,4.1,4.1,0,0,0-1.1-.1h-7.3a11.53,11.53,0,0,1-2.6-.3,15.19,15.19,0,0,1-2-.6l3.6,3.4a8.47,8.47,0,0,0,1.9,1.4,5,5,0,0,0,2.4.6h7.2a9.74,9.74,0,0,1,2.4.2,3.73,3.73,0,0,1,2.3,1l1.7,1.8a3.19,3.19,0,0,0-1.4-.3,4.87,4.87,0,0,0-1.2-.1h-7.5a11.53,11.53,0,0,1-2.6-.3,15.19,15.19,0,0,1-2-.6l3.6,3.4a8.47,8.47,0,0,0,1.9,1.4,5,5,0,0,0,2.4.6h7.2a9.74,9.74,0,0,1,2.4.2,3.73,3.73,0,0,1,2.3,1l1.8,1.8a3.19,3.19,0,0,0-1.4-.3,4.48,4.48,0,0,0-1.2-.1h-6.9a13.12,13.12,0,0,1-2.7-.3,10.56,10.56,0,0,1-1.9-.6l3.6,3.4a5.86,5.86,0,0,0,1.9,1.3,5,5,0,0,0,2.4.6h12.4a12.49,12.49,0,0,1-3.1-3.7,10.21,10.21,0,0,1-1.1-2.9,5.28,5.28,0,0,1,0-2.5,4.81,4.81,0,0,1-1.1-.9,8,8,0,0,1-1.8-2.3,7.86,7.86,0,0,1-1-4.5,8.31,8.31,0,0,1,.3-2.7,6.78,6.78,0,0,1,1.2-2.2,13.72,13.72,0,0,1,1.6-1.8,7.27,7.27,0,0,0,.8-.9,3.51,3.51,0,0,0,.6-1.4l.8,2.2a1.63,1.63,0,0,1,.1,1.2c-.1.5-.4.7-.7,1.2a18.26,18.26,0,0,0-1.3,1.6,5.42,5.42,0,0,0-.9,2.4,5.11,5.11,0,0,0,.3,3,3.92,3.92,0,0,0,.8,1.4,3.48,3.48,0,0,0,1.3,1.1l1-1.5.8-1.7a1.34,1.34,0,0,0,.2-.9,2.88,2.88,0,0,0-.1-1.3l1.4,2a3.26,3.26,0,0,1,.4,1.4,2,2,0,0,1-.4,1.5l-1.4,2.4a4.49,4.49,0,0,0-.5,1.9,6.8,6.8,0,0,0,.2,2,8.11,8.11,0,0,0,1,2.1,10,10,0,0,0,1.6,2c.4-1.4.6-2.2,1.1-3.6a10.64,10.64,0,0,0,.9-2.5,4.1,4.1,0,0,0,.1-1.1,7.57,7.57,0,0,0-.1-1.5l1.7,2.2c.4.5.3.8.3,1.4a4.3,4.3,0,0,1-.2,1.2l-1.3,3.8a2.48,2.48,0,0,0,0,1.7,3.52,3.52,0,0,0,1.4,2.2,4.27,4.27,0,0,0,2.1,1.1l1-3.2a3.18,3.18,0,0,0,.2-1.4,5.24,5.24,0,0,0-.2-1.8l1.8,1.8c.5.5.4,1,.5,1.6a3.33,3.33,0,0,1-.1,1.4l-1,3a4.53,4.53,0,0,0-.2,2.3,8.17,8.17,0,0,0,.6,2.7,5.1,5.1,0,0,1-2-1.2,4.57,4.57,0,0,1-1.1-1.6,5.78,5.78,0,0,1-.5-1.4,9.15,9.15,0,0,1-1.7-.9,9.37,9.37,0,0,1-2.6-2.3H138.8c-5.8,3.2-4.8,3.2-8.1,4.9-5.2,2.8-8,6.2-13.8,5.9-2.3-.1-3.4-.9-5.6-1.4a15.14,15.14,0,0,0-3.7-.7,8,8,0,0,0-4.8,1.2,6.91,6.91,0,0,0-3,3.1,7,7,0,0,1,4.7-.5,7.73,7.73,0,0,1,3.8,1.7,9.26,9.26,0,0,0-3.3-.3,10.14,10.14,0,0,0-6.4,1.7,7.92,7.92,0,0,0-3.9,5.2,7.72,7.72,0,0,0,0,3.7,5.36,5.36,0,0,0-1.5,1.5c-.8,1-1.5,1.7-1.5,3a3.66,3.66,0,0,0,1.4,3.1,4.72,4.72,0,0,1,2.5-3,4.51,4.51,0,0,1,2.5-.7,6.07,6.07,0,0,0,1,.7,6.71,6.71,0,0,0,1.5.6l1.3-1.5a7.71,7.71,0,0,1,1.8-6,7.47,7.47,0,0,1,6.8-3,7,7,0,0,0-5.3,4.7,7.9,7.9,0,0,0-.5,4.3,4.88,4.88,0,0,0-2.4,2.5,5,5,0,0,0,.4,5.4,9.59,9.59,0,0,1,2.7-3,8,8,0,0,1,4.1-1.8,9.48,9.48,0,0,0,2.3.5,10.89,10.89,0,0,0,3.6-.1,4.89,4.89,0,0,1-.8-2.9c-.1-2.8,1.1-5.2,3.7-6.2a5.11,5.11,0,0,1,3-.3,5.3,5.3,0,0,0-2.8,1.6c-1.3,1.3-2.2,2.6-1.8,4.5a4,4,0,0,0,2.1,3.1,3.89,3.89,0,0,0,2.3.7,11,11,0,0,1-.2,1.8,7.61,7.61,0,0,1-.8,2.1,8.14,8.14,0,0,0,4.4-1.8,6.72,6.72,0,0,0,2.1-2.6,5.1,5.1,0,0,0,2.3-1.2c1.6-1.3,2.6-2.8,2.3-4.9a4.06,4.06,0,0,0-1.6-2.9,3.27,3.27,0,0,1,3.1-3.5,3.3,3.3,0,0,1,3.1,3.8,3.74,3.74,0,0,1-.7,1.6,5.92,5.92,0,0,0,1.9-.5,5.19,5.19,0,0,0,1.9-1.7l3.3-4.8a7.63,7.63,0,0,1,.8-1.1c1.2-1.4,2.2-2.5,4-2.5h1.7a5.24,5.24,0,0,0-1.1,1,7.27,7.27,0,0,0-.8.9l-3.3,5.3a9.09,9.09,0,0,1-1.8,2.1c-.6.5-.9.8-1.6,1.3l4.4-.1a5.45,5.45,0,0,0,2.2-.5,4.21,4.21,0,0,0,1.9-1.6l4.1-6.1a4.06,4.06,0,0,1,1.4-1.5,3,3,0,0,1,1.8-.8h2.4a4.81,4.81,0,0,0-1.1.9,7.27,7.27,0,0,0-.8.9L153,156a9.09,9.09,0,0,1-1.8,2.1c-.6.5-.9.8-1.6,1.3l4.3-.1a4.19,4.19,0,0,0,2.2-.5,3.75,3.75,0,0,0,1.9-1.6l5.9-9.1a5.69,5.69,0,0,1-1.9-2.9,5.3,5.3,0,0,1-.3-2.8,9.26,9.26,0,0,1,.4-2.3c.2-.8.5-1.2.7-2.1a11.14,11.14,0,0,0,.2-1.7,7.08,7.08,0,0,0-.1-1.4l1.5,1.2a2.29,2.29,0,0,1,.7,1,2.51,2.51,0,0,1,.2,1.5,8,8,0,0,1-.3,1.5,16.84,16.84,0,0,0-.6,2.4,5.76,5.76,0,0,0,.2,2.6,6.33,6.33,0,0,0,1.6,2.4,9.11,9.11,0,0,0,3.3,2.2V139.1h2.3v10.6a2.51,2.51,0,0,0,1.8,2.3l4,2a7,7,0,0,0,5.5-.1l2.9-1.1a3.6,3.6,0,0,1-1.8-.1,10.08,10.08,0,0,1-1.8-.9l-7.3-3.9a4.45,4.45,0,0,0,1.6-2.6,5.76,5.76,0,0,0,.2-2.6,16.84,16.84,0,0,0-.6-2.4,8,8,0,0,1-.3-1.5,3.89,3.89,0,0,1,.2-1.5,1.83,1.83,0,0,1,.7-1l1.5-1.2a6.6,6.6,0,0,0-.1,1.4,8.81,8.81,0,0,0,.2,1.7c.2.8.5,1.2.7,2.1a9.08,9.08,0,0,1,.3,2.3,9.47,9.47,0,0,1-1,4.4l7.5,4.1a5.22,5.22,0,0,0,2.1.7,3.12,3.12,0,0,0,2.1-.3l3.8-1.6a3.67,3.67,0,0,1-1.8-.1,6.37,6.37,0,0,1-1.8-1l-7.1-3.9a2.68,2.68,0,0,1-.9-.2,16.78,16.78,0,0,0,.7-3.9,7.08,7.08,0,0,0,0-2.9l-.8-3.5a3.21,3.21,0,0,1-.1-1.4c0-.7,0-1.2.5-1.6l1.8-1.8a5.54,5.54,0,0,0-.2,1.8,7.84,7.84,0,0,0,.2,1.4,27.59,27.59,0,0,0,.8,2.7,23.81,23.81,0,0,1,.5,2.6,8.85,8.85,0,0,1,0,2.3,14.37,14.37,0,0,1-.6,2.6l8.5,4.6a5.22,5.22,0,0,0,2.1.7,3.12,3.12,0,0,0,2.1-.3l3.8-1.6a3.67,3.67,0,0,1-1.8-.1,10.08,10.08,0,0,1-1.8-.9l-7.1-3.9c-.4-.2-.7-.3-1.2-.5l-1.3-.5a5.91,5.91,0,0,0,.6-1.4,12.88,12.88,0,0,0,.6-2.1,13.39,13.39,0,0,0-.2-4.9c-.4-1.9-1.3-2.9-1.6-4.8a2.62,2.62,0,0,1-.2-1.5,2.09,2.09,0,0,1,.3-1.4l1.7-2.2a7.57,7.57,0,0,0-.1,1.5,4.1,4.1,0,0,0,.1,1.1,20.36,20.36,0,0,0,.9,2.2c.5,1.5.8,2.3,1.2,3.8a7.83,7.83,0,0,0,1.6-2,5.8,5.8,0,0,0,1-2.1,4.42,4.42,0,0,0,.2-2,3,3,0,0,0-.5-1.9l-1.4-2.4a1.68,1.68,0,0,1-.3-1.2,2.49,2.49,0,0,1,.3-1.7l1.4-2a2.88,2.88,0,0,0-.1,1.3,2.39,2.39,0,0,0,.2.9l.8,1.7,1,1.5a3.48,3.48,0,0,0,1.3-1.1,3.92,3.92,0,0,0,.8-1.4,5.11,5.11,0,0,0,.3-3,7,7,0,0,0-.9-2.4,10.1,10.1,0,0,0-1.3-1.6,2.4,2.4,0,0,1-.7-1.2,2.55,2.55,0,0,1,.1-1.2l.8-2.2a3.51,3.51,0,0,0,.6,1.4c.3.4.5.5.8.9.6.7,1.1,1.1,1.6,1.8a9.41,9.41,0,0,1,1.2,2.2,8,8,0,0,1,.3,2.7,8.75,8.75,0,0,1-1,4.5,8,8,0,0,1-1.8,2.3,5.38,5.38,0,0,1-1.2.9,5.28,5.28,0,0,1,0,2.5,7.91,7.91,0,0,1-1.1,2.9,16.68,16.68,0,0,1-3.6,4.1,19,19,0,0,1,0,2.5,8.87,8.87,0,0,1-.8,3.2l9.7,5.2a5.22,5.22,0,0,0,2.1.7,3.12,3.12,0,0,0,2.1-.3l3.8-1.6a3.6,3.6,0,0,1-1.8-.1,6.08,6.08,0,0,1-1.8-.9l-7.2-3.9c-.4-.2-.7-.3-1.1-.5l-1.3-.5a10.27,10.27,0,0,1,2.4-.5,7.53,7.53,0,0,1,3,.4,8.65,8.65,0,0,1,1.7.7l5.6,3a5.22,5.22,0,0,0,2.1.7,3,3,0,0,0,2.1-.3l4.6-2.1a2.7,2.7,0,0,1-1.8-.1,2.93,2.93,0,0,1-1.3-1.6c-.7-1.8.7-3.6,2.3-4.4,6.5-3.1,9.9-4.4,16.1-7.4,9.2-4.4,13.9-8.1,23.4-11.8,5.1-2,7.9-4.5,13.4-4.5,3.4,0,5.7-.1,8.6,1.8a9.85,9.85,0,0,1,3.2,2.9,10,10,0,0,1,1.4,4.1,16.22,16.22,0,0,1-.1,4.4c-.1,4.1,0,9,3.4,12.9a16.82,16.82,0,0,0,5.4,4.1c2,1.1,3.1,1.6,5,2.7a6.43,6.43,0,0,1,2.3,2.7,3.32,3.32,0,0,1,0,2.2,9.15,9.15,0,0,0,4-.7,9.06,9.06,0,0,0,4.8-3.8h6.2a5.21,5.21,0,0,1,.8,3c0,1.4,0,2.4-.9,3.4a3.89,3.89,0,0,1-3,1.1c-2.5.1-3.6-.6-6-.4a11.25,11.25,0,0,0-4.8,1.1,7.65,7.65,0,0,0-4,4.8,8.43,8.43,0,0,0-.5,4.2,4.69,4.69,0,0,0-1.8,1.9,5.06,5.06,0,0,0,0,5.3,11.63,11.63,0,0,1,2.9-2.5,6.88,6.88,0,0,1,3.3-1.2,8.15,8.15,0,0,1,4.3-6.8,7.76,7.76,0,0,1,3.9-1.2,8.68,8.68,0,0,0-3.9,3.2c-1.8,2.3-2.7,4.1-2.5,7a3.77,3.77,0,0,0-.8,2.7,3.55,3.55,0,0,0,1.2,2.6c1.9-2.1,2.5-2.7,4.6-3.7a9,9,0,0,1,2.3-.8,6.55,6.55,0,0,0,2.8.3c.7-.1,1.5-.4,1.8-.4-.7-2.5-1.3-4.8.4-6.8a6.08,6.08,0,0,1,5.9-2.6,6,6,0,0,0-3.6,2.3,5.44,5.44,0,0,0-1.1,3.9,4.59,4.59,0,0,0,2.3,3.8,3.36,3.36,0,0,0,.4,2.2,4.29,4.29,0,0,0,1.4,1.9,4.57,4.57,0,0,1,1.5-2.8,5.94,5.94,0,0,1,1.8-1.3c1.3-.6,2.2-.2,3.6-.5,2.3-.4,4-.2,5.7-1.7a6,6,0,0,0,.2-9.2,7.39,7.39,0,0,0,1.2-4.3,6.7,6.7,0,0,0-.9-4.2h3.5a8.08,8.08,0,0,1,1.9.3A4.3,4.3,0,0,1,339.5,148.7ZM187.4,111.3a4.19,4.19,0,0,1-.5-2.2,7.79,7.79,0,0,1,.4-2.1,10,10,0,0,1,1-2.1,6.15,6.15,0,0,0,.1,1.4,7.22,7.22,0,0,0,.9,2,16.29,16.29,0,0,1,1.1,1.7,4.79,4.79,0,0,1,.9,2.6,6.49,6.49,0,0,1-.8,2.7,9.5,9.5,0,0,1-1,1.7,3.75,3.75,0,0,0,0-2.1,5.8,5.8,0,0,0-1-2.1A5.83,5.83,0,0,1,187.4,111.3Zm-32.9,7.3a3.64,3.64,0,0,1,.2-1.5l.7-1.5a4.22,4.22,0,0,0,.3-1.2,3.4,3.4,0,0,0,.1-1l1.4,1.7a1.4,1.4,0,0,1,.3.9,5.27,5.27,0,0,1-.3,1.2c-.2.6-.5.9-.5,1.5a1.94,1.94,0,0,0,.3,1.3l1.5,1.8a.76.76,0,0,0,.9.2c.5-.1.6-.6.8-1.1a1.71,1.71,0,0,0,0-1.4l1.3,1.5a1.55,1.55,0,0,1,.3,1.1,1.38,1.38,0,0,1,0,.9l-.5,1.6a1.7,1.7,0,0,0,0,1,1.91,1.91,0,0,0,.5,1,2.54,2.54,0,0,0,1,.8,1.13,1.13,0,0,0,.8.1c.3-.1.4-.4.5-.8l.4-1.8a1.85,1.85,0,0,0-.2-.7c-.1-.4-.3-.5-.5-.8l2,1.2a1.74,1.74,0,0,1,.6,1.2,2.85,2.85,0,0,1,0,1.3l-.2,2a2.08,2.08,0,0,0,.3,1.3c.3.5.7.6,1.3.9a6.36,6.36,0,0,0,1.8.6v-5.8h2.3v5.8a4.26,4.26,0,0,0,1.8-.6,3.81,3.81,0,0,0,1.3-.9,1.52,1.52,0,0,0,.3-1.3l-.2-2a2.85,2.85,0,0,1,0-1.3,1.74,1.74,0,0,1,.6-1.2l2-1.2c-.2.3-.3.5-.5.8s-.3.4-.2.7l.4,1.8c.1.4.1.7.5.8a1.13,1.13,0,0,0,.8-.1,2,2,0,0,0,1-.8,2.35,2.35,0,0,0,.5-1,1.7,1.7,0,0,0,0-1l-.5-1.6a2.72,2.72,0,0,1,0-.9,2.9,2.9,0,0,1,.3-1.1l1.3-1.5a1.71,1.71,0,0,0,0,1.4c.2.5.3.9.8,1.1a.9.9,0,0,0,.9-.2l1.5-1.8a1.94,1.94,0,0,0,.3-1.3c0-.6-.3-.9-.5-1.5s-.4-.7-.4-1.2a1.09,1.09,0,0,1,.4-.9l1.4-1.7a3.4,3.4,0,0,0,.1,1,5.64,5.64,0,0,0,.4,1.2l.7,1.5a3.89,3.89,0,0,1,.2,1.5,7.57,7.57,0,0,1-.1,1.5,5.37,5.37,0,0,1-1,1.6,15.58,15.58,0,0,1-1.6,2,10.62,10.62,0,0,1-2.1,1.6,2.57,2.57,0,0,1-.1,1.5,3.23,3.23,0,0,1-1,1.7,6.1,6.1,0,0,1-1.6,1.2,10.41,10.41,0,0,1-1.6.6,2.51,2.51,0,0,1-.6,1.4,3.18,3.18,0,0,1-1,1,6.78,6.78,0,0,1-2.3,1.4,7,7,0,0,1-3.1.7,6.43,6.43,0,0,1-3.1-.7,6.78,6.78,0,0,1-2.3-1.4c-.4-.4-.7-.5-1-1a3.51,3.51,0,0,1-.6-1.4,4.42,4.42,0,0,1-1.6-.6,6.57,6.57,0,0,1-1.7-1.2,4.25,4.25,0,0,1-1-1.7,2.57,2.57,0,0,1-.1-1.5,8.34,8.34,0,0,1-2.1-1.6,15.58,15.58,0,0,1-1.6-2,5.37,5.37,0,0,1-1-1.6A2.15,2.15,0,0,1,154.5,118.6Zm-4.4-5.8a5.09,5.09,0,0,1,.9-2.6,16.29,16.29,0,0,0,1.1-1.7,8.82,8.82,0,0,0,.9-2,6.6,6.6,0,0,0,.1-1.4,7,7,0,0,1,1.1,2.1,5.22,5.22,0,0,1,.4,2.1,5.45,5.45,0,0,1-.5,2.2c-.3.7-.8,1-1.2,1.7a5.58,5.58,0,0,0-.9,2.1,3.75,3.75,0,0,0,0,2.1,9.91,9.91,0,0,1-1.1-1.7A8.45,8.45,0,0,1,150.1,112.8Zm.9-14.5a2.2,2.2,0,0,0,.5-1.6,2,2,0,0,0-.1-1.3,3.23,3.23,0,0,1,1.2,1.4,4.23,4.23,0,0,1,.7,2.7,4,4,0,0,1-.9,2.1l-1.9,2.7c-.2.4-.4.5-.6.9a8.86,8.86,0,0,0-.8,1.7c-.2.6-.4.9-.6,1.5-.1-.8-.2-1.3-.3-2.1a14.62,14.62,0,0,1-.5-2,4.28,4.28,0,0,1,.8-2.9Zm8-16.7h8.1a1.22,1.22,0,0,1,1,.6c.5.5.3,1.2.3,1.8l-.1.6a1.71,1.71,0,0,0-1.3-.7h-2.5a2.72,2.72,0,0,1,1.1,2,2.2,2.2,0,1,1-4.4,0,2,2,0,0,1,.7-1.6l.4-.4h-3a2.9,2.9,0,0,1-2.2-1.2,3,3,0,0,1-1-2.3A3.85,3.85,0,0,0,159,81.6Zm5.3-10.9,2.8,3.7c.2.2.2.5.5.7a1.62,1.62,0,0,0,.9.5h-2.3a2.62,2.62,0,0,1-1.7-.5c-.6-.3-.8-.7-1.3-1.3l-2.3-3a2,2,0,0,0-.6-.7,4.17,4.17,0,0,0-.8-.6h2.7a1.5,1.5,0,0,1,1.1.4A2,2,0,0,1,164.3,70.7Zm10.4,3.9a2,2,0,0,0,.6.7,3.17,3.17,0,0,0,1.2.8h-3.1a2.47,2.47,0,0,1-1.8-.6c-.5-.3-.6-.7-.9-1.2L167.9,70a7.63,7.63,0,0,0-.8-1.1,3.19,3.19,0,0,0-1.6-.9h2.9a2.72,2.72,0,0,1,1.7.6,2.91,2.91,0,0,1,1.1,1.1Zm8.1.9h-2.3a2.62,2.62,0,0,1-1.7-.5c-.6-.3-.8-.7-1.3-1.3l-2.3-3a2,2,0,0,0-.6-.7,4.17,4.17,0,0,0-.8-.6h2.7a1.75,1.75,0,0,1,1.2.4,2.28,2.28,0,0,1,.9.8l2.8,3.7c.2.2.2.5.5.7A1.62,1.62,0,0,0,182.8,75.5Zm2.6,4.9a3.19,3.19,0,0,1-1,2.3,2.76,2.76,0,0,1-2.2,1.2h-3a2.72,2.72,0,0,1,1.1,2,2.2,2.2,0,1,1-4.4,0,2.36,2.36,0,0,1,.7-1.6l.4-.4h-2.5c-.6,0-.9.3-1.4.8V83.1a1.59,1.59,0,0,1,1.4-1.4h8.1A4.55,4.55,0,0,0,185.4,80.4Zm6.3,5.3c.3,5.1-2.8,10.3-8.3,11a6.33,6.33,0,0,1-4.6,5.9,33.77,33.77,0,0,1-.3,7.8v.1a12.87,12.87,0,0,1,1,4.8c0,3-2.5,4.9-5.6,4.8a25.08,25.08,0,0,0-3.1-.3c-3.2,0-4.4,1.1-7.3-1.2a3.77,3.77,0,0,1-1.4-3.3,13.72,13.72,0,0,1,.9-4.9,29.17,29.17,0,0,1-.3-7.8,6.66,6.66,0,0,1-4.7-5.9c-5.5-.8-8.6-5.9-8.3-11a6.67,6.67,0,0,1,2.4-4.1v4.7c0,4.2,2.4,8.1,7.1,8h.8c-.6,7.7,10.2,8.4,9.5,1.9A3.66,3.66,0,0,1,167,93h7.4a3.92,3.92,0,0,1-2.6,3.2c-.7,6.5,10,5.7,9.5-1.9h.8c4.7.1,7.1-3.8,7.1-8V81.6A6.14,6.14,0,0,1,191.7,85.7Zm2,18.7a7.34,7.34,0,0,1-.5,2,15.17,15.17,0,0,0-.3,2.1,9.38,9.38,0,0,0-.6-1.5,8.86,8.86,0,0,0-.8-1.7,7,7,0,0,0-.6-.9l-1.9-2.7a4,4,0,0,1-.9-2.1,4.39,4.39,0,0,1,.7-2.7,8.06,8.06,0,0,1,1.2-1.4,5.7,5.7,0,0,0-.1,1.3,4.28,4.28,0,0,0,.5,1.6l2.4,3.3A3,3,0,0,1,193.7,104.4Zm117.9,30.2h-8.7c-3.4,0-4.9-1-7.2-3.6a11.8,11.8,0,0,1-1.7-2.4,9.94,9.94,0,0,0,6.6,2.4c2,0,4.1-.1,6.1.1a5.62,5.62,0,0,1,3.9,1.9A3.36,3.36,0,0,1,311.6,134.6ZM176.9,115.7c1-2.8-4.6-2.8-6.2-2.8a28.25,28.25,0,0,0-2.9.2c-1.3.2-3.9.6-3.2,2.6.5,1.5,2,1.6,3.4,1.9a13.1,13.1,0,0,0,2.8,0,13.13,13.13,0,0,0,2.8.1C174.9,117.4,176.4,117.2,176.9,115.7Zm-1.1-4.7a36.83,36.83,0,0,0,.6-6.6v-.9l-2.3,2.7a7.26,7.26,0,0,1-.5-1.2c-.2-.5-.6-1.7-1.2-1.9-.7.4-.8.3-1.6.3a2.54,2.54,0,0,1-1.5-.3h-.1c-.5.1-1.5,2.6-1.7,3l-2.3-2.7a38,38,0,0,0,.6,7.5,21.53,21.53,0,0,1,5-.4A17,17,0,0,1,175.8,111ZM286.7,77.4a4.07,4.07,0,0,1-.2-1,10.42,10.42,0,0,1,.1-1.1c-6.5,1.6-10.1,2.5-16.5,4.4-6.7,1.9-10.4,3.3-17.2,5.3-6.5,1.9-10.2,3.4-16.8,4.8a39.88,39.88,0,0,1-8.9,1.3c-3.6,0-5.2,0-7.1-1-2.2-1.1-3.9-2.2-4.3-4.6a3.62,3.62,0,0,1,.3-2.9,3,3,0,0,1,2.3-1.3,2.75,2.75,0,0,1,2.8,1.8,2.51,2.51,0,0,1-.8,2.9,16.05,16.05,0,0,0,3.1,0c1.8-.2,3.1-.1,4.5-1.3a4.52,4.52,0,0,0,1.7-3.4,4.25,4.25,0,0,0-2.2-3.9,4.47,4.47,0,0,0-2.8-.9,5.09,5.09,0,0,1,4.5.3,4.41,4.41,0,0,1,1.8,1.5,4.3,4.3,0,0,1,.7,4.1,17,17,0,0,0,8.4-.7c3.5-1.1,5.4-2.5,8.1-5.1a23.47,23.47,0,0,0,5.9-8,27.34,27.34,0,0,1-7.4,2.7c-7.6,1.8-13.4-1.4-19.9-1.8a28.8,28.8,0,0,0-11.7,1.9c-4.1,1.6-6.8,3.4-8.5,7.4-1.6,3.6-1.8,6.4-.3,10.1,1.3,3.4,3.4,5.2,6.3,6.8,4.2,2.5,6.8,2.6,11.7,3,6.9.5,10.5-.6,17.1-2,6.1-1.3,9.3-2.8,15.3-4.4,6.5-1.8,10.2-2.8,16.8-4.4a41,41,0,0,1,6.5-6A23.21,23.21,0,0,1,286.7,77.4ZM200.4,393.1a4.8,4.8,0,0,0-1.5,3.1,4.21,4.21,0,0,0,.7,2.9,9.62,9.62,0,0,1,3-2.3,10.39,10.39,0,0,1,3.4-1.5,9.61,9.61,0,0,1,1.8-3.3,7,7,0,0,1,2.2-2,6.56,6.56,0,0,1,4.3-1,10.32,10.32,0,0,0-3.3,2.1,9.5,9.5,0,0,0-3,4.6,4.35,4.35,0,0,0-1.6,1,4.56,4.56,0,0,0-1.5,2.7,4.81,4.81,0,0,0,.6,4.2,12.77,12.77,0,0,1,3.6-2.9,13.65,13.65,0,0,1,3.3-1.4,7.94,7.94,0,0,1,2.1-4.3,8.2,8.2,0,0,1,5.8-3.1,7.27,7.27,0,0,0-3.3,2.4c-1.8,2-2.2,3.8-2.3,6.5a10.75,10.75,0,0,0,.5,4,8.07,8.07,0,0,1,2.6-2.6,6,6,0,0,1,2.5-1,17.7,17.7,0,0,1,2.3.1c1.2,0,1.8.1,3,.1a6.17,6.17,0,0,0,6.7-6.1,8.33,8.33,0,0,0-.4-1.5,2.73,2.73,0,0,0-.7-1.3,3.34,3.34,0,0,1,2.2,1.1,3.46,3.46,0,0,1,.9,2.6,4,4,0,0,1-.7,2.4,8.61,8.61,0,0,0,5.7-.7,7.62,7.62,0,0,0,3.8-3.5,7.16,7.16,0,0,0,1-2.9,20.17,20.17,0,0,0,3.8-2.7,20.62,20.62,0,0,0,2.5-2.6l1.1,3.8a8.2,8.2,0,0,1,.2,2.2,5.66,5.66,0,0,1-.3,1.8l3.3-3.8a4.27,4.27,0,0,0,1.1-2.1,3.67,3.67,0,0,0,.1-1.8l-1.6-6.3a4.12,4.12,0,0,1,.1-2.2,4,4,0,0,1,.9-1.7l1.5-1.6a2.34,2.34,0,0,0-.2,1.1,2.23,2.23,0,0,0,0,1.4l1.5,5.5a5.84,5.84,0,0,1,.2,1.9,7.61,7.61,0,0,1-.3,2.1l3.3-3.8a4.27,4.27,0,0,0,1.1-2.1,3.67,3.67,0,0,0,.1-1.8l-1.5-6.3a3.33,3.33,0,0,1,.1-2.2,4,4,0,0,1,.9-1.7l1.5-1.7a2.34,2.34,0,0,0-.2,1.1,2.23,2.23,0,0,0,0,1.4l1.5,5.6a6.8,6.8,0,0,1,.2,2,6.93,6.93,0,0,1-.3,2l2.9-3.3a4.2,4.2,0,0,0,.9-1.9,6.73,6.73,0,0,0,.1-2l-.2-1.9a7.38,7.38,0,0,1,.1-2.5c.4-1.4,1.2-1.9,2.1-3,1.5-1.8,2.8-2.5,4.6-4,2.4-2,3.8-3.2,6.3-5.1a7,7,0,0,0-.7-4.7,6.16,6.16,0,0,0-2.2-2.6,7.81,7.81,0,0,0-2-1.1c-.8-.3-1.2-.4-2.1-.7a14.2,14.2,0,0,0-6.5-.2,19.07,19.07,0,0,0-2.8.7,20.72,20.72,0,0,0-2.2,1.1,4.92,4.92,0,0,1,.2,2.4,3.83,3.83,0,0,1-1.3,2.4c-1.1,1.1-2.1,1-3.6,1.5-2.4.8-4,.4-6.5.9s-4.1.4-6.4,1.5c-4.5,2-6.4,4.8-8.9,9-2,3.5-2.3,5.9-4.8,8.9-.6.7-.9,1-1.5,1.7,1.5-.3,2.4-.4,3.9-.6a41.47,41.47,0,0,1,6.1-.2,16.86,16.86,0,0,0-2.8,1.2,16.29,16.29,0,0,0-1.7,1.1,8.65,8.65,0,0,1-3.5,4.9,9.25,9.25,0,0,1-6,2c-2.2.1-3.4-.8-5.5-1.3-2.5-.6-3.8-1.5-6.3-1.5a11.68,11.68,0,0,0-4.2.9,9.46,9.46,0,0,0-4.4,3.5,10.39,10.39,0,0,0-2.2,5.3A4.1,4.1,0,0,0,200.4,393.1Zm51.5-25.6c.9-2.5,2.3-3.7,4.5-5.2a15.66,15.66,0,0,1,5-2.1c1.5-.5,2.5-.4,4-.8a17,17,0,0,0,4.4-1.8,21.07,21.07,0,0,1-3.8,3.5c-2.5,1.8-4.8,1.9-7.2,3.6a18.54,18.54,0,0,0-7.2,9.1A9.68,9.68,0,0,1,251.9,367.5Z"/><path class="cls-1" d="M637.78,192.45H608.21v24.19h34.35V224H599.21V155.75H642.1v7.36H608.21v22h29.57Z"/><path class="cls-1" d="M692.35,192.45H662.77v24.19h34.36V224H653.77V155.75h42.89v7.36H662.77v22h29.58Z"/><path class="cls-1" d="M733.36,196.39h-16V224h-9.05V155.75h22.6q11.52,0,17.74,5.25t6.21,15.28a18.37,18.37,0,0,1-3.45,11.11,20.56,20.56,0,0,1-9.58,7.08l16,29V224h-9.66Zm-16-7.36h13.83q6.71,0,10.66-3.48a11.73,11.73,0,0,0,4-9.29q0-6.34-3.77-9.72t-10.9-3.43H717.33Z"/><path class="cls-1" d="M805.13,206.14h-28.6L770.11,224h-9.28l26.06-68.25h7.88L820.88,224h-9.24Zm-25.88-7.36h23.21l-11.63-31.92Z"/><path class="cls-1" d="M531.51,346.6V254.18h27.3a42.9,42.9,0,0,1,21.74,5.45,37.32,37.32,0,0,1,14.7,15.49,49.31,49.31,0,0,1,5.2,23v4.64a49,49,0,0,1-5.24,23.1A36.69,36.69,0,0,1,580.3,341.2a44.79,44.79,0,0,1-22.19,5.4Zm16.06-79.48v66.66h10.48q12.63,0,19.39-7.91t6.89-22.69V298q0-15-6.54-23t-19-7.94Z"/><path class="cls-1" d="M651.75,318.56H626.16v17.33h30V346.6H612.83V281.9h43.28v10.8h-30v15.42h25.59Z"/><path class="cls-1" d="M697.56,329.62a6.87,6.87,0,0,0-2.66-5.8q-2.67-2-9.6-4.26a68.86,68.86,0,0,1-11-4.42q-11-6-11-16a15.66,15.66,0,0,1,3-9.36,19.27,19.27,0,0,1,8.49-6.42A31.9,31.9,0,0,1,687.17,281a29.14,29.14,0,0,1,12.35,2.51,19.75,19.75,0,0,1,8.42,7.09,18.55,18.55,0,0,1,3,10.4H697.61a8.74,8.74,0,0,0-2.8-6.91q-2.8-2.48-7.87-2.47-4.89,0-7.6,2.07a6.53,6.53,0,0,0-2.71,5.44,6.23,6.23,0,0,0,3.18,5.29,35.87,35.87,0,0,0,9.36,4q11.37,3.42,16.57,8.49a16.9,16.9,0,0,1,5.2,12.61,15.57,15.57,0,0,1-6.36,13.18q-6.35,4.77-17.1,4.78a33.08,33.08,0,0,1-13.6-2.74,21.42,21.42,0,0,1-9.35-7.48,19.17,19.17,0,0,1-3.22-11h13.37q0,10.71,12.8,10.7,4.75,0,7.42-1.93A6.31,6.31,0,0,0,697.56,329.62Z"/><path class="cls-1" d="M734.13,346.6H720.8V281.9h13.33Z"/><path class="cls-1" d="M797.67,338.42a23.14,23.14,0,0,1-10.17,6.69,42.79,42.79,0,0,1-14.58,2.38,28.91,28.91,0,0,1-14.73-3.67,24.39,24.39,0,0,1-9.77-10.64,37.42,37.42,0,0,1-3.54-16.4v-4.4a39.73,39.73,0,0,1,3.27-16.77,24.2,24.2,0,0,1,9.42-10.84A27.16,27.16,0,0,1,772,281q11.5,0,18,5.49t7.68,16h-13q-.9-5.55-3.94-8.13c-2-1.71-4.82-2.57-8.37-2.57q-6.79,0-10.35,5.11t-3.6,15.19v4.13q0,10.19,3.86,15.38t11.33,5.2q7.51,0,10.71-3.2V322.43H772.21v-9.82h25.46Z"/><path class="cls-1" d="M861.08,346.6H847.75L821.8,304V346.6H808.47V281.9H821.8l26,42.66V281.9h13.29Z"/><path class="cls-1" d="M928.93,329.62a6.85,6.85,0,0,0-2.67-5.8q-2.65-2-9.59-4.26a68.47,68.47,0,0,1-11-4.42q-11-6-11-16a15.66,15.66,0,0,1,3-9.36,19.24,19.24,0,0,1,8.48-6.42A32,32,0,0,1,918.53,281a29.11,29.11,0,0,1,12.35,2.51,19.69,19.69,0,0,1,8.42,7.09,18.55,18.55,0,0,1,3,10.4H929a8.71,8.71,0,0,0-2.8-6.91q-2.79-2.48-7.86-2.47-4.89,0-7.6,2.07a6.51,6.51,0,0,0-2.71,5.44,6.23,6.23,0,0,0,3.18,5.29,35.78,35.78,0,0,0,9.35,4q11.37,3.42,16.58,8.49a16.89,16.89,0,0,1,5.19,12.61A15.56,15.56,0,0,1,936,342.71q-6.36,4.77-17.11,4.78a33,33,0,0,1-13.59-2.74,21.51,21.51,0,0,1-9.36-7.48,19.25,19.25,0,0,1-3.22-11h13.38q0,10.71,12.79,10.7c3.17,0,5.65-.64,7.42-1.93A6.29,6.29,0,0,0,928.93,329.62Z"/><path class="cls-1" d="M973.63,311.05l13.46-29.15h14.58l-21.24,41.24V346.6H966.88V323.14L945.64,281.9h14.61Z"/><path class="cls-1" d="M1040.41,329.62a6.87,6.87,0,0,0-2.66-5.8q-2.67-2-9.6-4.26a68.86,68.86,0,0,1-11-4.42q-11-6-11-16a15.66,15.66,0,0,1,3-9.36,19.27,19.27,0,0,1,8.49-6.42A31.88,31.88,0,0,1,1030,281a29.16,29.16,0,0,1,12.36,2.51,19.75,19.75,0,0,1,8.42,7.09,18.55,18.55,0,0,1,3,10.4h-13.33a8.74,8.74,0,0,0-2.8-6.91q-2.81-2.48-7.87-2.47-4.89,0-7.6,2.07a6.53,6.53,0,0,0-2.71,5.44,6.23,6.23,0,0,0,3.18,5.29,35.93,35.93,0,0,0,9.35,4q11.38,3.42,16.58,8.49a16.9,16.9,0,0,1,5.2,12.61,15.57,15.57,0,0,1-6.36,13.18q-6.35,4.77-17.1,4.78a33.08,33.08,0,0,1-13.6-2.74,21.42,21.42,0,0,1-9.35-7.48,19.17,19.17,0,0,1-3.22-11h13.37q0,10.71,12.8,10.7,4.76,0,7.42-1.93A6.31,6.31,0,0,0,1040.41,329.62Z"/><path class="cls-1" d="M1111.51,292.7h-19.82v53.9h-13.33V292.7h-19.55V281.9h52.7Z"/><path class="cls-1" d="M1158,318.56h-25.6v17.33h30V346.6H1119.1V281.9h43.28v10.8h-30v15.42H1158Z"/><path class="cls-1" d="M1187.71,281.9l16.62,46.92,16.53-46.92h17.5v64.7H1225V328.91l1.33-30.52-17.46,48.21h-9.15l-17.42-48.17,1.33,30.48V346.6h-13.33V281.9Z"/><polygon class="cls-1" points="587.69 132.3 559.32 211.35 530.95 132.3 521.04 132.3 555.17 224 563.53 224 597.28 133.31 597.66 132.3 587.69 132.3"/></svg>