<?xml version="1.0" standalone="no"?>
<!DOCTYPE svg PUBLIC "-//W3C//DTD SVG 20010904//EN"
  "http://www.w3.org/TR/2001/REC-SVG-20010904/DTD/svg10.dtd">
<svg version="1.1" id="Layer_1" xmlns="http://www.w3.org/2000/svg" xmlns:xlink="http://www.w3.org/1999/xlink" x="0px" y="0px"
     viewBox="0 0 1261.2 500" style="enable-background:new 0 0 1261.2 500;" xml:space="preserve">
  <style type="text/css">
    .st0 {
      fill: #006EB5;
    }
  </style>

  <g transform="translate(0.000000,500.000000) scale(0.100000,-0.100000)" stroke="none">
    <path class="st0" d="M1313 3455 c-319 -58 -595 -269 -729 -559 -65 -142 -79 -212 -79
-396 0 -142 3 -176 23 -245 104 -362 395 -629 772 -707 78 -16 120 -19 230
-15 202 8 360 56 518 159 82 54 235 195 226 209 -3 5 -81 68 -175 140 l-170
131 -53 -49 c-63 -58 -152 -107 -231 -128 -74 -19 -223 -19 -295 0 -353 94
-514 484 -322 781 102 157 269 244 469 244 151 0 273 -46 379 -143 34 -31 58
-46 66 -41 23 14 302 226 323 245 19 19 19 20 -40 80 -156 158 -332 253 -548
294 -95 18 -265 18 -364 0z"/>
    <path class="st0" d="M2230 3456 c0 -8 151 -443 335 -966 184 -524 335 -954 335 -956 0 -2
81 -4 180 -4 166 0 180 1 190 19 14 27 670 1896 670 1910 0 8 -66 11 -251 9
l-252 -3 -173 -494 c-96 -272 -176 -497 -179 -499 -2 -3 -7 1 -9 9 -7 18 -313
890 -333 947 l-15 42 -249 0 c-207 0 -249 -2 -249 -14z"/>
    <path class="st0" d="M4022 2503 l3 -968 238 -3 237 -2 0 970 0 970 -240 0 -240 0 2 -967z"/>
  </g>
</svg>
